<svg id="Layer_1" data-name="Layer 1" xmlns="http://www.w3.org/2000/svg" viewBox="0 0 558.9 440.9"><defs><style>.cls-1,.cls-182,.cls-3,.cls-47,.cls-48,.cls-5{fill:#fff;}.cls-2{fill:#3ca0f0;}.cls-18,.cls-24,.cls-3,.cls-32,.cls-34,.cls-38,.cls-47,.cls-9{isolation:isolate;}.cls-182,.cls-3{font-size:8.5px;font-family:Arial-BoldMT, Arial;}.cls-182,.cls-3,.cls-47{font-weight:700;}.cls-4{fill:#0078d7;}.cls-48,.cls-5{stroke:#fff;stroke-miterlimit:3;}.cls-5{stroke-width:1.5px;}.cls-6,.cls-60,.cls-8{fill:none;}.cls-6,.cls-60{stroke:#0070c0;stroke-miterlimit:10;stroke-width:2px;}.cls-7{fill:#0070c0;}.cls-159,.cls-179,.cls-18,.cls-24,.cls-32,.cls-34,.cls-38,.cls-61,.cls-9{font-size:7.73px;}.cls-179,.cls-18,.cls-24,.cls-32,.cls-34,.cls-9{fill:#3f3f3f;}.cls-161,.cls-162,.cls-163,.cls-164,.cls-170,.cls-171,.cls-172,.cls-173,.cls-174,.cls-175,.cls-176,.cls-179,.cls-18,.cls-24,.cls-32,.cls-34,.cls-39,.cls-40,.cls-41,.cls-42,.cls-43,.cls-44,.cls-61,.cls-9{font-family:YuGothicUI-Regular, Yu Gothic UI;}.cls-9{letter-spacing:-0.07em;}.cls-10{letter-spacing:-0.12em;}.cls-11{letter-spacing:-0.11em;}.cls-12{letter-spacing:-0.11em;}.cls-13{letter-spacing:-0.17em;}.cls-14{letter-spacing:-0.2em;}.cls-15{letter-spacing:-0.03em;}.cls-16{letter-spacing:-0.08em;}.cls-17,.cls-44{letter-spacing:-0.07em;}.cls-18{letter-spacing:-0.05em;}.cls-19{letter-spacing:-0.09em;}.cls-20{letter-spacing:-0.1em;}.cls-21{letter-spacing:-0.11em;}.cls-22{letter-spacing:-0.17em;}.cls-23{letter-spacing:-0.08em;}.cls-24{letter-spacing:-0.16em;}.cls-25{letter-spacing:-0.15em;}.cls-26{letter-spacing:-0.18em;}.cls-27{letter-spacing:-0.1em;}.cls-28{letter-spacing:-0.14em;}.cls-29{letter-spacing:-0.11em;}.cls-30{letter-spacing:-0.1em;}.cls-31{letter-spacing:-0.12em;}.cls-32{letter-spacing:-0.01em;}.cls-33{letter-spacing:0em;}.cls-34{letter-spacing:0em;}.cls-35{letter-spacing:-0.04em;}.cls-36{letter-spacing:-0.05em;}.cls-37{fill:#f2f2f2;stroke:#7f7f7f;stroke-linecap:round;stroke-linejoin:round;stroke-width:0.75px;}.cls-159,.cls-38,.cls-73{font-family:ArialMT, Arial;}.cls-39,.cls-68{letter-spacing:-0.06em;}.cls-40{letter-spacing:-0.12em;}.cls-41{letter-spacing:-0.09em;}.cls-110,.cls-42{letter-spacing:-0.06em;}.cls-158,.cls-43{letter-spacing:-0.13em;}.cls-45{fill:#005694;}.cls-46{fill:#ab3107;}.cls-47{font-size:11px;font-family:YuGothicUI-Semibold, Yu Gothic UI;}.cls-48{stroke-width:1.55px;}.cls-49{fill:#006fd4;}.cls-50{letter-spacing:-0.04em;}.cls-51{letter-spacing:-0.05em;}.cls-52{fill:#0089cf;}.cls-53{fill:#fcfdfe;}.cls-54{fill:#fdfcfd;}.cls-55{fill:#f5f4f8;}.cls-56{fill:#058bd0;}.cls-57{fill:#eaf2f8;}.cls-58{fill:#f5f7fa;}.cls-59{fill:#f3f5f9;}.cls-60{stroke-linecap:square;}.cls-62{letter-spacing:-0.1em;}.cls-63{letter-spacing:-0.07em;}.cls-64{letter-spacing:-0.06em;}.cls-65{letter-spacing:-0.06em;}.cls-66{letter-spacing:-0.03em;}.cls-67{letter-spacing:-0.03em;}.cls-69{letter-spacing:-0.16em;}.cls-70{letter-spacing:-0.08em;}.cls-71{letter-spacing:-0.02em;}.cls-72{letter-spacing:0em;}.cls-74{letter-spacing:-0.16em;}.cls-75{letter-spacing:-0.15em;}.cls-76{letter-spacing:-0.18em;}.cls-77{letter-spacing:-0.1em;}.cls-78{letter-spacing:-0.11em;}.cls-79{letter-spacing:-0.1em;}.cls-80{letter-spacing:-0.19em;}.cls-81{letter-spacing:-0.09em;}.cls-82{letter-spacing:-0.02em;}.cls-83{letter-spacing:-0.11em;}.cls-84{letter-spacing:-0.14em;}.cls-85{letter-spacing:-0.06em;}.cls-86{letter-spacing:-0.13em;}.cls-87{letter-spacing:-0.07em;}.cls-88{letter-spacing:-0.07em;}.cls-89{letter-spacing:-0.12em;}.cls-90{letter-spacing:-0.11em;}.cls-91{letter-spacing:-0.11em;}.cls-92{letter-spacing:-0.17em;}.cls-93{letter-spacing:-0.2em;}.cls-94{letter-spacing:-0.03em;}.cls-95{letter-spacing:-0.08em;}.cls-96{letter-spacing:-0.14em;}.cls-97{letter-spacing:-0.09em;}.cls-98{letter-spacing:-0.02em;}.cls-99{letter-spacing:-0.05em;}.cls-100{letter-spacing:-0.05em;}.cls-101{letter-spacing:-0.06em;}.cls-102{letter-spacing:-0.1em;}.cls-103{letter-spacing:-0.2em;}.cls-104{letter-spacing:-0.03em;}.cls-105{letter-spacing:-0.07em;}.cls-106{letter-spacing:0.02em;}.cls-107{letter-spacing:-0.1em;}.cls-108{letter-spacing:-0.16em;}.cls-109{letter-spacing:-0.16em;}.cls-111,.cls-176{letter-spacing:-0.05em;}.cls-112,.cls-162{letter-spacing:-0.09em;}.cls-113,.cls-163{letter-spacing:-0.02em;}.cls-114{letter-spacing:-0.04em;}.cls-115{letter-spacing:-0.06em;}.cls-116{letter-spacing:-0.03em;}.cls-117{letter-spacing:-0.1em;}.cls-118{letter-spacing:-0.11em;}.cls-119{letter-spacing:-0.16em;}.cls-120{letter-spacing:-0.17em;}.cls-121{letter-spacing:0em;}.cls-122{letter-spacing:-0.01em;}.cls-123{letter-spacing:-0.09em;}.cls-124{letter-spacing:-0.19em;}.cls-125{letter-spacing:-0.09em;}.cls-126{letter-spacing:-0.04em;}.cls-127{letter-spacing:-0.09em;}.cls-128{letter-spacing:-0.06em;}.cls-129{letter-spacing:-0.03em;}.cls-130{letter-spacing:0em;}.cls-131{letter-spacing:-0.05em;}.cls-132{letter-spacing:-0.08em;}.cls-133,.cls-170{letter-spacing:-0.11em;}.cls-134{letter-spacing:-0.09em;}.cls-135{letter-spacing:-0.14em;}.cls-136{letter-spacing:-0.03em;}.cls-137{letter-spacing:-0.06em;}.cls-138{letter-spacing:-0.05em;}.cls-139{letter-spacing:-0.15em;}.cls-140{letter-spacing:-0.17em;}.cls-141{letter-spacing:-0.09em;}.cls-142{letter-spacing:-0.15em;}.cls-143{letter-spacing:-0.04em;}.cls-144{letter-spacing:-0.01em;}.cls-145,.cls-164{letter-spacing:-0.02em;}.cls-146{letter-spacing:-0.03em;}.cls-147{letter-spacing:-0.09em;}.cls-148{letter-spacing:-0.03em;}.cls-149{letter-spacing:0em;}.cls-150{letter-spacing:-0.08em;}.cls-151{letter-spacing:-0.1em;}.cls-152{letter-spacing:-0.09em;}.cls-153{letter-spacing:-0.16em;}.cls-154{letter-spacing:-0.17em;}.cls-155{letter-spacing:-0.05em;}.cls-156{letter-spacing:-0.04em;}.cls-157{letter-spacing:-0.05em;}.cls-160{letter-spacing:-0.02em;}.cls-165{letter-spacing:-0.03em;}.cls-166{letter-spacing:-0.15em;}.cls-167{letter-spacing:-0.19em;}.cls-168{letter-spacing:-0.11em;}.cls-169{letter-spacing:-0.02em;}.cls-171{letter-spacing:-0.15em;}.cls-172{letter-spacing:-0.14em;}.cls-173{letter-spacing:-0.07em;}.cls-174{letter-spacing:-0.03em;}.cls-175{letter-spacing:-0.11em;}.cls-177{letter-spacing:-0.17em;}.cls-178{letter-spacing:-0.06em;}.cls-180{letter-spacing:-0.13em;}.cls-181{letter-spacing:-0.07em;}</style></defs><title>OJ103682916_clari</title><rect class="cls-1" width="558.9" height="440.9"/><g id="shape17-11"><rect class="cls-2" x="456.2" y="106.3" width="68.7" height="36.2"/><text class="cls-3" transform="translate(464.7 126.86)">Azure Batch</text></g><g id="shape18-15"><rect class="cls-2" x="456.2" y="225.7" width="68.7" height="36.2"/><text class="cls-3" transform="translate(457.69 246.29)">Azure Functions</text></g><g id="shape19-19"><rect class="cls-2" x="456.2" y="284.7" width="68.7" height="36.2"/></g><g id="shape21-24"><rect class="cls-2" x="456.2" y="165.8" width="68.7" height="36.2"/></g><g id="group1056-307"><g id="shape22-308"><rect class="cls-2" x="456.2" y="404.7" width="68.7" height="36.2"/></g><g id="shape1044-313"><path class="cls-4" d="M553.3,419.6v6.3l3.9-1.5V421Zm-1.5,5.4-.2-.1v-4.3l.2-.1.2-.1.3-.1v4.8l-.3-.1Zm-.9-.2-.2-.1v-3.8l.6-.2v4.2l-.2-.1Zm-.8-.3-.2-.1V421l.5-.2v3.7Zm-.3-3.9v4.1l2.9,1.2v-6.3Zm-1.2-7.2v6.3l3.9-1.5v-3.4Zm0,12.5v6.3l3.9-1.5v-3.4Zm-1.5-7.1-.2-.1v-4.3l.2-.1.2-.1.3-.1V419l-.3-.1Zm-.9-.3-.2-.1v-3.9l.6-.2v4.2l-.2-.1Zm-.8-.3-.2-.1v-3.4l.5-.2v3.7Zm-.3-3.8v4.1l2.9,1.2v-6.2Zm2,17-.2-.1V427l.2-.1.2-.1.3-.1v4.9l-.3-.1Zm-.9-.3-.2-.1v-3.8l.6-.2v4.2l-.2-.1Zm-.8-.3-.2-.1v-3.4l.5-.2v3.7Zm-.3-3.7v4.1l2.9,1.2v-6.3Zm-.7-7.4V426l3.9-1.5v-3.4Zm-1.6,5.4-.2-.1v-4.4l.2-.1.2-.1.3-.1v4.8l-.3-.1Zm-.9-.3-.2-.1v-3.8l.6-.2v4.2l-.2-.1Zm-.8-.2-.2-.1v-3.4l.5-.2v3.7Zm-.3-3.9v4.1l2.9,1.2v-6.3Zm-1.3-7.3v6.3l3.9-1.5v-3.4Zm0,12.6v6.3l3.9-1.5v-3.4Zm-1.5-7.2-.2-.1v-4.3l.2-.1.2-.1.3-.1V419l-.3-.1Zm-1-.3-.2-.1v-3.9l.6-.2v4.2l-.2-.1Zm-.7-.2-.2-.1v-3.4l.5-.2v3.7Zm-.3-3.8v4.1l2.9,1.2v-6.3Zm2,16.9-.2-.1V427l.2-.1.2-.1.3-.1v4.9l-.3-.1Zm-1-.3-.2-.1v-3.8l.6-.2v4.2l-.2-.1Zm-.7-.3-.2-.1v-3.4l.5-.2v3.7Zm-.3-3.7v4.1l2.9,1.2v-6.3Zm-.7-7.4V426l3.9-1.5v-3.4Zm-1.6,5.4-.2-.1v-4.4l.2-.1.2-.1.3-.1v4.8l-.3-.1h-.2Zm-.9-.3-.2-.1v-3.8l.6-.2v4.2l-.2-.1Zm-.8-.2-.2-.1v-3.4l.5-.2v3.7Zm-.3-3.9v4.1l2.9,1.2v-6.3Z"/></g></g><g id="group1057-315"><g id="shape20-316"><rect class="cls-2" x="456.2" y="347.7" width="68.7" height="36.2"/><text class="cls-3" transform="translate(461.16 368.32)">Service Fabric</text></g><g id="group1045-320"><g id="shape1046-321"><path class="cls-5" d="M538.1,362.3c-.1-.2-.1-.3-.2-.4l2.3-1.9a1.76,1.76,0,0,0,.5.4Zm6.4,12.2a3.61,3.61,0,1,0,6.7-2.7,3,3,0,0,0-1.1-1.4l1-3.4a3.65,3.65,0,0,0-1.2-7.2,3.36,3.36,0,0,0-1.4.5l-2.5-2.1a3.59,3.59,0,0,0,.2-1.1,3.65,3.65,0,1,0-7.3-.3v.3a4.25,4.25,0,0,0,.2,1.1l-2.7,2.2a5.26,5.26,0,0,0-1.8-.4c-2,0-3.6,1.2-3.6,3.2a3.64,3.64,0,0,0,3,3.6l1,3.5a3.61,3.61,0,0,0,4.8,5.4,2.81,2.81,0,0,0,1-1.4l3.7.2Zm.3-14.3.2-.2,2.3,1.9-.1.2Z"/></g><g id="shape1047-323"><path class="cls-4" d="M554.2,363.4a3.61,3.61,0,0,0-5.6-3l-2.5-2.1a3.59,3.59,0,0,0,.2-1.1,3.65,3.65,0,1,0-7.3-.3v.3a4.25,4.25,0,0,0,.2,1.1l-2.7,2.2a5.26,5.26,0,0,0-1.8-.4c-2,0-3.6,1.2-3.6,3.2a3.64,3.64,0,0,0,3,3.6l1,3.5a3.61,3.61,0,1,0,4.8,5.4,3.07,3.07,0,0,0,1-1.5h3.7a3.58,3.58,0,1,0,6.7-2.5,2.83,2.83,0,0,0-1.1-1.5l1-3.4A3.47,3.47,0,0,0,554.2,363.4Zm-6.3,6.2a3.73,3.73,0,0,0-3.6,2.9h-3.4a3.73,3.73,0,0,0-3.6-2.9.75.75,0,0,0-.5.1l-.8-2.9a3.46,3.46,0,0,0,2.2-3.3,2.82,2.82,0,0,0-.4-1.5l2.3-1.9a3.52,3.52,0,0,0,4.7,0l2.3,1.9a3.67,3.67,0,0,0,1.8,4.8h.1l-.8,2.9C548.2,369.6,548,369.6,547.9,369.6Z"/></g></g></g><g id="shape11-2"><rect class="cls-2" x="456.2" y="46.6" width="68.7" height="36.2"/><text class="cls-3" transform="translate(470.9 67.23)">VM/VMSS</text></g><line class="cls-6" x1="368.9" y1="83.5" x2="368.9" y2="98.8"/><polygon class="cls-7" points="366.2 97 368.9 106.9 371.6 97 366.2 97"/><line class="cls-6" x1="393.4" y1="64.7" x2="449.2" y2="64.7"/><polygon class="cls-7" points="447.4 67.4 457.2 64.7 447.4 62.1 447.4 67.4"/><line class="cls-6" x1="393.4" y1="124.3" x2="449.2" y2="124.3"/><polygon class="cls-7" points="447.4 127 457.2 124.3 447.4 121.7 447.4 127"/><line class="cls-6" x1="393.4" y1="185.8" x2="449.2" y2="185.8"/><polygon class="cls-7" points="447.4 188.4 457.2 185.8 447.4 183.1 447.4 188.4"/><line class="cls-6" x1="393.2" y1="243.8" x2="449" y2="243.8"/><polygon class="cls-7" points="447.1 246.4 457 243.8 447.1 241.2 447.1 246.4"/><line class="cls-6" x1="392.4" y1="304.6" x2="448.2" y2="304.6"/><polygon class="cls-7" points="447.4 307.3 457.2 304.6 447.4 302 447.4 307.3"/><line class="cls-6" x1="390.6" y1="366.2" x2="449.2" y2="366.2"/><polygon class="cls-7" points="447.4 368.9 457.2 366.2 447.4 363.5 447.4 368.9"/><line class="cls-6" x1="403.6" y1="366.2" x2="448.4" y2="403.8"/><polygon class="cls-7" points="446.9 405.7 456.2 410 450.3 401.6 446.9 405.7"/><line class="cls-6" x1="71.8" y1="83.6" x2="71.8" y2="183.2"/><polygon class="cls-7" points="69.2 181.4 71.8 191.2 74.4 181.4 69.2 181.4"/><line class="cls-6" x1="55" y1="226" x2="55" y2="330"/><polygon class="cls-7" points="52.4 328.3 55 338.1 57.6 328.3 52.4 328.3"/><g id="shape16-7"><rect class="cls-2" x="35" y="337.5" width="68.7" height="36.2"/><text class="cls-3" transform="translate(48.72 358.13)">VM/VMSS</text></g><g id="shape39-100"><rect class="cls-8" x="267" y="65.4" width="49.6" height="15.5"/><text class="cls-9" transform="translate(270.68 75.45)">グ<tspan class="cls-10" x="5.49" y="0">リ</tspan><tspan class="cls-11" x="10.01" y="0">ー</tspan><tspan class="cls-12" x="14.15" y="0">ン</tspan><tspan class="cls-13" x="19.05" y="0">フ</tspan><tspan class="cls-14" x="23.03" y="0">ィ</tspan><tspan class="cls-15" x="26.08" y="0">ー</tspan><tspan class="cls-16" x="30.78" y="0">ル</tspan><tspan class="cls-17" x="36.53" y="0">ド</tspan></text></g><g id="shape40-104"><rect class="cls-8" x="133.3" y="65.5" width="52.7" height="15.5"/><text class="cls-18" transform="translate(141.2 75.6)">ブ<tspan class="cls-19" x="5.33" y="0">ラ</tspan><tspan class="cls-20" x="9.94" y="0">ウ</tspan><tspan class="cls-21" x="14.89" y="0">ン</tspan><tspan class="cls-22" x="19.79" y="0">フ</tspan><tspan class="cls-14" x="23.77" y="0">ィ</tspan><tspan class="cls-15" x="26.82" y="0">ー</tspan><tspan class="cls-23" x="31.52" y="0">ル</tspan><tspan class="cls-17" x="37.27" y="0">ド</tspan></text></g><g id="shape41-108"><rect class="cls-8" x="19.2" y="101" width="52.7" height="15.5"/><text class="cls-24" transform="translate(18.62 111.06)">リ<tspan class="cls-25" x="4.18" y="0">フ</tspan><tspan class="cls-26" x="8.31" y="0">ト</tspan><tspan class="cls-27" x="12.25" y="0">ア</tspan><tspan class="cls-28" x="17.47" y="0">ン</tspan><tspan class="cls-29" x="22.13" y="0">ド</tspan><tspan class="cls-30" x="26.75" y="0">シ</tspan><tspan class="cls-25" x="32.19" y="0">フ</tspan><tspan class="cls-31" x="36.31" y="0">ト</tspan></text></g><g id="shape43-117"><rect class="cls-8" x="403.3" y="48.5" width="33.8" height="15.5"/><text class="cls-32" transform="translate(414.43 58.51)">は<tspan class="cls-33" x="6.52" y="0">い</tspan></text></g><g id="shape44-121"><rect class="cls-8" x="404.3" y="107.5" width="31.8" height="15.5"/><text class="cls-32" transform="translate(414.43 117.5)">は<tspan class="cls-33" x="6.52" y="0">い</tspan></text></g><g id="shape44-121-2" data-name="shape44-121"><rect class="cls-8" x="366.55" y="204.17" width="31.8" height="15.5"/><text class="cls-32" transform="translate(376.68 214.17)">は<tspan class="cls-33" x="6.52" y="0">い</tspan></text></g><g id="shape44-121-3" data-name="shape44-121"><rect class="cls-8" x="364.55" y="322.42" width="31.8" height="15.5"/><text class="cls-32" transform="translate(374.68 332.42)">は<tspan class="cls-33" x="6.52" y="0">い</tspan></text></g><g id="shape49-137"><rect class="cls-8" x="407.1" y="350.6" width="26.3" height="15.5"/><text class="cls-32" transform="translate(414.43 360.6)">は<tspan class="cls-33" x="6.52" y="0">い</tspan></text></g><g id="shape50-141"><rect class="cls-8" x="365" y="144.6" width="31.8" height="15.5"/><text class="cls-34" transform="translate(375.77 154.57)">い<tspan class="cls-35" x="6.32" y="0">い</tspan><tspan class="cls-36" x="12.32" y="0">え</tspan></text></g><g id="shape51-145"><rect class="cls-8" x="364.1" y="263.6" width="31.8" height="15.5"/><text class="cls-34" transform="translate(374.81 273.61)">い<tspan class="cls-35" x="6.32" y="0">い</tspan><tspan class="cls-36" x="12.32" y="0">え</tspan></text></g><g id="shape52-149"><rect class="cls-8" x="404.3" y="289.1" width="31.8" height="15.5"/><text class="cls-34" transform="translate(415.13 299.17)">い<tspan class="cls-35" x="6.32" y="0">い</tspan><tspan class="cls-36" x="12.32" y="0">え</tspan></text></g><g id="shape53-153"><rect class="cls-8" x="424.8" y="378.5" width="31.8" height="15.5"/><text class="cls-34" transform="translate(435.6 388.53)">い<tspan class="cls-35" x="6.32" y="0">い</tspan><tspan class="cls-36" x="12.32" y="0">え</tspan></text></g><path class="cls-37" d="M197,47.3h57c5.1,0,9.3,6.3,9.3,13.9v8.3c0,7.6-4.2,13.9-9.3,13.9H197c-5.1,0-9.3-6.3-9.3-13.9V61.2C187.7,53.5,191.9,47.3,197,47.3Z"/><g id="shape2-172"><path class="cls-37" d="M341.7,106.3h50.8a14,14,0,0,1,13.9,13.9v8.3a14,14,0,0,1-13.9,13.9H341.7a14,14,0,0,1-13.9-13.9v-8.3A13.81,13.81,0,0,1,341.7,106.3Z"/><text class="cls-38" transform="translate(341.24 126.62)">HPC <tspan class="cls-39" x="18.13" y="0">ワ</tspan><tspan class="cls-40" x="23.42" y="0">ー</tspan><tspan class="cls-41" x="27.46" y="0">ク</tspan><tspan class="cls-42" x="32.53" y="0">ロ</tspan><tspan class="cls-43" x="37.66" y="0">ー</tspan><tspan class="cls-44" x="41.61" y="0">ド</tspan><tspan x="46.5" y="0">?</tspan></text></g><g id="shape3-176"><path class="cls-37" d="M341.7,165.8h50.8a14,14,0,0,1,13.9,13.9V188a14,14,0,0,1-13.9,13.9H341.7A14,14,0,0,1,327.8,188v-8.3A13.75,13.75,0,0,1,341.7,165.8Z"/></g><g id="shape4-181"><path class="cls-37" d="M341.7,225.2h50.8a14,14,0,0,1,13.9,13.9v8.3a14,14,0,0,1-13.9,13.9H341.7a14,14,0,0,1-13.9-13.9v-8.3A13.81,13.81,0,0,1,341.7,225.2Z"/></g><g id="shape5-187"><path class="cls-37" d="M59.5,47.5h50.8a14,14,0,0,1,13.9,13.9v8.3a14,14,0,0,1-13.9,13.9H59.5A14,14,0,0,1,45.6,69.7V61.4A13.93,13.93,0,0,1,59.5,47.5Z"/></g><g id="shape6-192"><path class="cls-37" d="M341.7,46.6h50.8a14,14,0,0,1,13.9,13.9v8.3a14,14,0,0,1-13.9,13.9H341.7a14,14,0,0,1-13.9-13.9V60.5A13.87,13.87,0,0,1,341.7,46.6Z"/></g><g id="shape15-198"><path class="cls-37" d="M341.7,284.7h50.8a14,14,0,0,1,13.9,13.9v8.3a14,14,0,0,1-13.9,13.9H341.7a14,14,0,0,1-13.9-13.9v-8.3A13.75,13.75,0,0,1,341.7,284.7Z"/></g><g id="shape55-203"><rect class="cls-8" x="365" y="84.9" width="31.8" height="15.5"/><text class="cls-34" transform="translate(375.77 94.97)">い<tspan class="cls-35" x="6.32" y="0">い</tspan><tspan class="cls-36" x="12.32" y="0">え</tspan></text></g><g id="shape56-207"><rect class="cls-8" x="404.3" y="170.3" width="31.8" height="15.5"/><text class="cls-34" transform="translate(415.13 180.31)">い<tspan class="cls-35" x="6.32" y="0">い</tspan><tspan class="cls-36" x="12.32" y="0">え</tspan></text></g><g id="shape1002-211"><path class="cls-45" d="M225.6,47.2l-9.3-9.3h4.6V12.4h9.3V37.9h4.6Z"/></g><path class="cls-46" d="M213.1,0H238a14,14,0,0,1,13.9,13.9v2.8A14,14,0,0,1,238,30.6H213.1a14,14,0,0,1-13.9-13.9V13.9A13.87,13.87,0,0,1,213.1,0Z"/><text class="cls-47" transform="translate(213.9 17.63)">開始</text><g id="shape1013-217"><path class="cls-4" d="M18.2,355.6h0l3.9-2.2a.1.1,0,0,0,.1-.1c0-.1,0-.1-.1-.1L18.2,351H18l-3.9,2.2-.1.1c0,.1,0,.1.1.1l4.1,2.2Zm-.6,5.4h0l.1-4.6c0-.1,0-.1-.1-.1l-3.9-2.2h-.1l-.1.1v4.5c0,.1,0,.1.1.1l4,2.2Zm1.1,0h0l3.9-2.2a.1.1,0,0,0,.1-.1v-4.5c0-.1,0-.1-.1-.1h-.1l-3.9,2.2a.1.1,0,0,0-.1.1l.2,4.6Zm-1.6-13-2.4-1.4h-.1L12.2,348H8a1.22,1.22,0,0,0-1.2,1.2V358H5.1V345.3H23.8V348ZM21,364.1h6.4a1.3,1.3,0,0,0,1.3-1.2V349.3a1.3,1.3,0,0,0-1.3-1.2h-2V345a1.3,1.3,0,0,0-1.3-1.2H21.9v-3.1a1.3,1.3,0,0,0-1.3-1.2H1.2A1.22,1.22,0,0,0,0,340.7v13.6a1.16,1.16,0,0,0,1.2,1.2H3.4v3.1a1.16,1.16,0,0,0,1.2,1.2H6.7v3.1a1.16,1.16,0,0,0,1.2,1.2H15c.7,2.5-.2,2.9-4.5,2.9v1.4H24.9v-1.3C20.8,367,20.3,366.6,21,364.1Zm6.3-1.7H8.6V349.7H27.3ZM13.6,343.7l-2.3-1.4h-.1l-2.4,1.4H4.6a1.16,1.16,0,0,0-1.2,1.2v8.8H1.6V341H20.3v2.7Z"/></g><g id="shape1014-219"><path class="cls-4" d="M548.3,66.6h0l3.9-2.2.1-.1c0-.1,0-.1-.1-.1L548.3,62h-.1l-3.9,2.2-.1.1c0,.1,0,.1.1.1l4,2.2Zm-.6,5.4h0c.1,0,.1-.1,0,0l.1-4.6c0-.1,0-.1-.1-.1l-3.9-2.2h-.2l-.1.1v4.5c0,.1,0,.1.1.1l4.1,2.2Zm1.2,0h0l3.9-2.2a.1.1,0,0,0,.1-.1V65.2c0-.1,0-.1-.1-.1h-.2l-3.9,2.2-.1.1v4.5c.1,0,.1.1.3.1Zm-1.7-13.1-2.4-1.4h-.1l-2.3,1.4h-4.2a1.22,1.22,0,0,0-1.2,1.2v8.8h-1.6V56.2h18.5v2.7Zm4,16.1h6.4a1.3,1.3,0,0,0,1.3-1.2V60.3a1.3,1.3,0,0,0-1.3-1.2h-2V55.9a1.3,1.3,0,0,0-1.3-1.2h-2.2V51.6a1.3,1.3,0,0,0-1.3-1.2H531.3a1.22,1.22,0,0,0-1.2,1.2V65.2a1.16,1.16,0,0,0,1.2,1.2h2.2v3.1a1.16,1.16,0,0,0,1.2,1.2h2.2v3.1a1.16,1.16,0,0,0,1.2,1.2h7.1c.7,2.5-.2,2.9-4.5,2.9v1.3h14.4V77.9c-4.2,0-4.7-.4-3.9-2.9Zm6.2-1.7H538.7V60.6h18.7ZM543.8,54.6l-2.3-1.4h-.1l-2.3,1.4h-4.2a1.16,1.16,0,0,0-1.2,1.2v8.8h-1.8V51.9h18.7v2.6l-6.8.1Z"/></g><g id="group1015-221"><g id="shape1016-222"><path class="cls-48" d="M547.1,125.3a1.28,1.28,0,0,0-1-1H534.3c-.4,0-.7.6-.7,1v11.8a.73.73,0,0,0,.6.7h12.1c.4,0,.9-.4.9-.7l-.1-11.8Z"/></g><g id="shape1017-224"><path class="cls-48" d="M555.5,127.8c0-.2-.2-.3-.4-.4h-6c-.2,0-.3.2-.4.4v6c0,.2.2.3.4.4h6c.2,0,.3-.2.4-.4Z"/></g><g id="shape1018-226"><path class="cls-48" d="M553.2,123.3s.6-4.6-3.6-5.5h-.9a3.09,3.09,0,0,0-.8.2v1.9a1.17,1.17,0,0,1,.8-.2,2.2,2.2,0,0,1,.8.1c1,.4,2,1,1.8,3.6h-1.8l2.9,3.6,2.8-3.6-2-.1Z"/></g><g id="shape1019-228"><path class="cls-48" d="M556.9,129.2h-.6v5.9h-5.9v.5c0,.2.2.3.4.4h6c.2,0,.3-.2.4-.4v-6c0-.2-.1-.3-.3-.4Z"/></g><g id="shape1020-230"><path class="cls-48" d="M540,130.9h-.5v5.9h-5.9v.5c0,.2.2.3.4.4h6c.2,0,.3-.2.4-.4v-6A.43.43,0,0,0,540,130.9Z"/></g><g id="group1021-232"><g id="group1022-233"><g id="shape1023-234"><rect class="cls-49" x="536" y="117.5" width="8.5" height="1.7"/></g><g id="shape1024-236"><rect class="cls-49" x="536" y="119.9" width="8.5" height="1.7"/></g><g id="shape1025-238"><rect class="cls-49" x="536" y="122.5" width="8.5" height="1.7"/></g></g><g id="group1026-240"><g id="shape1027-241"><path class="cls-49" d="M547.1,125.3a1.28,1.28,0,0,0-1-1H534.3c-.4,0-.7.6-.7,1v11.8a.73.73,0,0,0,.6.7h12.1c.4,0,.9-.4.9-.7l-.1-11.8Zm-1.8,10.8H535.2v-8.5h10.1Z"/></g><g id="shape1028-243"><path class="cls-49" d="M555.5,127.9c0-.2-.2-.3-.4-.4h-6c-.2,0-.3.2-.4.4v6c0,.2.2.3.4.4h6a.43.43,0,0,0,.4-.4Zm-.9,5.6h-5.1v-4.2h5.1Z"/></g><g id="shape1029-245"><rect class="cls-49" x="550.4" y="130.1" width="3.4" height="0.8"/></g><g id="shape1030-247"><path class="cls-49" d="M553.2,123.3s.6-4.6-3.6-5.5h-.9a3.09,3.09,0,0,0-.8.2v1.9a1.17,1.17,0,0,1,.8-.2,2.2,2.2,0,0,1,.8.1c1,.4,2,1,1.8,3.6h-1.8l2.9,3.6,2.8-3.6Z"/></g><g id="shape1031-249"><path class="cls-49" d="M556.9,129.3h-.6v5.9h-5.9v.5c0,.2.2.3.4.4h6c.2,0,.3-.2.4-.4v-6c0-.2-.1-.3-.3-.4Z"/></g><g id="shape1032-251"><path class="cls-49" d="M558.5,130.9H558v5.9h-5.9v.5c0,.2.2.3.4.4h6c.2,0,.3-.2.4-.4v-6c0-.2-.2-.3-.4-.4Z"/></g></g></g></g><g id="group1033-254"><g id="group1034-255"><g id="shape1036-257"><path class="cls-5" d="M555,182.3v-9.9H534.1v21h21l-.1-11.1Z"/></g></g><g id="group1037-259"><g id="shape1038-260"><path class="cls-4" d="M542.4,192h-7v-7h1.4a3.4,3.4,0,0,1-.2-1.4v-.1h-2.7v9.8h9.9v-5.8h-1.5Z"/></g><g id="shape1039-262"><path class="cls-4" d="M552.3,185h1.3v7h-7v-4.4h-1.5v5.9H555v-9.8h-3.1a1.84,1.84,0,0,1,.4,1.3Z"/></g><g id="shape1040-264"><path class="cls-4" d="M535.4,180.9v-7h7v4a6.89,6.89,0,0,1,1.5-.7v-4.8H534v9.9h2.9a6,6,0,0,1,.9-1.5h-2.4Z"/></g><g id="shape1041-266"><path class="cls-4" d="M546.5,177.2v-3.3h7v7h-3a3.4,3.4,0,0,1,.2,1.4v.1H555v-9.9H545v4.6h.4A2,2,0,0,1,546.5,177.2Z"/></g></g><g id="shape1042-268"><path class="cls-4" d="M551.1,184.9a1.54,1.54,0,0,0-1.5-1.5h-.2a5,5,0,0,0,.2-1.2,4.15,4.15,0,0,0-8.1-1.3,2.92,2.92,0,0,0-.9-.2,2.8,2.8,0,0,0-2.8,2.8v.1a2.88,2.88,0,0,0,2.8,2.9h9.2A1.46,1.46,0,0,0,551.1,184.9Z"/></g></g><path class="cls-4" d="M546.8,232h-7.5l-4,11.4h4.9l-3.9,11.2,10.6-15h-5.2Zm-18,11.4,1.2,1.3h0l5.3,5.1a.57.57,0,1,0,.8-.8l-5.6-5.6a.61.61,0,0,1,0-.8l5.4-5.4a.61.61,0,0,0,.1-.8l-.1-.1a.61.61,0,0,0-.8,0l-5.3,5.1-1.2,1.2A.65.65,0,0,0,528.8,243.4Zm24.1,0a.61.61,0,0,0,0-.8l-1.2-1.2-5.3-5.1a.61.61,0,0,0-.9.8l.1.1,5.6,5.4a.61.61,0,0,1,0,.8l-5.6,5.6a.57.57,0,0,0,.8.8l5.3-5.2h0Z"/><g id="shape1048-276"><path class="cls-37" d="M41.4,190.2H92.2a14,14,0,0,1,13.9,13.9v8.3a14,14,0,0,1-13.9,13.9H41.4a14,14,0,0,1-13.9-13.9v-8.3A14,14,0,0,1,41.4,190.2Z"/></g><g id="shape1051-291"><rect class="cls-8" x="87.8" y="228.3" width="31.8" height="15.5"/><text class="cls-32" transform="translate(97.92 238.29)">は<tspan class="cls-33" x="6.52" y="0">い</tspan></text></g><g id="shape1052-295"><rect class="cls-8" x="26.2" y="228.5" width="31.8" height="15.5"/><text class="cls-34" transform="translate(31.83 238.54)">い<tspan class="cls-50" x="6.32" y="0">い</tspan><tspan class="cls-51" x="12.32" y="0">え</tspan></text></g><g id="shape1053-299"><path class="cls-37" d="M340.3,344.9h50.8A14,14,0,0,1,405,358.8v28.5a14,14,0,0,1-13.9,13.9H340.3a14,14,0,0,1-13.9-13.9V358.8A13.87,13.87,0,0,1,340.3,344.9Z"/></g><line class="cls-6" x1="368.9" y1="142.3" x2="368.9" y2="157.6"/><polygon class="cls-7" points="366.2 155.8 368.9 165.7 371.6 155.8 366.2 155.8"/><line class="cls-6" x1="368.9" y1="201.8" x2="368.9" y2="217.1"/><polygon class="cls-7" points="366.2 215.4 368.9 225.2 371.6 215.4 366.2 215.4"/><line class="cls-6" x1="368.9" y1="261.7" x2="368.9" y2="277"/><polygon class="cls-7" points="366.2 275.2 368.9 285.1 371.6 275.2 366.2 275.2"/><line class="cls-6" x1="368.9" y1="320.7" x2="368.9" y2="336"/><polygon class="cls-7" points="366.2 334.3 368.9 344.2 371.6 334.3 366.2 334.3"/><g id="shape44-121-2-2" data-name="shape44-121-2"><rect class="cls-8" x="404.3" y="228.3" width="31.8" height="15.5"/><text class="cls-32" transform="translate(414.43 238.3)">は<tspan class="cls-33" x="6.52" y="0">い</tspan></text></g><path class="cls-52" d="M556.3,316.3h-27v-27h27ZM538.1,312c.1,0,.2.1.3.1h8.7c.5,0,.6-.3.6-.7v-8.7c0-.9-.1-1-1-1h-8.3c-.5,0-.6.2-.6.6v9.2A2.19,2.19,0,0,1,538.1,312Zm10.2-6.6h.4A3.82,3.82,0,0,0,552,302a3.91,3.91,0,0,0-2.4-4c-.5-.2-.5-.4-.6-.8a4.42,4.42,0,0,0-5.6-3.4,5.33,5.33,0,0,0-2.3,1.6,3.62,3.62,0,0,0-4.1-.1,3.37,3.37,0,0,0-1.5,3.7c-1.8,1.2-2.3,2.7-1.6,4.3a3.11,3.11,0,0,0,3.4,1.9v-3.1c0-.9.2-1.2,1.2-1.2h3.6V299a4.91,4.91,0,0,1-1.1-.1c.7-.9,1.2-1.7,1.9-2.6.6.9,1.2,1.7,1.9,2.6-.5,0-.7.1-1.1.1v1.9h3.6c.8,0,1.1.2,1.1,1.1C548.3,303.2,548.3,304.3,548.3,305.4Z"/><path class="cls-53" d="M548.3,305.4v-3.2c0-.8-.2-1.1-1.1-1.1h-3.6v-1.9c.3,0,.6-.1,1.1-.1-.6-.8-1.2-1.7-1.9-2.6-.6.8-1.2,1.7-1.9,2.6.4,0,.7.1,1.1.1v1.9h-3.6c-.9,0-1.2.2-1.2,1.2v3.1a3,3,0,0,1-3.4-1.9c-.7-1.7-.2-3.2,1.6-4.3a3.52,3.52,0,0,1,1.5-3.7,3.62,3.62,0,0,1,4.1.1,5.33,5.33,0,0,1,2.3-1.6,4.42,4.42,0,0,1,5.6,3.4.87.87,0,0,0,.6.8,3.86,3.86,0,0,1-.9,7.4C548.5,305.4,548.5,305.4,548.3,305.4Z"/><path class="cls-54" d="M538.1,312a1.69,1.69,0,0,1-.2-.5v-9.2c0-.5.2-.6.6-.6h8.3c.9,0,1,.1,1,1v3.1a4.05,4.05,0,0,1-.5-.9c-.1-.4-.1-.8-.2-1.2s-.2-.6-.7-.5c-.2-.1-.3-.2-.5-.2h-6.8a.1.1,0,0,1-.1.1v7.8c-.2.2-.2.3-.4.5A3.81,3.81,0,0,0,538.1,312Z"/><path class="cls-55" d="M546.5,303c.4-.1.6.2.7.5a5,5,0,0,0,.2,1.2,4.05,4.05,0,0,0,.5.9v5.6c0,.4-.1.7-.6.7h-8.7c-.1,0-.2-.1-.3-.1a2.41,2.41,0,0,0,.6-.8c.2-.2.2-.3.4-.5a.9.9,0,0,0,.5.1h6.4a.6.6,0,0,0,.4-.1v-.8C546.5,307.8,546.5,305.4,546.5,303Z"/><path class="cls-56" d="M546.5,303v7.8c-.2,0-.3.1-.4.1h-6.4c-.2,0-.3-.1-.5-.1V303a.1.1,0,0,1,.1-.1h6.8C546.2,302.8,546.3,303,546.5,303Zm-4.4,7.2h1.5v-6.6h-1.5Zm-.7-6.6h-1.5v6.6h.8c.5.1.6-.2.6-.7v-4.7A4.87,4.87,0,0,0,541.4,303.6Zm2.8,0V309c0,1.3,0,1.3,1.3,1.3a.31.31,0,0,0,.2-.1v-6.6Z"/><path class="cls-57" d="M542.1,310.2v-6.6h1.5v6.6Z"/><path class="cls-58" d="M541.4,303.6v5.9c0,.5-.1.8-.6.7H540v-6.6Z"/><path class="cls-59" d="M544.2,303.6h1.5v6.6c-.1,0-.1.1-.2.1-1.3.1-1.3.1-1.3-1.3v-5.4Z"/><line class="cls-6" x1="263.9" y1="65.3" x2="319.7" y2="65.3"/><polygon class="cls-7" points="317.9 68 327.7 65.3 317.9 62.7 317.9 68"/><line class="cls-6" x1="187.6" y1="65.8" x2="131.8" y2="65.8"/><polygon class="cls-7" points="133.6 62.7 123.8 65.4 133.6 68 133.6 62.7"/><line class="cls-60" x1="106.1" y1="124.8" x2="319.7" y2="124.8"/><polygon class="cls-7" points="317.9 127.5 327.7 124.8 317.9 122.2 317.9 127.5"/><line class="cls-6" x1="106.1" y1="83.5" x2="106.1" y2="124.3"/><line class="cls-60" x1="84.9" y1="305.1" x2="317.7" y2="305.1"/><polygon class="cls-7" points="317.7 307.7 327.5 305 317.7 302.4 317.7 307.7"/><line class="cls-6" x1="84.9" y1="226" x2="84.9" y2="305.1"/><text class="cls-61" transform="translate(34.73 211.08)"><tspan class="cls-62">コ</tspan><tspan class="cls-63" x="4.56" y="0">ン</tspan><tspan class="cls-64" x="9.81" y="0">テ</tspan><tspan class="cls-65" x="15.17" y="0">ナ</tspan><tspan class="cls-66" x="20.59" y="0">ー</tspan><tspan class="cls-67" x="25.33" y="0">化</tspan><tspan class="cls-68" x="32.85" y="0">で</tspan><tspan class="cls-69" x="38.58" y="0">き</tspan><tspan class="cls-70" x="43.14" y="0">ま</tspan><tspan class="cls-71" x="48.35" y="0">す</tspan><tspan class="cls-72" x="54.52" y="0">か</tspan><tspan class="cls-73" x="60.84" y="0">?</tspan></text><text class="cls-61" transform="translate(50.41 63.45)"><tspan class="cls-74">リ<tspan class="cls-75" x="4.18" y="0">フ</tspan><tspan class="cls-76" x="8.31" y="0">ト</tspan><tspan class="cls-77" x="12.25" y="0">ア</tspan><tspan class="cls-28" x="17.47" y="0">ン</tspan><tspan class="cls-78" x="22.13" y="0">ド</tspan><tspan class="cls-79" x="26.75" y="0">シ</tspan><tspan class="cls-75" x="32.19" y="0">フ</tspan><tspan class="cls-80" x="36.31" y="0">ト</tspan><tspan class="cls-81" x="40.14" y="0">ま</tspan><tspan class="cls-82" x="45.3" y="0">た</tspan><tspan class="cls-83" x="51.18" y="0">は</tspan><tspan class="cls-84" x="56.97" y="0">ク</tspan><tspan class="cls-85" x="61.69" y="0">ラ</tspan></tspan><tspan class="cls-86" x="14.97" y="9.27">ウ</tspan><tspan class="cls-87" x="19.72" y="9.27">ド</tspan><tspan x="24.61" y="9.27">最適化</tspan><tspan class="cls-73" x="47.79" y="9.27">?</tspan></text><text class="cls-61" transform="translate(192.43 63.07) scale(0.96 1)"><tspan class="cls-88">グ<tspan class="cls-89" x="5.49" y="0">リ</tspan><tspan class="cls-90" x="10.01" y="0">ー</tspan><tspan class="cls-91" x="14.15" y="0">ン</tspan><tspan class="cls-92" x="19.05" y="0">フ</tspan><tspan class="cls-93" x="23.03" y="0">ィ</tspan><tspan class="cls-94" x="26.08" y="0">ー</tspan><tspan class="cls-95" x="30.78" y="0">ル</tspan><tspan class="cls-96" x="36.53" y="0">ド</tspan><tspan class="cls-97" x="40.87" y="0">ま</tspan><tspan class="cls-98" x="46.03" y="0">た</tspan><tspan class="cls-99" x="51.91" y="0">は</tspan><tspan class="cls-100" x="58.1" y="0">ブ</tspan><tspan class="cls-101" x="63.43" y="0">ラ</tspan></tspan><tspan class="cls-102" x="16.02" y="9.27">ウ</tspan><tspan class="cls-91" x="20.97" y="9.27">ン</tspan><tspan class="cls-92" x="25.87" y="9.27">フ</tspan><tspan class="cls-103" x="29.85" y="9.27">ィ</tspan><tspan class="cls-104" x="32.89" y="9.27">ー</tspan><tspan class="cls-95" x="37.6" y="9.27">ル</tspan><tspan class="cls-105" x="43.35" y="9.27">ド</tspan><tspan class="cls-73" x="48.24" y="9.27">?</tspan></text><text class="cls-61" transform="translate(331.94 61.85)"><tspan class="cls-50">フ</tspan><tspan class="cls-106" x="5" y="0">ル</tspan><tspan class="cls-73" x="11.54" y="0"> </tspan><tspan class="cls-107" x="13.22" y="0">コ</tspan><tspan class="cls-108" x="17.78" y="0">ン</tspan><tspan class="cls-109" x="22.32" y="0">ト</tspan><tspan class="cls-110" x="26.45" y="0">ロ</tspan><tspan class="cls-15" x="31.58" y="0">ー</tspan><tspan class="cls-111" x="36.28" y="0">ル</tspan><tspan class="cls-112" x="42.27" y="0">ま</tspan><tspan class="cls-113" x="47.43" y="0">た</tspan><tspan class="cls-114" x="53.31" y="0">は</tspan><tspan class="cls-115" x="59.62" y="0">ポ</tspan><tspan class="cls-116" x="65.7" y="0">ー</tspan><tspan class="cls-21" x="1.92" y="9.27">タ</tspan><tspan class="cls-117" x="6.85" y="9.27">ビ</tspan><tspan class="cls-118" x="11.5" y="9.27">リ</tspan><tspan class="cls-119" x="16.03" y="9.27">テ</tspan><tspan class="cls-120" x="20.58" y="9.27">ィ</tspan><tspan class="cls-121" x="23.81" y="9.27">が</tspan><tspan x="30.28" y="9.27">必</tspan><tspan class="cls-67" x="38" y="9.27">要</tspan><tspan class="cls-122" x="45.52" y="9.27">で</tspan><tspan class="cls-71" x="51.67" y="9.27">す</tspan><tspan class="cls-72" x="57.84" y="9.27">か</tspan><tspan class="cls-73" x="64.15" y="9.27">?</tspan></text><text class="cls-61" transform="translate(344.1 181.82)"><tspan class="cls-123">マ<tspan class="cls-124" x="5.14" y="0">イ</tspan><tspan class="cls-125" x="9.17" y="0">ク</tspan><tspan class="cls-126" x="14.24" y="0">ロサ</tspan><tspan class="cls-127" x="25.53" y="0">ー</tspan><tspan class="cls-128" x="29.8" y="0">ビ</tspan><tspan class="cls-129" x="34.81" y="0">ス</tspan><tspan class="cls-130" x="40.44" y="0">の</tspan></tspan><tspan class="cls-131" x="3.82" y="9.27">ア</tspan><tspan class="cls-132" x="9.43" y="9.27">ーキ</tspan><tspan class="cls-133" x="19.03" y="9.27">テ</tspan><tspan class="cls-134" x="23.93" y="9.27">ク</tspan><tspan class="cls-135" x="29.04" y="9.27">チ</tspan><tspan class="cls-125" x="33.78" y="9.27">ャ</tspan><tspan class="cls-73" x="38.34" y="9.27">?</tspan></text><text class="cls-61" transform="translate(335.22 300.24)">本格<tspan class="cls-136" x="15.45" y="0">的</tspan><tspan class="cls-137" x="22.94" y="0">な</tspan><tspan class="cls-131" x="29.05" y="0">オ</tspan><tspan class="cls-138" x="34.58" y="0">ー</tspan><tspan class="cls-70" x="39.14" y="0">ケ</tspan><tspan class="cls-139" x="44.43" y="0">ス</tspan><tspan class="cls-140" x="49.17" y="0">ト</tspan><tspan class="cls-141" x="53.23" y="0">レ</tspan><tspan class="cls-116" x="58.09" y="0">ー</tspan><tspan class="cls-142" x="2.04" y="9.27">シ</tspan><tspan class="cls-76" x="7.08" y="9.27">ョ</tspan><tspan class="cls-143" x="10.46" y="9.27">ン</tspan><tspan class="cls-72" x="15.88" y="9.27">が</tspan><tspan x="22.34" y="9.27">必</tspan><tspan class="cls-67" x="30.07" y="9.27">要</tspan><tspan class="cls-144" x="37.59" y="9.27">で</tspan><tspan class="cls-145" x="43.73" y="9.27">す</tspan><tspan class="cls-121" x="49.91" y="9.27">か</tspan><tspan class="cls-73" x="56.22" y="9.27">?</tspan></text><text class="cls-61" transform="translate(336.57 237.26)"><tspan class="cls-144">プ</tspan><tspan class="cls-146" x="5.84" y="0">ロ</tspan><tspan class="cls-147" x="11.17" y="0">セ</tspan><tspan class="cls-148" x="16.74" y="0">ス</tspan><tspan class="cls-121" x="22.36" y="0">が</tspan><tspan x="28.83" y="0">短期</tspan><tspan class="cls-149" x="44.28" y="0">間</tspan><tspan class="cls-150" x="51.98" y="0">の</tspan><tspan class="cls-151" x="57.64" y="0">イ</tspan><tspan class="cls-152" x="1.74" y="9.27">ベ</tspan><tspan class="cls-153" x="7.44" y="9.27">ン</tspan><tspan class="cls-31" x="11.97" y="9.27">ト</tspan><tspan class="cls-73" x="16.35" y="9.27"> </tspan><tspan class="cls-154" x="17.7" y="9.27">ド</tspan><tspan class="cls-86" x="21.85" y="9.27">リ</tspan><tspan class="cls-155" x="26.27" y="9.27">ブ</tspan><tspan class="cls-156" x="31.6" y="9.27">ン</tspan><tspan class="cls-149" x="37.04" y="9.27">型</tspan><tspan class="cls-157" x="44.75" y="9.27">の</tspan><tspan class="cls-68" x="50.7" y="9.27">ワ</tspan><tspan class="cls-116" x="55.98" y="9.27">ー</tspan><tspan class="cls-125" x="19.33" y="18.54">ク</tspan><tspan class="cls-110" x="24.4" y="18.54">ロ</tspan><tspan class="cls-158" x="29.53" y="18.54">ー</tspan><tspan class="cls-17" x="33.48" y="18.54">ド</tspan><tspan class="cls-73" x="38.37" y="18.54">?</tspan></text><text class="cls-159" transform="translate(331.96 362.75)">.NE<tspan class="cls-160" x="12.88" y="0">T</tspan><tspan x="17.46" y="0"> </tspan><tspan class="cls-161" x="19.61" y="0">統</tspan><tspan class="cls-44" x="27.33" y="0">合</tspan><tspan class="cls-162" x="34.5" y="0">ま</tspan><tspan class="cls-163" x="39.66" y="0">た</tspan><tspan class="cls-164" x="45.55" y="0">は</tspan><tspan class="cls-161" x="52.03" y="0">完全</tspan><tspan class="cls-161"><tspan class="cls-156" x="12.41" y="9.27">に</tspan><tspan class="cls-165" x="18.12" y="9.27">サ</tspan><tspan class="cls-115" x="24.16" y="9.27">ポ</tspan><tspan class="cls-166" x="30.23" y="9.27">ー</tspan><tspan class="cls-167" x="34.06" y="9.27">ト</tspan><tspan class="cls-168" x="37.92" y="9.27">さ</tspan><tspan class="cls-121" x="42.28" y="9.27">れ</tspan><tspan class="cls-169" x="49.14" y="9.27">た</tspan><tspan class="cls-73" x="55.05" y="9.27"> </tspan></tspan><tspan x="-1.34" y="18.54">Microsoft </tspan><tspan class="cls-170" x="31.94" y="18.54">テ</tspan><tspan class="cls-171" x="36.85" y="18.54">ク</tspan><tspan class="cls-172" x="41.52" y="18.54">ノ</tspan><tspan class="cls-173" x="45.48" y="18.54">ロ</tspan><tspan class="cls-174" x="50.56" y="18.54">ジ</tspan><tspan x="56.63" y="18.54"> </tspan><tspan class="cls-175" x="58.39" y="18.54">ス</tspan><tspan class="cls-176" x="63.43" y="18.54">タ</tspan><tspan class="cls-161"><tspan class="cls-177" x="6.43" y="27.81">ッ</tspan><tspan class="cls-178" x="10.22" y="27.81">ク</tspan><tspan class="cls-121" x="15.51" y="27.81">が</tspan><tspan x="21.98" y="27.81">必</tspan><tspan class="cls-67" x="29.71" y="27.81">要</tspan><tspan class="cls-122" x="37.22" y="27.81">で</tspan><tspan class="cls-71" x="43.37" y="27.81">す</tspan><tspan class="cls-72" x="49.54" y="27.81">か</tspan><tspan class="cls-73" x="55.85" y="27.81">?</tspan></tspan></text><text class="cls-179" transform="translate(113.33 113.01)"><tspan class="cls-84">ク</tspan><tspan class="cls-19" x="4.73" y="0">ラ</tspan><tspan class="cls-180" x="9.34" y="0">ウ</tspan><tspan class="cls-181" x="14.09" y="0">ド</tspan><tspan x="18.99" y="0">最適化</tspan></text><text class="cls-182" transform="translate(464.89 181.48)">App Service / <tspan x="18.19" y="10.2">ASE</tspan></text><text class="cls-182" transform="translate(471.98 300.06)">Container <tspan x="0.23" y="10.2">Instances</tspan></text><text class="cls-182" transform="translate(457.73 421.38)">Azure Container <tspan x="4.71" y="10.2">Service (AKS)</tspan></text></svg>