<?xml version="1.0" encoding="utf-8"?>
<!-- Generator: Adobe Illustrator 21.0.0, SVG Export Plug-In . SVG Version: 6.00 Build 0)  -->
<svg version="1.1" xmlns="http://www.w3.org/2000/svg" xmlns:xlink="http://www.w3.org/1999/xlink" x="0px" y="0px"
	 viewBox="0 0 548.8 235.5" style="enable-background:new 0 0 548.8 235.5;" xml:space="preserve">
<style type="text/css">
	.st0{fill:#865FC5;}
	.st1{fill:#505050;}
	.st2{fill:#FFFFFF;}
	.st3{fill:#59B4D9;}
	.st4{fill:#68217A;}
	.st5{fill:#7A7A7A;}
	.st6{opacity:0.65;fill:#FFFFFF;enable-background:new    ;}
	.st7{opacity:0.15;fill:#FFFFFF;enable-background:new    ;}
	.st8{display:none;}
	.st9{display:inline;}
	.st10{fill:#556A8A;}
	.st11{opacity:0.2;fill:#FFFFFF;enable-background:new    ;}
	.st12{fill:none;stroke:#000000;stroke-miterlimit:10;}
	.st13{fill:#0078D4;}
	.st14{fill:none;}
	.st15{fill:#1E1E1E;}
	.st16{font-family:'SegoeUI';}
	.st17{font-size:12px;}
</style>
<symbol  id="a" viewBox="-20 -20 40 40">
	<path class="st0" d="M10.2,20L-6.1,3.8l-9.8,7.4L-20,9.9V-9.9l4.1-1.4l9.8,7.4L10.2-20l9.8,4.2v31.7L10.2,20z M-15.9-5.9V5.9l6-5.9
		L-15.9-5.9z M10.2-8.5L-1,0l11.2,8.5C10.2,8.5,10.2-8.5,10.2-8.5z"/>
</symbol>
<symbol  id="a_2" viewBox="-20 -20 40 40">
	<path class="st0" d="M10.2,20L-6.1,3.8l-9.8,7.4L-20,9.9V-9.9l4.1-1.4l9.8,7.4L10.2-20l9.8,4.2v31.7L10.2,20z M-15.9-5.9V5.9l6-5.9
		L-15.9-5.9z M10.2-8.5L-1,0l11.2,8.5V-8.5z"/>
</symbol>
<symbol  id="b" viewBox="-10 -10 20 20">
	<circle class="st1" cx="0" cy="0" r="10"/>
	<path class="st2" d="M2.9-1.7c0-0.4-0.1-0.8-0.2-1.2S2.4-3.5,2.1-3.8S1.6-4.2,1.2-4.4S0.5-4.6,0.1-4.6c-0.4,0-0.8,0.1-1.2,0.3
		s-0.7,0.4-0.9,0.7s-0.5,0.7-0.6,1.2s-0.2,1-0.2,1.7c0,0.8,0.1,1.5,0.3,2.1S-2,2.5-1.7,2.9S-1,3.6-0.6,3.8C-0.1,4,0.3,4.1,0.9,4.1
		c0.3,0,0.6,0,0.9-0.1S2.2,4,2.3,3.9V2.7C2.1,2.8,1.9,2.8,1.7,2.9S1.2,3,0.9,3C0.6,3,0.3,2.9,0,2.8s-0.5-0.3-0.7-0.6s-0.4-0.6-0.5-1
		S-1.3,0.5-1.3,0h0c0.2,0.3,0.4,0.5,0.7,0.7s0.7,0.2,1.1,0.2c0.4,0,0.7-0.1,1-0.2S2,0.4,2.2,0.2s0.4-0.5,0.5-0.8S2.9-1.3,2.9-1.7z
		 M1.5-1.8c0,0.2,0,0.5-0.1,0.7S1.3-0.8,1.2-0.7S0.9-0.4,0.7-0.3S0.4-0.2,0.1-0.2s-0.4,0-0.6-0.1s-0.3-0.2-0.4-0.3S-1.1-1-1.2-1.2
		s-0.1-0.4-0.1-0.5c0-0.2,0-0.4,0.1-0.6S-1.1-2.7-1-2.9s0.3-0.3,0.4-0.4s0.4-0.2,0.6-0.2c0.2,0,0.4,0,0.6,0.1S1-3.1,1.2-3
		s0.2,0.3,0.3,0.5S1.5-2.1,1.5-1.8z"/>
</symbol>
<symbol  id="b_2" viewBox="-10 -10 20 20">
	<circle class="st1" cx="0" cy="0" r="10"/>
	<path class="st2" d="M2.9-1.7c0-0.4-0.1-0.8-0.2-1.2S2.4-3.5,2.1-3.8S1.6-4.2,1.2-4.4S0.5-4.6,0.1-4.6s-0.8,0.1-1.2,0.3
		S-1.8-3.9-2-3.6s-0.5,0.7-0.6,1.2s-0.2,1-0.2,1.7c0,0.8,0.1,1.5,0.3,2.1S-2,2.5-1.7,2.9S-1,3.6-0.6,3.8C-0.1,4,0.3,4.1,0.9,4.1
		c0.3,0,0.6,0,0.9-0.1s0.4,0,0.5-0.1V2.7C2.1,2.8,1.9,2.8,1.7,2.9S1.2,3,0.9,3S0.3,2.9,0,2.8s-0.5-0.3-0.7-0.6s-0.4-0.6-0.5-1
		S-1.3,0.5-1.3,0l0,0c0.2,0.3,0.4,0.5,0.7,0.7s0.7,0.2,1.1,0.2s0.7-0.1,1-0.2S2,0.4,2.2,0.2s0.4-0.5,0.5-0.8S2.9-1.3,2.9-1.7z
		 M1.5-1.8c0,0.2,0,0.5-0.1,0.7S1.3-0.8,1.2-0.7S0.9-0.4,0.7-0.3S0.4-0.2,0.1-0.2s-0.4,0-0.6-0.1s-0.3-0.2-0.4-0.3S-1.1-1-1.2-1.2
		s-0.1-0.4-0.1-0.5c0-0.2,0-0.4,0.1-0.6S-1.1-2.7-1-2.9s0.3-0.3,0.4-0.4S-0.2-3.5,0-3.5s0.4,0,0.6,0.1S1-3.1,1.2-3s0.2,0.3,0.3,0.5
		S1.5-2.1,1.5-1.8z"/>
</symbol>
<symbol  id="c" viewBox="-10 -10 20 20">
	<circle class="st1" cx="0" cy="0" r="10"/>
	<path class="st2" d="M2.8,3.3C2.5,2.7,2.1,2,1.8,1.4S1.2,0.1,1-0.5S0.5-1.8,0.3-2.4S0-3.8-0.1-4.4h-1.4c0.1,0.6,0.2,1.2,0.4,1.8
		s0.4,1.2,0.6,1.8S0,0.4,0.3,1s0.6,1.2,0.9,1.8h-4V4h5.6C2.8,4,2.8,3.3,2.8,3.3z"/>
</symbol>
<symbol  id="c_2" viewBox="-10 -10 20 20">
	<circle class="st1" cx="0" cy="0" r="10"/>
	<path class="st2" d="M2.8,3.3C2.5,2.7,2.1,2,1.8,1.4S1.2,0.1,1-0.5S0.5-1.8,0.3-2.4S0-3.8-0.1-4.4h-1.4c0.1,0.6,0.2,1.2,0.4,1.8
		s0.4,1.2,0.6,1.8S0,0.4,0.3,1s0.6,1.2,0.9,1.8h-4V4h5.6V3.3z"/>
</symbol>
<symbol  id="d" viewBox="-10 -10 20 20">
	<circle class="st1" cx="0" cy="0" r="10"/>
	<path class="st2" d="M1.2,4.2v-8.6h-1.4v6.9C-0.4,2.3-0.7,2.2-1,2s-0.6-0.2-1-0.3v1.2C-1.7,2.9-1.5,3-1.3,3.1s0.4,0.2,0.6,0.3
		S-0.2,3.6,0,3.7S0.4,4,0.6,4.2H1.2z"/>
</symbol>
<symbol  id="d_2" viewBox="-10 -10 20 20">
	<circle class="st1" cx="0" cy="0" r="10"/>
	<path class="st2" d="M1.2,4.2v-8.6h-1.4v6.9C-0.4,2.3-0.7,2.2-1,2s-0.6-0.2-1-0.3v1.2c0.3,0,0.5,0.1,0.7,0.2s0.4,0.2,0.6,0.3
		S-0.2,3.6,0,3.7S0.4,4,0.6,4.2H1.2z"/>
</symbol>
<symbol  id="e" viewBox="-10 -10 20 20">
	<circle class="st1" cx="0" cy="0" r="10"/>
	<path class="st2" d="M2.5-4.4h-5.3v0.7c0,0.3,0,0.5,0.1,0.8s0.2,0.5,0.3,0.7S-2.1-2-1.9-1.8s0.4,0.4,0.5,0.5S-1-0.9-0.8-0.8
		s0.4,0.3,0.6,0.5C0-0.1,0.1,0,0.3,0.2s0.3,0.3,0.4,0.5s0.2,0.3,0.3,0.5S1,1.5,1,1.7c0,0.2,0,0.4-0.1,0.6S0.8,2.6,0.6,2.7
		S0.4,2.9,0.2,2.9S-0.2,3-0.4,3c-0.3,0-0.7-0.1-1-0.2s-0.7-0.4-1-0.7v1.3c0.2,0.1,0.3,0.2,0.5,0.3s0.4,0.2,0.5,0.2S-1,4-0.8,4.1
		s0.4,0.1,0.7,0.1c0.4,0,0.7-0.1,1-0.2s0.6-0.3,0.8-0.4s0.4-0.4,0.5-0.7s0.2-0.6,0.2-1c0-0.3,0-0.6-0.1-0.9S2.1,0.4,1.9,0.1
		S1.6-0.3,1.3-0.5S0.9-1,0.6-1.2C0.4-1.4,0.2-1.6-0.1-1.7s-0.4-0.3-0.6-0.5S-1-2.6-1.1-2.7s-0.2-0.3-0.2-0.5v0h3.8L2.5-4.4L2.5-4.4z
		"/>
</symbol>
<symbol  id="e_2" viewBox="-10 -10 20 20">
	<circle class="st1" cx="0" cy="0" r="10"/>
	<path class="st2" d="M2.5-4.4h-5.3v0.7c0,0.3,0,0.5,0.1,0.8s0.2,0.5,0.3,0.7S-2.1-2-1.9-1.8s0.4,0.4,0.5,0.5S-1-0.9-0.8-0.8
		s0.4,0.3,0.6,0.5S0.1,0,0.3,0.2s0.3,0.3,0.4,0.5S0.9,1,1,1.2s0,0.3,0,0.5s0,0.4-0.1,0.6S0.8,2.6,0.6,2.7S0.4,2.9,0.2,2.9
		S-0.2,3-0.4,3c-0.3,0-0.7-0.1-1-0.2s-0.7-0.4-1-0.7v1.3c0.2,0.1,0.3,0.2,0.5,0.3s0.4,0.2,0.5,0.2S-1,4-0.8,4.1s0.4,0.1,0.7,0.1
		c0.4,0,0.7-0.1,1-0.2s0.6-0.3,0.8-0.4s0.4-0.4,0.5-0.7s0.2-0.6,0.2-1c0-0.3,0-0.6-0.1-0.9S2.1,0.4,1.9,0.1S1.6-0.3,1.3-0.5
		S0.9-1,0.6-1.2C0.4-1.4,0.2-1.6-0.1-1.7S-0.5-2-0.7-2.2S-1-2.6-1.1-2.7S-1.3-3-1.3-3.2l0,0h3.8V-4.4L2.5-4.4z"/>
</symbol>
<symbol  id="f" viewBox="-10 -10 20 20">
	<circle class="st1" cx="0" cy="0" r="10"/>
	<path class="st2" d="M-2.6-4.1v1.3c0.5-0.4,1.2-0.7,1.9-0.6c0.6,0,1,0.1,1.3,0.4s0.5,0.6,0.5,1c0,1-0.7,1.4-2.2,1.4h-0.6v1.1h0.6
		c1.3,0,1.9,0.4,1.9,1.3C0.8,2.6,0.3,3-0.7,3c-0.6,0-1.1-0.2-1.6-0.6v1.2c0.6,0.3,1.2,0.5,2,0.5c0.8,0,1.3-0.2,1.8-0.6
		s0.7-0.9,0.7-1.5C2.2,1,1.6,0.3,0.5,0v0c0.6-0.1,1.1-0.3,1.4-0.6S2.5-1.5,2.5-2c0-0.8-0.3-1.4-0.9-1.8S0.3-4.6-0.6-4.6
		C-1.5-4.6-2.1-4.4-2.6-4.1z"/>
</symbol>
<symbol  id="f_2" viewBox="-10 -10 20 20">
	<circle class="st1" cx="0" cy="0" r="10"/>
	<path class="st2" d="M-2.6-4.1v1.3c0.5-0.4,1.2-0.7,1.9-0.6c0.6,0,1,0.1,1.3,0.4s0.5,0.6,0.5,1c0,1-0.7,1.4-2.2,1.4h-0.6v1.1h0.6
		c1.3,0,1.9,0.4,1.9,1.3C0.8,2.6,0.3,3-0.7,3c-0.6,0-1.1-0.2-1.6-0.6v1.2c0.6,0.3,1.2,0.5,2,0.5S1,3.9,1.5,3.5S2.2,2.6,2.2,2
		c0-1-0.6-1.7-1.7-2l0,0c0.6-0.1,1.1-0.3,1.4-0.6S2.5-1.5,2.5-2c0-0.8-0.3-1.4-0.9-1.8S0.3-4.6-0.6-4.6S-2.1-4.4-2.6-4.1z"/>
</symbol>
<symbol  id="g" viewBox="-10 -10 20 20">
	<circle class="st1" cx="0" cy="0" r="10"/>
	<path class="st2" d="M2,4v-5.4h1.3v-1.1H2v-1.8H0.6v1.8h-3.8v1.1c0.3,0.4,0.7,0.8,1.1,1.3s0.7,0.9,1,1.4s0.6,0.9,0.9,1.4
		S0.4,3.5,0.6,4C0.6,4,2,4,2,4z M0.6-1.5v3.5c-0.4-0.8-0.8-1.4-1.3-2S-1.4-1-1.8-1.4L0.6-1.5L0.6-1.5z"/>
</symbol>
<symbol  id="g_2" viewBox="-10 -10 20 20">
	<circle class="st1" cx="0" cy="0" r="10"/>
	<path class="st2" d="M2,4v-5.4h1.3v-1.1H2v-1.8H0.6v1.8h-3.8v1.1C-2.9-1-2.5-0.6-2.1-0.1s0.7,0.9,1,1.4s0.6,0.9,0.9,1.4
		S0.4,3.5,0.6,4H2z M0.6-1.5V2C0.2,1.2-0.2,0.6-0.7,0s-0.7-1-1.1-1.4L0.6-1.5L0.6-1.5z"/>
</symbol>
<symbol  id="h" viewBox="-10 -10 20 20">
	<circle class="st1" cx="0" cy="0" r="10"/>
	<path class="st2" d="M-2.4-4.2v1.3c0.5-0.4,1.1-0.6,1.7-0.6s1,0.2,1.4,0.4s0.5,0.7,0.5,1.2S1-1,0.6-0.8s-0.9,0.4-1.5,0.4
		c-0.2,0-0.7,0-1.4-0.1L-2,4h4.1V2.8h-3L-1,0.7c0.3,0,0.5,0,0.7,0c0.9,0,1.6-0.2,2.1-0.7S2.6-1,2.6-1.8c0-0.8-0.3-1.5-0.8-2
		S0.4-4.6-0.6-4.6C-1.4-4.6-2-4.5-2.4-4.2z"/>
</symbol>
<symbol  id="h_2" viewBox="-10 -10 20 20">
	<circle class="st1" cx="0" cy="0" r="10"/>
	<path class="st2" d="M-2.4-4.2v1.3c0.5-0.4,1.1-0.6,1.7-0.6s1,0.2,1.4,0.4s0.5,0.7,0.5,1.2S1-1,0.6-0.8s-0.9,0.4-1.5,0.4
		c-0.2,0-0.7,0-1.4-0.1L-2,4h4.1V2.8h-3L-1,0.7c0.3,0,0.5,0,0.7,0c0.9,0,1.6-0.2,2.1-0.7s0.8-1,0.8-1.8s-0.3-1.5-0.8-2
		S0.4-4.6-0.6-4.6C-1.4-4.6-2-4.5-2.4-4.2z"/>
</symbol>
<symbol  id="i" viewBox="-10 -10 20 20">
	<circle class="st1" cx="0" cy="0" r="10"/>
	<path class="st2" d="M-2.8-2.1c0,0.2,0,0.5,0.1,0.7s0.2,0.4,0.3,0.6S-2.2-0.4-2-0.2s0.4,0.3,0.6,0.4C-1.7,0.3-2,0.6-2.2,0.9
		S-2.5,1.6-2.5,2c0,0.3,0.1,0.6,0.2,0.9S-2,3.3-1.8,3.5S-1.3,3.8-1,4s0.6,0.2,1,0.2S0.7,4.1,1,4s0.6-0.3,0.8-0.5s0.4-0.4,0.5-0.7
		S2.5,2.3,2.5,2c0-0.4-0.1-0.7-0.3-1.1S1.7,0.3,1.3,0.1C1.6,0,1.8-0.1,2-0.2s0.3-0.3,0.5-0.5s0.2-0.4,0.3-0.6s0.1-0.5,0.1-0.7
		c0-0.4-0.1-0.7-0.2-1S2.3-3.7,2-3.9C1.8-4.1,1.5-4.3,1.1-4.4S0.4-4.6,0-4.6c-0.4,0-0.8,0.1-1.1,0.2S-1.8-4.1-2-3.9
		s-0.4,0.5-0.6,0.8S-2.8-2.5-2.8-2.1z M-1.5-2c0-0.2,0-0.4,0.1-0.6S-1.2-3-1.1-3.1s0.3-0.2,0.5-0.3c0.4-0.1,0.8-0.1,1.2,0
		c0.2,0.1,0.3,0.2,0.5,0.3s0.2,0.3,0.3,0.5S1.5-2.2,1.5-2c0,0.2,0,0.4-0.1,0.6S1.2-1,1.1-0.8S0.8-0.6,0.6-0.5S0.2-0.4,0-0.4
		c-0.2,0-0.4,0-0.6-0.1s-0.3-0.2-0.5-0.3s-0.2-0.3-0.3-0.5S-1.5-1.7-1.5-2z M-1.2,1.8c0-0.2,0-0.3,0.1-0.5S-0.9,1.1-0.8,1
		s0.2-0.2,0.4-0.3S-0.2,0.6,0,0.6s0.3,0,0.5,0.1S0.7,0.9,0.8,1S1,1.2,1.1,1.4s0.1,0.3,0.1,0.5c0,0.2,0,0.3-0.1,0.5S0.9,2.6,0.8,2.7
		S0.6,2.9,0.5,3S0.2,3.1,0,3.1c-0.2,0-0.3,0-0.5-0.1s-0.3-0.1-0.4-0.3S-1,2.5-1.1,2.3S-1.2,2-1.2,1.8z"/>
</symbol>
<symbol  id="i_2" viewBox="-10 -10 20 20">
	<circle class="st1" cx="0" cy="0" r="10"/>
	<path class="st2" d="M-2.8-2.1c0,0.2,0,0.5,0.1,0.7S-2.5-1-2.4-0.8S-2.2-0.4-2-0.2s0.4,0.3,0.6,0.4C-1.7,0.3-2,0.6-2.2,0.9
		S-2.5,1.6-2.5,2c0,0.3,0.1,0.6,0.2,0.9S-2,3.3-1.8,3.5S-1.3,3.8-1,4c0.3,0.2,0.6,0.2,1,0.2S0.7,4.1,1,4s0.6-0.3,0.8-0.5
		s0.4-0.4,0.5-0.7S2.5,2.3,2.5,2c0-0.4-0.1-0.7-0.3-1.1S1.7,0.3,1.3,0.1C1.6,0,1.8-0.1,2-0.2s0.3-0.3,0.5-0.5s0.2-0.4,0.3-0.6
		S2.9-1.8,2.9-2c0-0.4-0.1-0.7-0.2-1S2.3-3.7,2-3.9C1.8-4.1,1.5-4.3,1.1-4.4S0.4-4.6,0-4.6s-0.8,0.1-1.1,0.2S-1.8-4.1-2-3.9
		s-0.4,0.5-0.6,0.8S-2.8-2.5-2.8-2.1z M-1.5-2c0-0.2,0-0.4,0.1-0.6S-1.2-3-1.1-3.1s0.3-0.2,0.5-0.3c0.4-0.1,0.8-0.1,1.2,0
		c0.2,0.1,0.3,0.2,0.5,0.3s0.2,0.3,0.3,0.5S1.5-2.2,1.5-2s0,0.4-0.1,0.6S1.2-1,1.1-0.8S0.8-0.6,0.6-0.5S0.2-0.4,0-0.4
		s-0.4,0-0.6-0.1s-0.3-0.2-0.5-0.3s-0.2-0.3-0.3-0.5S-1.5-1.7-1.5-2z M-1.2,1.8c0-0.2,0-0.3,0.1-0.5S-0.9,1.1-0.8,1s0.2-0.2,0.4-0.3
		S-0.2,0.6,0,0.6s0.3,0,0.5,0.1S0.7,0.9,0.8,1S1,1.2,1.1,1.4s0.1,0.3,0.1,0.5s0,0.3-0.1,0.5S0.9,2.6,0.8,2.7S0.6,2.9,0.5,3
		S0.2,3.1,0,3.1s-0.3,0-0.5-0.1s-0.3-0.1-0.4-0.3S-1,2.5-1.1,2.3S-1.2,2-1.2,1.8z"/>
</symbol>
<symbol  id="j" viewBox="-16 -16 32 32">
	<path class="st3" d="M9.7-12.7C6.8-14.9,3.4-16,0-16c-4.8,0-9.6,2.2-12.7,6.3c-5.4,7-4,17,3,22.4C-6.9,14.8-3.5,16,0,16
		c4.8,0,9.6-2.2,12.7-6.3C18.1,2.7,16.7-7.3,9.7-12.7"/>
	<path class="st2" d="M6.8-2.8c1.2-1.5,3.3-1.8,4.8-0.6c0,0,0,0,0,0c0.1,0.1,0.1,0.1,0.2,0.2c1.5-1.1,2.6-1.8,3.2-2.2
		c0.2,0.5,0.3,0.9,0.4,1.4C14.8-3.6,14-3,12.7-1.9c0.4,1.1,0.3,2.3-0.5,3.3c-1.1,1.4-2.9,1.7-4.4,0.9c-1.6,1.5-3.4,3.1-5.3,5
		c5.9,3.1,10,2.7,10,2.7c-0.7,0.9-1.5,1.7-2.3,2.4c-2.5,0.4-6.3,0.3-10.7-2c-1.5,1.5-3,3.2-4.5,4.9c-0.7-0.2-1.4-0.5-2.1-0.9
		c1.1-1.8,2.6-3.7,4.3-5.5l0,0c-1.4-1-3-2.3-4.4-3.8c-0.2-0.2-0.4-0.4-0.5-0.6c-0.9,0.2-1.8,0.1-2.6-0.2c-1.4,3.1-1.3,5.6-1.1,6.9
		c-0.6-0.7-1.2-1.4-1.7-2.1c-0.4-1.5-0.5-3.8,0.6-6.5c-1.3-1.7-1.3-4.1,0-5.9c0.1-0.2,0.2-0.3,0.4-0.4c-0.6-2-0.9-3.9-0.9-5.6
		c0.1-0.2,0.1-0.4,0.3-0.6c0.8-1,1.7-1.8,2.7-2.6c-0.1,1.8,0,4.4,1.1,7.3C-8.3-5.1-7.5-5-6.8-4.7C-6.4-5.1-6-5.4-5.5-5.8
		C-4-7.1-2.4-8-0.9-8.8c-0.1-0.8,0.1-1.6,0.6-2.3c1.1-1.4,3.1-1.7,4.5-0.6c0.3,0.2,0.5,0.5,0.7,0.8c2.5-0.6,4.7-0.6,6.3-0.6
		c0.3,0,1.4,1.6,2.1,2.5c-1-0.2-3.9-0.6-7.9,0.5C5.3-8,5.1-7.6,4.8-7.2c-1,1.3-2.9,1.6-4.2,0.7c-1.4,0.8-2.8,1.7-4.3,2.9
		c-0.3,0.2-0.6,0.5-0.9,0.7c0.9,1.4,1,3.3,0.2,4.8c0.2,0.2,0.4,0.4,0.6,0.5C-2.4,3.9-1,5,0.3,5.9L0.1,6C0.2,6,0.2,6,0.3,5.9
		c2-1.8,4.1-3.6,6.1-5.2C5.9-0.4,6-1.8,6.8-2.8z"/>
</symbol>
<symbol  id="j_2" viewBox="-16 -16 32 32">
	<path class="st3" d="M9.7-12.7C6.8-14.9,3.4-16,0-16c-4.8,0-9.6,2.2-12.7,6.3c-5.4,7-4,17,3,22.4C-6.9,14.8-3.5,16,0,16
		c4.8,0,9.6-2.2,12.7-6.3C18.1,2.7,16.7-7.3,9.7-12.7"/>
	<path class="st2" d="M6.8-2.8c1.2-1.5,3.3-1.8,4.8-0.6l0,0c0.1,0.1,0.1,0.1,0.2,0.2C13.3-4.3,14.4-5,15-5.4
		c0.2,0.5,0.3,0.9,0.4,1.4c-0.6,0.4-1.4,1-2.7,2.1c0.4,1.1,0.3,2.3-0.5,3.3c-1.1,1.4-2.9,1.7-4.4,0.9c-1.6,1.5-3.4,3.1-5.3,5
		c5.9,3.1,10,2.7,10,2.7c-0.7,0.9-1.5,1.7-2.3,2.4c-2.5,0.4-6.3,0.3-10.7-2c-1.5,1.5-3,3.2-4.5,4.9c-0.7-0.2-1.4-0.5-2.1-0.9
		c1.1-1.8,2.6-3.7,4.3-5.5l0,0c-1.4-1-3-2.3-4.4-3.8c-0.2-0.2-0.4-0.4-0.5-0.6c-0.9,0.2-1.8,0.1-2.6-0.2c-1.4,3.1-1.3,5.6-1.1,6.9
		c-0.6-0.7-1.2-1.4-1.7-2.1c-0.4-1.5-0.5-3.8,0.6-6.5c-1.3-1.7-1.3-4.1,0-5.9c0.1-0.2,0.2-0.3,0.4-0.4c-0.6-2-0.9-3.9-0.9-5.6
		c0.1-0.2,0.1-0.4,0.3-0.6c0.8-1,1.7-1.8,2.7-2.6c-0.1,1.8,0,4.4,1.1,7.3C-8.3-5.1-7.5-5-6.8-4.7C-6.4-5.1-6-5.4-5.5-5.8
		C-4-7.1-2.4-8-0.9-8.8c-0.1-0.8,0.1-1.6,0.6-2.3c1.1-1.4,3.1-1.7,4.5-0.6c0.3,0.2,0.5,0.5,0.7,0.8c2.5-0.6,4.7-0.6,6.3-0.6
		c0.3,0,1.4,1.6,2.1,2.5c-1-0.2-3.9-0.6-7.9,0.5C5.3-8,5.1-7.6,4.8-7.2c-1,1.3-2.9,1.6-4.2,0.7c-1.4,0.8-2.8,1.7-4.3,2.9
		C-4-3.4-4.3-3.1-4.6-2.9c0.9,1.4,1,3.3,0.2,4.8C-4.2,2.1-4,2.3-3.8,2.4C-2.4,3.9-1,5,0.3,5.9L0.1,6c0.1,0,0.1,0,0.2-0.1
		c2-1.8,4.1-3.6,6.1-5.2C5.9-0.4,6-1.8,6.8-2.8z"/>
</symbol>
<symbol  id="k" viewBox="-16.3 -25 32.6 49.9">
	<path class="st4" d="M16.3,10.3v0.3c0,7.7-6.6,14.1-14.7,14.2c-0.2,0.3-4.8-0.1-4.8-0.1c-7.3-0.9-13-7-13-14.1
		c0-0.2-0.8-5.8,4.9-10.5C-8.7-2.2-6-8.4-5.6-10.2l0.3-0.6H5.3l0.3,0.6C6-8.4,8.8-2.2,11.3,0C17,4.8,16.3,10.1,16.3,10.3z"/>
	<path class="st5" d="M-5.1-17.8H5.5v3.4H-5.1V-17.8z M-1.8-25h3.9l3.3,3.5H-5.1L-1.8-25z"/>
	<path class="st6" d="M2.8-10.3h-2V2.4h-1.7v-12.6h-2V2.4h-1.7c-2,0-3.7,1.7-3.7,3.7s1.6,3.7,3.7,3.7s3.7-1.7,3.7-3.7V4.4h1.7v1.7
		c0,2,1.7,3.7,3.7,3.7s3.7-1.7,3.7-3.7S6.5,2.4,4.5,2.4H2.8V-10.3z M-4.6,7.8c-0.9,0-1.7-0.7-1.7-1.7c0-0.9,0.8-1.7,1.7-1.7h1.7v1.7
		C-3,7-3.7,7.8-4.6,7.8z M4.5,7.8C3.6,7.8,2.8,7,2.8,6.1V4.4h1.7c0.9,0,1.7,0.8,1.7,1.7S5.5,7.8,4.5,7.8z"/>
	<path class="st7" d="M1.6,24.8c-0.2,0.3-4.8-0.1-4.8-0.1c-7.3-0.9-13-7-13-14.1c0-0.2-0.7-5.1,3.9-9.6L9.3,22.6
		C7,24,4.4,24.8,1.6,24.8z"/>
</symbol>
<g id="Source" class="st8">
	<g id="shapes_1_" class="st9">
		<g>
			<path class="st10" d="M59,29c0,5.1-4.1,9.2-9.2,9.2s-9.2-4.1-9.2-9.2c0.1-5.1,4.2-9.2,9.2-9.2C54.9,19.8,59,23.8,59,29
				 M56.5,41.5l-6.7,9.4L43,41.5h-9.8v23.3h33V41.5H56.5z"/>
			<path class="st11" d="M40.6,29c0,5,4.1,9.1,9,9.2l2.3-18.1c-0.7-0.3-1.5-0.3-2.2-0.3C44.7,19.8,40.6,23.8,40.6,29 M43,41.5h-9.8
				v23.3h13l2-16L43,41.5z"/>
			
				<use xlink:href="#a_2"  width="40" height="40" x="-20" y="-20" transform="matrix(1 0 0 -1 162.522 41.385)" style="overflow:visible;"/>
			<path class="st12" d="M134.2,40.1H70.1"/>
			<path d="M133.1,36.4l6.5,3.7l-6.5,3.7V36.4z"/>
			<path class="st12" d="M248.2,40.1h-64.1"/>
			<path d="M247.1,36.4l6.5,3.7l-6.5,3.7V36.4z"/>
			<path class="st12" d="M361.6,40.1h-64.1"/>
			<path d="M360.5,36.4l6.5,3.7l-6.5,3.7V36.4z"/>
			<path class="st12" d="M474.7,40.1h-64.1"/>
			<path d="M473.6,36.4l6.5,3.7l-6.5,3.7V36.4z"/>
			<path class="st12" d="M365.6,146.9H185"/>
			<path d="M186.1,143.1l-6.5,3.7l6.5,3.7V143.1z"/>
			<path class="st12" d="M143.5,146.9H72c-5.5,0-10-4.5-10-10V73.6"/>
			<path d="M65.8,74.7L62,68.2l-3.7,6.5H65.8z"/>
			
				<use xlink:href="#b_2"  width="20" height="20" x="-10" y="-10" transform="matrix(1 0 0 -1 272.392 161.244)" style="overflow:visible;"/>
			
				<use xlink:href="#c_2"  width="20" height="20" x="-10" y="-10" transform="matrix(1 0 0 -1 101.803 161.244)" style="overflow:visible;"/>
			<path class="st12" d="M37.3,73.6V168"/>
			<path d="M33.6,74.7l3.7-6.5l3.7,6.5H33.6z M33.6,166.9l3.7,6.5l3.7-6.5H33.6z"/>
			<path class="st12" d="M503,63v73.9c0,5.5-4.5,10-10,10h-76.5"/>
			<path d="M417.6,143.1l-6.5,3.7l6.5,3.7V143.1z"/>
			
				<use xlink:href="#d_2"  width="20" height="20" x="-10" y="-10" transform="matrix(1 0 0 -1 101.803 54.413)" style="overflow:visible;"/>
			
				<use xlink:href="#e_2"  width="20" height="20" x="-10" y="-10" transform="matrix(1 0 0 -1 216.073 54.413)" style="overflow:visible;"/>
			
				<use xlink:href="#f_2"  width="20" height="20" x="-10" y="-10" transform="matrix(1 0 0 -1 330.343 54.413)" style="overflow:visible;"/>
			
				<use xlink:href="#g_2"  width="20" height="20" x="-10" y="-10" transform="matrix(1 0 0 -1 444.613 54.413)" style="overflow:visible;"/>
			
				<use xlink:href="#h_2"  width="20" height="20" x="-10" y="-10" transform="matrix(1 0 0 -1 444.613 161.244)" style="overflow:visible;"/>
			
				<use xlink:href="#i_2"  width="20" height="20" x="-10" y="-10" transform="matrix(1 0 0 -1 22.218 108.459)" style="overflow:visible;"/>
			
				<use xlink:href="#j_2"  width="32" height="32" x="-16" y="-16" transform="matrix(1.2496 0 0 -1.2496 388.45 144.5262)" style="overflow:visible;"/>
			
				<use xlink:href="#k"  width="32.6" height="49.9" x="-16.3" y="-25" transform="matrix(0.9998 0 0 -0.9998 162.527 145.243)" style="overflow:visible;"/>
			<path class="st13" d="M49.7,186.5L49.7,186.5l0.1,21.6l-26.2-4l11,13.1V212l15,5.3l9.8-8.4v-24.2L49.7,186.5z"/>
			<path class="st13" d="M23.5,191.3l26.2-4.8l-12.5-9.2v4.3L23.6,187l-4.1,5.3v11.2l4.1,0.6v-12.8H23.5z M286,28.6L286,28.6
				l0.1,21.6l-26.2-4l11,13.1V54l15.1,5.3l9.8-8.4v-24L286,28.6z"/>
			<path class="st13" d="M259.8,33.5l26.2-4.8l-12.5-9.2v4.3l-13.6,5.4l-4.1,5.3v11.2l4.1,0.6V33.5H259.8z M397.4,28.6L397.4,28.6
				l0.1,21.6l-26.2-4l11,13.1V54l15.1,5.3l9.8-8.4v-24L397.4,28.6z"/>
			<path class="st13" d="M371.2,33.5l26.2-4.8l-12.5-9.2v4.3l-13.6,5.4l-4,5.3v11.2l4,0.6V33.5H371.2z M512.5,28.6L512.5,28.6
				l0.1,21.6l-26.2-4l11,13.1V54l15,5.3l9.8-8.4v-24L512.5,28.6z"/>
			<path class="st13" d="M486.4,33.5l26.2-4.8L500,19.4v4.3l-13.6,5.4l-4.1,5.3v11.2l4.1,0.6V33.5z"/>
			<g>
				<path class="st14" d="M354.9,173.4H422v26h-67.2v-26H354.9z"/>
			</g>
		</g>
	</g>
	<g id="txt_1_" class="st9">
		<g>
			<rect x="348" y="174.7" class="st14" width="80.9" height="49.6"/>
			<text transform="matrix(1 0 0 1 359.2305 183.6153)" class="st15 st16 st17">Azure Web </text>
			<text transform="matrix(1 0 0 1 374.9305 196.6153)" class="st15 st16 st17">Apps</text>
		</g>
		<g>
			<rect x="111.9" y="174.8" class="st14" width="101.1" height="49.6"/>
			<text transform="matrix(1 0 0 1 115.3529 183.6753)" class="st15 st16 st17">Azure Application </text>
			<text transform="matrix(1 0 0 1 141.8529 196.6753)" class="st15 st16 st17">Insights</text>
		</g>
		<g>
			<text transform="matrix(1 0 0 1 -0.2604 230.67)" class="st15 st16 st17">Azure Boards</text>
		</g>
		<g>
			<text transform="matrix(1 0 0 1 26.5322 10.2157)" class="st15 st16 st17">Engineer</text>
		</g>
		<g>
			<text transform="matrix(1 0 0 1 128.2599 11.1055)" class="st15 st16 st17">Visual Studio</text>
		</g>
		<g>
			<text transform="matrix(1 0 0 1 243.6233 11.1056)" class="st15 st16 st17">Azure Repos</text>
		</g>
		<text transform="matrix(1 0 0 1 344.9275 11.1055)" class="st15 st16 st17">Azure Test Plans</text>
		<text transform="matrix(1 0 0 1 462.9408 11.2622)" class="st15 st16 st17">Azure Pipelines</text>
	</g>
</g>
<g id="shapes">
	<g>
		<path class="st10" d="M59,29c0,5.1-4.1,9.2-9.2,9.2s-9.2-4.1-9.2-9.2c0.1-5.1,4.2-9.2,9.2-9.2C54.9,19.8,59,23.8,59,29 M56.5,41.5
			l-6.7,9.4L43,41.5h-9.8v23.3h33V41.5H56.5z"/>
		<path class="st11" d="M40.6,29c0,5,4.1,9.1,9,9.2l2.3-18.1c-0.7-0.3-1.5-0.3-2.2-0.3C44.7,19.8,40.6,23.8,40.6,29 M43,41.5h-9.8
			v23.3h13l2-16L43,41.5z"/>
		
			<use xlink:href="#a"  width="40" height="40" x="-20" y="-20" transform="matrix(1 0 0 -1 162.522 41.385)" style="overflow:visible;"/>
		<path class="st12" d="M134.2,40.1H70.1"/>
		<path d="M133.1,36.4l6.5,3.7l-6.5,3.7V36.4z"/>
		<path class="st12" d="M248.2,40.1h-64.1"/>
		<path d="M247.1,36.4l6.5,3.7l-6.5,3.7V36.4z"/>
		<path class="st12" d="M361.6,40.1h-64.1"/>
		<path d="M360.5,36.4l6.5,3.7l-6.5,3.7V36.4z"/>
		<path class="st12" d="M474.7,40.1h-64.1"/>
		<path d="M473.6,36.4l6.5,3.7l-6.5,3.7V36.4z"/>
		<path class="st12" d="M365.6,146.9H185"/>
		<path d="M186.1,143.1l-6.5,3.7l6.5,3.7V143.1z"/>
		<path class="st12" d="M143.5,146.9H72c-5.5,0-10-4.5-10-10V73.6"/>
		<path d="M65.8,74.7L62,68.2l-3.7,6.5H65.8z"/>
		
			<use xlink:href="#b"  width="20" height="20" x="-10" y="-10" transform="matrix(1 0 0 -1 272.392 161.244)" style="overflow:visible;"/>
		
			<use xlink:href="#c"  width="20" height="20" x="-10" y="-10" transform="matrix(1 0 0 -1 101.803 161.244)" style="overflow:visible;"/>
		<path class="st12" d="M37.3,73.6V168"/>
		<path d="M33.6,74.7l3.7-6.5l3.7,6.5H33.6z M33.6,166.9l3.7,6.5l3.7-6.5H33.6z"/>
		<path class="st12" d="M503,63v73.9c0,5.5-4.5,10-10,10h-76.5"/>
		<path d="M417.6,143.1l-6.5,3.7l6.5,3.7V143.1z"/>
		
			<use xlink:href="#d"  width="20" height="20" x="-10" y="-10" transform="matrix(1 0 0 -1 101.803 54.413)" style="overflow:visible;"/>
		
			<use xlink:href="#e"  width="20" height="20" x="-10" y="-10" transform="matrix(1 0 0 -1 216.073 54.413)" style="overflow:visible;"/>
		
			<use xlink:href="#f"  width="20" height="20" x="-10" y="-10" transform="matrix(1 0 0 -1 330.343 54.413)" style="overflow:visible;"/>
		
			<use xlink:href="#g"  width="20" height="20" x="-10" y="-10" transform="matrix(1 0 0 -1 444.613 54.413)" style="overflow:visible;"/>
		
			<use xlink:href="#h"  width="20" height="20" x="-10" y="-10" transform="matrix(1 0 0 -1 444.613 161.244)" style="overflow:visible;"/>
		
			<use xlink:href="#i"  width="20" height="20" x="-10" y="-10" transform="matrix(1 0 0 -1 22.218 108.459)" style="overflow:visible;"/>
		
			<use xlink:href="#j"  width="32" height="32" x="-16" y="-16" transform="matrix(1.2496 0 0 -1.2496 388.45 144.5262)" style="overflow:visible;"/>
		
			<use xlink:href="#k"  width="32.6" height="49.9" x="-16.3" y="-25" transform="matrix(1 0 0 -1 162.527 145.193)" style="overflow:visible;"/>
		<path class="st13" d="M49.7,186.5L49.7,186.5l0.1,21.6l-26.2-4l11,13.1V212l15,5.3l9.8-8.4v-24.2L49.7,186.5z"/>
		<path class="st13" d="M23.5,191.3l26.2-4.8l-12.5-9.2v4.3l-13.6,5.4l-4.1,5.3v11.2l4.1,0.6V191.3z M286,28.6L286,28.6l0.1,21.6
			l-26.2-4l11,13.1v-5.3l15.1,5.3l9.8-8.4V26.9L286,28.6z"/>
		<path class="st13" d="M259.8,33.5l26.2-4.8l-12.5-9.2v4.3l-13.6,5.4l-4.1,5.3v11.2l4.1,0.6V33.5z M397.4,28.6L397.4,28.6l0.1,21.6
			l-26.2-4l11,13.1v-5.3l15.1,5.3l9.8-8.4V26.9L397.4,28.6z"/>
		<path class="st13" d="M371.2,33.5l26.2-4.8l-12.5-9.2v4.3l-13.6,5.4l-4,5.3v11.2l4,0.6V33.5z M512.5,28.6L512.5,28.6l0.1,21.6
			l-26.2-4l11,13.1v-5.3l15,5.3l9.8-8.4V26.9L512.5,28.6z"/>
		<path class="st13" d="M486.4,33.5l26.2-4.8L500,19.4v4.3l-13.6,5.4l-4.1,5.3v11.2l4.1,0.6V33.5z"/>
		<g>
			<path class="st14" d="M354.9,173.4H422v26h-67.2V173.4z"/>
		</g>
	</g>
</g>
<g id="txt">
	<g>
		<rect x="348" y="174.7" class="st14" width="80.9" height="49.6"/>
		<text transform="matrix(1 0 0 1 359.2305 183.6153)"><tspan x="0" y="0" class="st15 st16 st17">Azure Web </tspan><tspan x="15.7" y="13" class="st15 st16 st17">Apps</tspan></text>
	</g>
	<g>
		<rect x="111.9" y="174.8" class="st14" width="101.1" height="49.6"/>
		<text transform="matrix(1 0 0 1 115.3529 183.6753)"><tspan x="0" y="0" class="st15 st16 st17">Azure Application </tspan><tspan x="26.5" y="13" class="st15 st16 st17">Insights</tspan></text>
	</g>
	<g>
		<text transform="matrix(1 0 0 1 -0.2604 230.67)" class="st15 st16 st17">Azure Boards</text>
	</g>
	<g>
		<text transform="matrix(1 0 0 1 26.5322 10.2157)" class="st15 st16 st17">Engineer</text>
	</g>
	<g>
		<text transform="matrix(1 0 0 1 128.2599 11.1055)" class="st15 st16 st17">Visual Studio</text>
	</g>
	<g>
		<text transform="matrix(1 0 0 1 243.6233 11.1056)" class="st15 st16 st17">Azure Repos</text>
	</g>
	<text transform="matrix(1 0 0 1 344.9275 11.1055)" class="st15 st16 st17">Azure Test Plans</text>
	<text transform="matrix(1 0 0 1 462.9408 11.2622)" class="st15 st16 st17">Azure Pipelines</text>
</g>
</svg>
