<svg xmlns="http://www.w3.org/2000/svg" viewBox="0 0 438.41 191.93"><defs><style>.cls-1,.cls-2,.cls-3{fill:#fff;}.cls-2,.cls-3,.cls-5,.cls-8{stroke:#000;}.cls-2{stroke-width:0.5px;}.cls-3{stroke-width:0.54px;}.cls-4{fill:#8fd6ff;}.cls-5{stroke-linejoin:round;stroke-width:0.63px;}.cls-10,.cls-6,.cls-7,.cls-9{isolation:isolate;}.cls-7{font-size:17.5px;fill:#e10000;font-family:Helvetica-Bold, Helvetica;font-weight:700;}.cls-8{fill:none;stroke-miterlimit:10;}.cls-11,.cls-9{font-size:13.5px;}.cls-10,.cls-11,.cls-9{font-family:YuGothic-Regular, Yu Gothic;}.cls-10{font-size:13px;}</style></defs><title>OJ103514686</title><g id="svg8548"><g id="layer6"><rect id="rect9544" class="cls-1" width="438.41" height="191.93"/></g><g id="layer1"><g id="g9517"><circle id="path9108" class="cls-2" cx="40.8" cy="85.45" r="33.34" transform="translate(-39.9 126.23) rotate(-88.09)"/><circle id="circle9116" class="cls-2" cx="385.26" cy="141.32" r="33.34"/><g id="g9126"><circle id="circle9114" class="cls-2" cx="383.24" cy="44.35" r="33.34"/></g><g id="g9151"><rect id="rect9131" class="cls-3" x="170.91" y="33.26" width="86.83" height="110.07"/><rect id="rect9142" class="cls-4" x="171.55" y="87.6" width="85.54" height="18.07"/></g><path id="path5424" class="cls-5" d="M149.84,85.41l12,4.42-12,4.42A7.52,7.52,0,0,0,149.84,85.41Z" transform="translate(6.06 2.84)"/><path id="path9159" class="cls-5" d="M160.53,89.85" transform="translate(6.06 2.84)"/><path id="path9195" class="cls-5" d="M277.09,86.33l-11.78,2.29,7.49-9.38A7,7,0,0,0,277.09,86.33Z" transform="translate(6.06 2.84)"/><path id="path9185" class="cls-5" d="M266.36,88" transform="translate(6.06 2.84)"/><path id="path9231" class="cls-5" d="M273.25,104.24l-7.94-9L277.18,97A7.06,7.06,0,0,0,273.25,104.24Z" transform="translate(6.06 2.84)"/><path id="path9221" class="cls-5" d="M266.41,95.82" transform="translate(6.06 2.84)"/><g id="text9513" class="cls-6"><text class="cls-7" transform="translate(258.49 101.93)">?</text></g></g></g></g><g id="Layer_3" data-name="Layer 3"><line class="cls-8" x1="87.31" y1="92.84" x2="159.06" y2="92.84"/><line class="cls-8" x1="280.15" y1="86.77" x2="342.81" y2="48.39"/><line class="cls-8" x1="280.15" y1="102.7" x2="342.81" y2="136.84"/><g id="text5999" class="cls-6"><text class="cls-9" transform="translate(199.48 49)">注文</text></g><g id="text5999-2" data-name="text5999" class="cls-6"><text class="cls-9" transform="translate(86.28 112.67)">注文の作成</text></g><g id="text5999-3" data-name="text5999" class="cls-6"><text class="cls-10" transform="translate(288.27 97.58)">注文の処理</text></g><g id="text5999-4" data-name="text5999" class="cls-6"><text class="cls-10" transform="translate(353.15 48.39)">ワーカー <tspan x="51.17" y="0">1</tspan></text></g><g id="text5999-5" data-name="text5999" class="cls-6"><text class="cls-10" transform="translate(354.78 145.52)">ワーカー <tspan x="51.17" y="0">2</tspan></text></g><text class="cls-11" transform="translate(183.73 101)">注文 #123 </text><rect class="cls-1" x="259.02" y="85.21" width="9.79" height="19.33"/></g></svg>