<svg xmlns="http://www.w3.org/2000/svg" viewBox="0 0 354.29 217.86"><defs><style>.cls-1,.cls-10{fill:#fff;}.cls-2{fill:#0078d7;}.cls-3{fill:#ed9292;}.cls-4,.cls-6,.cls-8,.cls-9{fill:none;}.cls-5{fill:#29354a;}.cls-6,.cls-8{stroke:#313131;}.cls-10,.cls-7,.cls-9{stroke:#000;}.cls-7{stroke-linejoin:round;stroke-width:0.63px;}.cls-8{stroke-width:1.09px;}.cls-10{stroke-miterlimit:10;}.cls-11,.cls-12,.cls-13{isolation:isolate;}.cls-12{font-size:12.5px;}.cls-12,.cls-13{font-family:YuGothicUI-Regular, Yu Gothic UI;}.cls-13{font-size:15px;}</style></defs><title>OJ103514653</title><g id="svg2"><g id="layer1"><rect id="rect8170" class="cls-1" width="354.29" height="217.86"/></g><g id="layer2"><g id="g8060"><g id="paths"><g id="g55"><path id="path57" class="cls-2" d="M318.13,124.22c-.16-.31-.48-.47-.63-.79a1.84,1.84,0,0,0-2.05,0c-.32.16-.48.48-.79.63l-.48,1a3.23,3.23,0,0,0-.15,1.26,3.66,3.66,0,0,0,.15,1.42,2.54,2.54,0,0,0,.48.95.86.86,0,0,0,.79.47,2,2,0,0,0,.94.16,1.17,1.17,0,0,0,.79-.16,2.73,2.73,0,0,0,.79-.63l.47-.95a3.39,3.39,0,0,0,.16-1.41,3.47,3.47,0,0,0-.16-1.27l-.31-.63Z"/><path id="path59" class="cls-2" d="M316.08,94.1c-12.62,0-22.72,4.26-22.72,9v42.58c0,4.73,10.26,9.15,22.72,9.15,12.61,0,22.71-4.26,22.71-9V103.25C339,98.51,328.69,94.1,316.08,94.1Zm-6.79,35.64a2.21,2.21,0,0,1-.31.95,1.65,1.65,0,0,1-.63.79,3.48,3.48,0,0,1-1,.63,7.26,7.26,0,0,1-1.42.47,6.38,6.38,0,0,1-1.89.16H303a2,2,0,0,1-.95-.16,6.68,6.68,0,0,1-.79-.16.82.82,0,0,1-.63-.31V128.8a3.81,3.81,0,0,0,.79.47c.31.16.47.32.79.47s.63.16.94.32a2,2,0,0,0,.95.16c.31,0,.47,0,.63-.16a.56.56,0,0,0,.32-.16c.15,0,.15-.16.15-.31v-.32a.58.58,0,0,0-.15-.47c-.16-.16-.16-.32-.32-.32-.16-.16-.32-.16-.63-.31s-.47-.16-.79-.32a6.31,6.31,0,0,1-1.42-.79c-.31-.31-.63-.47-.94-.79a1.34,1.34,0,0,1-.48-.94,2.68,2.68,0,0,1-.16-1.11,4.55,4.55,0,0,1,.32-1.57,8.73,8.73,0,0,1,.95-1.27,5,5,0,0,1,1.57-.79,8.33,8.33,0,0,1,2.05-.31h1.11a2,2,0,0,1,.94.16c.32,0,.48.15.79.15s.48.16.63.16v3.16c-.15-.16-.31-.16-.63-.32-.16-.16-.47-.16-.79-.31a1.38,1.38,0,0,0-.78-.16h-.95c-.47,0-.79,0-.95.16s-.31.31-.31.63c0,.15,0,.31.15.31,0,.16.16.16.32.32s.32.16.47.31.48.16.79.32c.48.16.95.47,1.42.63a7.1,7.1,0,0,1,1.11.79c.31.31.47.63.78.94a3.13,3.13,0,0,1,.32,1.42A1.22,1.22,0,0,0,309.29,129.74Zm9.31,6-2.68-2.84a9,9,0,0,1-2.21-.48,6.63,6.63,0,0,1-1.73-1.26,5.59,5.59,0,0,1-1.27-1.89,6.65,6.65,0,0,1-.47-2.52,7.52,7.52,0,0,1,.47-2.69,9.28,9.28,0,0,1,1.27-2,5,5,0,0,1,1.89-1.26,6.65,6.65,0,0,1,2.52-.47,5.35,5.35,0,0,1,2.37.47,5.73,5.73,0,0,1,1.89,1.26,8.05,8.05,0,0,1,1.26,1.9,6.69,6.69,0,0,1,.48,2.68,3.64,3.64,0,0,1-.32,1.89,4.88,4.88,0,0,1-.79,1.58,4.3,4.3,0,0,1-1.1,1.26,11.65,11.65,0,0,1-1.42,1l4.1,3.47Zm13.56-3.16h-7.88V120.44h3.63v9.3h4.25Zm-16.08-25.23c-9,0-16.25-2.21-16.25-4.89s7.26-4.89,16.25-4.89,16.24,2.21,16.24,4.89S325.07,107.35,316.08,107.35Z"/></g></g><rect id="rect6243" class="cls-3" x="191.6" y="82.06" width="80.61" height="12.86"/><rect id="rect6245" class="cls-3" x="191.36" y="149.92" width="81.34" height="19.29"/><g id="g7468"><path id="path7472" class="cls-4" d="M273.51,89.86V77h25.75v25.75H273.51V89.86Z"/><path id="path7470" class="cls-4" d="M278.47,102.53a1.81,1.81,0,0,1-1-1.14c-.18-.46-.2-1.32-.17-6.46l0-5.93.36-.47a1.86,1.86,0,0,1,1.63-.85l.71-.08.08-3a16.78,16.78,0,0,1,.27-3.56,6.25,6.25,0,0,1,5.09-3.94A6.51,6.51,0,0,1,292.66,81a16.5,16.5,0,0,1,.28,3.56l.07,3,.72.08a1.87,1.87,0,0,1,1.63.85l.36.47,0,5.93c.05,6.66,0,6.71-.84,7.38l-.46.35-7.8,0c-6.89,0-7.84,0-8.18-.17Zm9.65-4c0-.28-.12-1.12-.25-1.87l-.24-1.37.44-.55a1.53,1.53,0,0,0,.44-1.29,1.7,1.7,0,0,0-.27-1.12,2,2,0,0,0-3.45,0,1.7,1.7,0,0,0-.27,1.12,1.53,1.53,0,0,0,.42,1.27,1.84,1.84,0,0,1,.41.73c0,.12-.12.89-.27,1.73a7.81,7.81,0,0,0-.2,1.73c.07.18.29.21,1.66.18l1.58,0v-.52Zm2-13.58c0-1.45,0-2.83,0-3.06-.25-1.38-2.48-2.46-4.34-2.09a3.49,3.49,0,0,0-2,1c-.77.73-.79.83-.79,3.92a24.74,24.74,0,0,0,.09,2.9,35.47,35.47,0,0,0,3.57.06l3.48,0,0-2.64Z"/></g><g id="g7515"><g id="g7474"><path id="path7476" class="cls-5" d="M276.66,94.19a.83.83,0,0,1-.46-.51,13.6,13.6,0,0,1-.08-2.91l0-2.67.16-.21a.84.84,0,0,1,.74-.38l.32,0,0-1.36a8.06,8.06,0,0,1,.12-1.6,2.81,2.81,0,0,1,2.3-1.77,2.92,2.92,0,0,1,3.24,1.77,7.36,7.36,0,0,1,.12,1.6l0,1.36.32,0a.83.83,0,0,1,.73.38l.16.21,0,2.67c0,3,0,3-.38,3.32l-.21.16-3.5,0c-3.11,0-3.53,0-3.69-.08ZM281,92.4a7.26,7.26,0,0,0-.11-.85l-.11-.61.2-.25a.69.69,0,0,0,.2-.58.74.74,0,0,0-.12-.5.92.92,0,0,0-1.55,0,.73.73,0,0,0-.13.5.71.71,0,0,0,.19.57.83.83,0,0,1,.19.33s-.05.4-.12.78a3.46,3.46,0,0,0-.09.77c0,.09.13.1.75.08H281V92.4Zm.89-6.12c0-.65,0-1.27,0-1.37-.12-.63-1.12-1.11-2-.94a1.55,1.55,0,0,0-.9.42c-.35.33-.36.38-.36,1.77a11.83,11.83,0,0,0,0,1.3,13.18,13.18,0,0,0,1.61,0l1.57,0V86.28Z"/></g><path id="path7476-2" class="cls-1" d="M280.27,89.18a1,1,0,0,0-.78.43.75.75,0,0,0-.12.5.66.66,0,0,0,.19.57,1,1,0,0,1,.19.33c0,.06-.06.4-.13.78a3.58,3.58,0,0,0-.09.78c0,.08.13.09.75.08l.71,0V92.4a6.91,6.91,0,0,0-.11-.84l-.11-.62.2-.24a.72.72,0,0,0,.19-.59.75.75,0,0,0-.12-.5,1,1,0,0,0-.77-.42Z"/></g><g id="g7520"><g id="g7522"><path id="path7524" class="cls-5" d="M275.4,165.26a.83.83,0,0,1-.46-.51,13.6,13.6,0,0,1-.08-2.91l0-2.67L275,159a.84.84,0,0,1,.73-.38l.32,0,0-1.36a7.36,7.36,0,0,1,.12-1.6,2.81,2.81,0,0,1,2.29-1.77,2.93,2.93,0,0,1,3.25,1.77,8.16,8.16,0,0,1,.12,1.6l0,1.36.32,0a.84.84,0,0,1,.73.38l.16.21,0,2.67c0,3,0,3-.38,3.32l-.21.16-3.51,0c-3.1,0-3.53,0-3.68-.08Zm4.34-1.79a7.26,7.26,0,0,0-.11-.85l-.11-.61.2-.25a.71.71,0,0,0,.2-.58.75.75,0,0,0-.12-.5.93.93,0,0,0-1.56,0,.75.75,0,0,0-.12.5.7.7,0,0,0,.19.57,1,1,0,0,1,.19.33s-.06.4-.13.78a3.23,3.23,0,0,0-.08.78c0,.08.13.09.74.08l.71,0v-.23Zm.89-6.11c0-.66,0-1.28,0-1.38-.11-.62-1.11-1.11-1.95-.94a1.53,1.53,0,0,0-.91.43c-.34.32-.35.37-.35,1.76a11.83,11.83,0,0,0,0,1.3,13.07,13.07,0,0,0,1.61,0l1.56,0,0-1.18Z"/></g><path id="path7526" class="cls-1" d="M279,160.26a1,1,0,0,0-.77.42.75.75,0,0,0-.12.5.68.68,0,0,0,.18.57.83.83,0,0,1,.19.33c0,.06-.05.41-.12.78a3.58,3.58,0,0,0-.09.78c0,.08.13.1.75.08h.71v-.24c0-.12-.06-.5-.12-.84l-.11-.62.2-.24a.7.7,0,0,0,.2-.59.75.75,0,0,0-.12-.5,1,1,0,0,0-.78-.42Z"/></g><g id="g5342"><circle id="path5124" class="cls-6" cx="49.5" cy="44.9" r="36.37" transform="translate(-2.41 2.81) rotate(-3.17)"/><g id="Ibiza_Symbols" data-name="Ibiza Symbols"><g id="g6"><path id="path8" class="cls-2" d="M65.9,27.65H32.8a2.09,2.09,0,0,0-2,2.1v23.1a2.09,2.09,0,0,0,2,2.1H44.1c1.2,4.3-.4,4.9-7.6,4.9v2.3H60.9v-2.3c-7.2,0-7.9-.6-6.7-4.9H65.9a2.37,2.37,0,0,0,2.3-2.1V29.75A2.37,2.37,0,0,0,65.9,27.65Zm-.6,2.8v21.6H33.6V30.45Z"/><g id="group975-1984"><g id="shape976-1985"><path id="path16" class="cls-2" d="M54.88,37.27,49.08,34l-5.8,3.3v.1l5.8,3.3,5.8-3.4Z"/></g><g id="shape977-1987"><path id="path21" class="cls-2" d="M49.71,41.62v6.6l5.8-3.3v-6.6Z"/></g><g id="shape978-1989"><path id="path26" class="cls-2" d="M48.51,41.62l-5.8-3.3v6.6l5.8,3.3Z"/></g></g></g></g></g><g id="g5377"><g id="g5360"><circle id="path5124-6" class="cls-6" cx="49.5" cy="156.53" r="36.37" transform="translate(-8.58 2.98) rotate(-3.17)"/><g id="g5199"><g id="g5201"><path id="path5203" class="cls-2" d="M65.9,139.28H32.8a2.09,2.09,0,0,0-2,2.1v23.1a2.09,2.09,0,0,0,2,2.1H44.1c1.2,4.3-.4,4.9-7.6,4.9v2.3H60.9v-2.3c-7.2,0-7.9-.6-6.7-4.9H65.9a2.37,2.37,0,0,0,2.3-2.1v-23.1A2.37,2.37,0,0,0,65.9,139.28Zm-.6,2.8v21.6H33.6v-21.6Z"/><g id="g5205"><g id="g5209"><path id="path5213" class="cls-2" d="M54.88,148.89l-5.8-3.3-5.8,3.3v.1l5.8,3.3,5.8-3.4Z"/></g><g id="g5215"><path id="path5219" class="cls-2" d="M49.71,153.25v6.6l5.8-3.3V150Z"/></g><g id="g5221"><path id="path5225" class="cls-2" d="M48.51,153.25l-5.8-3.3v6.6l5.8,3.3Z"/></g></g></g></g></g></g><path id="path5424" class="cls-7" d="M176.16,80.49,185.72,89l-12.8-.29A7.52,7.52,0,0,0,176.16,80.49Z"/><path id="path5397" class="cls-7" d="M184.48,88.53"/><path id="path5689" class="cls-7" d="M174.83,153l12,4.36-12,4.48A7.54,7.54,0,0,0,174.83,153Z"/><path id="path5685" class="cls-7" d="M185.54,157.42"/><rect id="rect6099" class="cls-6" x="191.94" y="61.07" width="80.81" height="49.5"/><rect id="rect6105" class="cls-8" x="191.98" y="129.68" width="80.72" height="58.69"/><path id="path7998" class="cls-9" d="M232.34,111.34v17.95"/></g></g><line class="cls-10" x1="90" y1="51.5" x2="177.14" y2="85.75"/><line class="cls-10" x1="90.5" y1="157.42" x2="177.83" y2="157.42"/></g><g id="Layer_3" data-name="Layer 3"><g id="text6101" class="cls-11"><text class="cls-12" transform="translate(219.84 73.13)">注文</text></g><g id="text6107" class="cls-11"><text class="cls-12" transform="translate(195.83 143.08)">注文品</text></g><g id="text5999" class="cls-11"><text class="cls-13" transform="translate(127.62 58.19)">更新</text></g><g id="text8292" class="cls-11"><text class="cls-13" transform="translate(30.41 98.57)">ノード <tspan x="29.03" y="0">1</tspan></text></g><g id="text8292-2" data-name="text8292" class="cls-11"><text class="cls-13" transform="translate(113.41 146.59)">更新</text></g><g id="text8292-3" data-name="text8292" class="cls-11"><text class="cls-13" transform="translate(105.82 183.55)">(ブロック)</text></g><g id="text8296" class="cls-11"><text class="cls-13" transform="translate(30.55 210.3)">ノード <tspan x="29.03" y="0">2</tspan></text></g></g></svg>