<svg id="Layer_2" data-name="Layer 2" xmlns="http://www.w3.org/2000/svg" viewBox="0 0 477.3 264.1"><defs><style>.cls-1,.cls-3{fill:none;stroke:#000;stroke-linecap:round;stroke-linejoin:round;}.cls-1{stroke-width:0.67px;}.cls-2{isolation:isolate;}.cls-3{stroke-width:0.33px;}.cls-4{fill:#fff;}</style></defs><title>OJ103614615</title><path id="path34" class="cls-1" d="M127.4,214.5c0-10.2,14.2-18.5,31.6-18.5s31.6,8.3,31.6,18.5S176.5,233,159,233s-31.6-8.2-31.6-18.5"/><path id="path48" class="cls-1" d="M267.9,56.7c0-14.5,17-26.3,38.1-26.3s38.1,11.8,38.1,26.3S327.1,83,306,83s-38.1-11.8-38.1-26.3"/><path id="path64" class="cls-1" d="M389.8,233c0-10.6,16.6-19.3,37-19.3s37,8.6,37,19.3-16.6,19.3-37,19.3-37-8.6-37-19.3"/><g class="cls-2"><path d="M402.8,229.7h-.7c-.2,0-.3.1-.4.1h-1a2.81,2.81,0,0,0-1.1.1.52.52,0,0,0-.2.4.9.9,0,0,1-.1.5c-.1.6-.2,1-.2,1.2h.1a3.22,3.22,0,0,0,.8-.1,3.44,3.44,0,0,1,.9-.1,5.76,5.76,0,0,1,1-.2c.4,0,.5.1.5.3a.37.37,0,0,1-.4.4,10.87,10.87,0,0,1-1.5.2c-.9.1-1.5.2-1.5.3s-.1.4-.2.8a3.44,3.44,0,0,0-.1.9h0q0,.15.3.3h.7l.8-.1a4.4,4.4,0,0,0,1-.2,3.22,3.22,0,0,1,.8-.1.37.37,0,0,1,.3.1c.1.1.2.2.2.3s0,.2-.1.2a3.73,3.73,0,0,1-1.2.2c-.4,0-1,.1-1.9.2a3.44,3.44,0,0,1-.9.1c-.3,0-.6,0-.6-.1s-.1-.2-.2-.4v-.1h0a.77.77,0,0,1,.1-.3,5,5,0,0,0,.3-1.2,9.32,9.32,0,0,0,.2-1.4.6.6,0,0,1,.1-.4,14.93,14.93,0,0,0,.2-1.7.31.31,0,0,0-.1-.2h0c0-.1,0-.1-.1-.2v-.1h0c0-.1,0-.1.1-.2a.31.31,0,0,1,.2-.1h.4a5.81,5.81,0,0,0,1-.1q.9-.15,2.1-.3h.3a.75.75,0,0,1,.5.1c.1.1.1.2.2.3s0,.2-.1.2S402.9,229.7,402.8,229.7Z"/><path d="M403.5,230.1v-.2a.37.37,0,0,1,.1-.3,5.53,5.53,0,0,1,.9-.1,8.08,8.08,0,0,0,1.6-.1,10.4,10.4,0,0,0,2.1-.3c.4,0,.7-.1,1-.1h.5c.2,0,.3,0,.3.1s.1.1.2.2a.35.35,0,0,0,.1.2c0,.2-.1.3-.2.3H409a4.48,4.48,0,0,0-1.1.1c-.4,0-.7.1-.7.2s-.1.7-.2,1.7-.2,1.8-.2,2.3a2.49,2.49,0,0,0,.1.8v.1a.37.37,0,0,1-.1.3c-.1.1-.2.2-.3.2a.52.52,0,0,1-.4-.2,2.53,2.53,0,0,1-.2-1.2,25.64,25.64,0,0,1,.4-3.7v-.2c0-.1-.1-.1-.2-.1a4.59,4.59,0,0,0-1,.1c-.5,0-.8.1-1.1.1S403.6,230.2,403.5,230.1Z"/><path d="M413.2,229.1v.5l.1.2.3.9c.1.3.2.6.3,1a13.77,13.77,0,0,0,.8,2,3.08,3.08,0,0,0,.8,1.2l.3.3c0,.1.1.1.1.2a.35.35,0,0,1-.4.4c-.4,0-.8-.6-1.4-1.8-.2-.5-.3-.7-.4-.7a4.4,4.4,0,0,0-.9.1c-.5.1-.9.2-1.3.3a1,1,0,0,1-.4.1c-.1,0-.1,0-.2-.1h-.1c-.1,0-.2.2-.4.6-.4.6-.6,1-.7,1.1s-.2.2-.3.2a.37.37,0,0,1-.3-.1c-.1-.1-.2-.2-.2-.3s.1-.2.2-.4.3-.5.6-1q.9-1.35,1.5-2.4a11.7,11.7,0,0,1,1.2-2.1c.2-.2.3-.3.4-.3S413.1,229,413.2,229.1Zm.3,3.5a12.25,12.25,0,0,1-.5-1.3c-.2-.7-.4-1.1-.4-1.2-.2.3-.4.8-.7,1.4l-.8,1.5a2,2,0,0,1,.5-.1.75.75,0,0,0,.5-.1C412.9,232.7,413.4,232.6,413.5,232.6Z"/><path d="M423.8,229.1v.5l.1.2.3.9c.1.3.2.6.3,1a13.77,13.77,0,0,0,.8,2,3.08,3.08,0,0,0,.8,1.2l.3.3c0,.1.1.1.1.2a.35.35,0,0,1-.4.4c-.4,0-.8-.6-1.4-1.8-.2-.5-.3-.7-.4-.7a4.4,4.4,0,0,0-.9.1c-.5.1-.9.2-1.3.3a1,1,0,0,1-.4.1c-.1,0-.1,0-.2-.1h-.1c-.1,0-.2.2-.4.6-.4.6-.6,1-.7,1.1s-.2.2-.3.2a.37.37,0,0,1-.3-.1c-.1-.1-.2-.2-.2-.3s.1-.2.2-.4.3-.5.6-1q.9-1.35,1.5-2.4a11.7,11.7,0,0,1,1.2-2.1c.2-.2.3-.3.4-.3S423.7,229,423.8,229.1Zm.3,3.5a12.25,12.25,0,0,1-.5-1.3c-.2-.7-.4-1.1-.4-1.2-.2.3-.4.8-.7,1.4l-.8,1.5a2,2,0,0,1,.5-.1.75.75,0,0,0,.5-.1C423.5,232.7,424,232.6,424.1,232.6Z"/><path d="M430.2,232c-.2,0-.3.1-.5.3a4.19,4.19,0,0,0-.8,1.3c-.5.9-.8,1.5-.9,1.6a.76.76,0,0,1-.4.2.47.47,0,0,1-.5-.5,1.76,1.76,0,0,1,.1-.6,12.74,12.74,0,0,0,.2-2.8.76.76,0,0,1,.1-.4c.1-.1.2-.2.3-.2s.3,0,.3.1a3.54,3.54,0,0,1,.1.6,10.53,10.53,0,0,1-.3,1.8,1.76,1.76,0,0,0-.1.6v.1s.2-.3.6-1a7.64,7.64,0,0,1,1-1.5,1.22,1.22,0,0,1,.9-.4.55.55,0,0,1,.6.4,2.83,2.83,0,0,1,.4,1.3c.1.7.2,1.2.2,1.4s.2.3.3.3a.37.37,0,0,0,.3-.1h.1a.22.22,0,0,1,.2.2.54.54,0,0,1-.3.4,1.42,1.42,0,0,1-.6.2.86.86,0,0,1-.6-.3,6.19,6.19,0,0,1-.3-1.6C430.7,232.5,430.5,232,430.2,232Z"/><path d="M436.2,233.8A3.4,3.4,0,0,1,435,235a3,3,0,0,1-1.1.4.86.86,0,0,1-.6-.3.84.84,0,0,1-.2-.7,4,4,0,0,1,1-2.5,2.75,2.75,0,0,1,2.1-1.3.51.51,0,0,1,.5.4c0,.1.1.1.2.1s.4.1.4.3v.4a7.74,7.74,0,0,0-.2,1.8c0,.7.1,1.1.4,1.3.1.1.2.2.2.3s-.1.2-.2.3-.2.1-.4.1-.4-.2-.6-.5A2.27,2.27,0,0,1,436.2,233.8Zm-.3-2.5c-.4,0-.8.4-1.3,1.1a3.44,3.44,0,0,0-.8,1.8c0,.3.1.5.3.5s.8-.3,1.3-1a3.39,3.39,0,0,0,.9-1.8C436.3,231.5,436.2,231.3,435.9,231.3Z"/><path d="M440,228c.2,0,.3.1.3.4a7,7,0,0,1-.4,1.7,10.62,10.62,0,0,0-.4,1.9,10.36,10.36,0,0,0-.1,1.6,6.15,6.15,0,0,0,.1,1.4v.2a.6.6,0,0,1-.1.4c-.1.1-.2.2-.3.2a.27.27,0,0,1-.3-.3,2.22,2.22,0,0,1-.1-.9,17.13,17.13,0,0,1,.4-3.6,6.35,6.35,0,0,1,.6-2.5C439.8,228.1,439.9,228,440,228Z"/><path d="M444.3,233.9a5.27,5.27,0,0,1-1.4,1,2.3,2.3,0,0,1-.9.3.75.75,0,0,1-.7-.4,1.08,1.08,0,0,1-.2-.8,6.09,6.09,0,0,1,.3-1.7,4.93,4.93,0,0,1,.4-1.2.52.52,0,0,1,.4-.2c.1,0,.1,0,.2.1a.5.5,0,0,1,0,.6c-.2.3-.2.4-.2.5a4.2,4.2,0,0,0-.2.5,2.92,2.92,0,0,0-.2.9,1.09,1.09,0,0,0,.1.5.27.27,0,0,0,.3.3,1.27,1.27,0,0,0,.6-.1,9.22,9.22,0,0,0,.8-.5,3.81,3.81,0,0,0,.6-.5.76.76,0,0,0,.2-.5c0-.2.1-.6.1-1.1s.2-.9.4-.9.3,0,.3.1a2,2,0,0,1,.1.5v.7c0,.4-.1.6-.1.8a9.86,9.86,0,0,1-.3,2.4,7.71,7.71,0,0,1-.7,2,1.56,1.56,0,0,1-1.3.8,2.46,2.46,0,0,1-1.5-.5c-.4-.3-.7-.6-.7-.8a.37.37,0,0,1,.1-.3c0-.1.1-.1.2-.1a.1.1,0,0,1,.1.1,2,2,0,0,0,1.8.9c.4,0,.8-.4,1.1-1.1a8,8,0,0,0,.5-2.1C444.3,234.1,444.3,234,444.3,233.9Z"/><path d="M448.6,234.4c0-.2-.2-.4-.7-.7a5.35,5.35,0,0,1-1.2-.7.86.86,0,0,1-.3-.6,1.51,1.51,0,0,1,.9-1.4,3,3,0,0,1,1.4-.6.75.75,0,0,1,.5.1.52.52,0,0,1,.2.4c0,.1,0,.2-.1.2s-.1.1-.2.1a.31.31,0,0,1-.2-.1.35.35,0,0,1-.2-.1,4.18,4.18,0,0,0-.9.3c-.4.2-.7.5-.7.7a.52.52,0,0,0,.2.4,5.76,5.76,0,0,0,.9.5,5.58,5.58,0,0,1,.8.5.86.86,0,0,1,.3.6c0,.4-.3.8-.9,1.1a3.92,3.92,0,0,1-1.8.4c-.5,0-.7-.2-.7-.5a.22.22,0,0,1,.2-.2.37.37,0,0,1,.3-.1h.5a3.55,3.55,0,0,0,1-.2C448.3,234.7,448.5,234.6,448.6,234.4Z"/><path d="M451.1,234.4a2.49,2.49,0,0,0,.1.8v.1c0,.1,0,.1-.1.2a.37.37,0,0,1-.3.1c-.3,0-.4-.3-.4-.8a18.48,18.48,0,0,1,.3-2.6,3.22,3.22,0,0,0,.1-.8.9.9,0,0,1,.1-.5c.1-.1.2-.2.3-.2a.6.6,0,0,1,.4.1.31.31,0,0,1,.1.2.49.49,0,0,1-.1.3,9.54,9.54,0,0,0-.4,1.7C451.2,233.4,451.1,234,451.1,234.4Zm.5-4.9c-.1,0-.1-.1-.1-.2v-.1a1.09,1.09,0,0,1-.1-.5c0-.1.1-.2.2-.4a.76.76,0,0,1,.5-.2.37.37,0,0,1,.3.1c.1.1.2.1.2.2a1.09,1.09,0,0,1-.1.5,2.19,2.19,0,0,1-.3.5A2.14,2.14,0,0,1,451.6,229.5Z"/><path d="M455,234.4c0-.2-.2-.4-.7-.7a5.35,5.35,0,0,1-1.2-.7.86.86,0,0,1-.3-.6,1.51,1.51,0,0,1,.9-1.4,3,3,0,0,1,1.4-.6.75.75,0,0,1,.5.1.52.52,0,0,1,.2.4c0,.1,0,.2-.1.2s-.1.1-.2.1a.31.31,0,0,1-.2-.1.35.35,0,0,1-.2-.1,4.18,4.18,0,0,0-.9.3c-.4.2-.7.5-.7.7a.52.52,0,0,0,.2.4,5.76,5.76,0,0,0,.9.5,5.58,5.58,0,0,1,.8.5.86.86,0,0,1,.3.6c0,.4-.3.8-.9,1.1a3.92,3.92,0,0,1-1.8.4c-.5,0-.7-.2-.7-.5a.22.22,0,0,1,.2-.2.37.37,0,0,1,.3-.1h.5a3.55,3.55,0,0,0,1-.2C454.7,234.7,454.9,234.6,455,234.4Z"/></g><path id="path78" class="cls-1" d="M18.4,44.4c0-11.1,13.1-20.2,29.2-20.2s29.2,9,29.2,20.2S63.7,64.6,47.6,64.6,18.4,55.5,18.4,44.4"/><path id="path92" class="cls-1" d="M388.1,32.2c0-11.3,18.8-20.5,42-20.5s42,9.2,42,20.5-18.8,20.5-42,20.5-42-9.2-42-20.5"/><path id="path108" class="cls-1" d="M7.4,175.5c0-11.1,13-20.2,29.1-20.2s29.1,9,29.1,20.2-13,20.2-29.1,20.2S7.4,186.6,7.4,175.5"/><path id="path122" class="cls-1" d="M295.5,140.6c0-9.9,15.6-18,34.9-18s34.9,8,34.9,18-15.6,18-34.9,18-34.9-8-34.9-18"/><path id="path150" class="cls-1" d="M405.1,105.7c0-12.6,13-22.8,28.9-22.8s28.9,10.2,28.9,22.8S450,128.5,434,128.5s-28.9-10.2-28.9-22.8"/><path id="path166" class="cls-1" d="M257.4,243.6c0-10.5,16-19,35.8-19s35.8,8.5,35.8,19-16,19-35.8,19-35.8-8.5-35.8-19"/><path id="path175" class="cls-1" d="M93.7,32.9c0-11.7,18.2-21.2,40.6-21.2S175,21.2,175,32.9s-18.2,21.2-40.7,21.2S93.7,44.6,93.7,32.9"/><g id="shape52-83"><path id="path198" class="cls-3" d="M183.59,141.69l-24.3,54.5"/></g><g id="shape58-89"><path id="path208" class="cls-3" d="M421.48,212.83l-84.7-140.6"/></g><path id="path220" class="cls-1" d="M13.4,241.4c0-11,16.6-20,37.2-20s37.2,9,37.2,20-16.6,20-37.2,20-37.2-8.9-37.2-20"/><g id="shape63-98"><path id="path227" class="cls-3" d="M237.49,96.87l34.9-25.1"/></g><g id="shape65-101"><path id="path232" class="cls-3" d="M342.67,62.75l62.4,43.1"/></g><g id="shape67-104"><path id="path237" class="cls-3" d="M333.48,37.72l54.8-8"/></g><g id="shape70-107"><path id="path242" class="cls-3" d="M83.19,97.16l86.3,23"/></g><g id="shape73-110"><path id="path247" class="cls-3" d="M74.5,111.46l62.3,90.2"/></g><g id="shape76-113"><path id="path252" class="cls-3" d="M181.46,227.66l75.9,16.1"/></g><g id="shape77-116"><path id="path257" class="cls-3" d="M217.73,149.2l55.9,78.5"/></g><g id="shape78-119"><path id="path262" class="cls-3" d="M295.68,140.18l-46.5-20"/></g><g id="shape79-122"><path id="path267" class="cls-3" d="M127.72,214.75l-61-28.6"/></g><g id="shape80-125"><path id="path272" class="cls-3" d="M136.79,227.7l-49,13.7"/></g><g id="shape81-128"><path id="path277" class="cls-3" d="M181.2,96.76l-107.9-42"/></g><g id="shape82-131"><path id="path282" class="cls-3" d="M310,82.94l4.7,40"/></g><g id="shape94-134"><path id="path287" class="cls-4" d="M308.56,108.29h-.3V107c0-.1.1,0,.1,0h.2v.1l.1,1.1h0c0,.1,0,.1-.1.1Z"/></g><g id="shape96-136"><path id="path292" class="cls-3" d="M270.48,28.26l8.9,8.5"/></g><g id="shape97-139"><path id="path297" class="cls-3" d="M175.17,36.36l92.3,16.1"/></g><path id="path78-2" data-name="path78" class="cls-1" d="M24.6,97c0-11.1,13.1-20.2,29.2-20.2S83,85.8,83,97s-13.1,20.2-29.2,20.2S24.6,108.1,24.6,97"/><path id="path175-2" data-name="path175" class="cls-1" d="M201.1,17.8c0-8.7,17.4-15.9,38.8-15.9S278.7,9,278.7,17.8s-17.4,15.9-38.8,15.9-38.8-7.1-38.8-15.9"/><path id="path78-3" data-name="path78" class="cls-1" d="M170.2,119.2c0-16.5,17.5-30,38.9-30,21.6,0,38.9,13.4,38.9,30s-17.5,30-38.9,30c-21.4-.2-38.9-13.5-38.9-30"/><path d="M125.94,27.38V29.3c0,.43.13.67.38.71a6.54,6.54,0,0,0,1.32.1c.6,0,1.27,0,2-.11v.67c-.79,0-1.52.07-2.16.07a7.17,7.17,0,0,1-1.57-.13c-.43-.1-.65-.46-.65-1.1V23.66h.69v3.09a10.34,10.34,0,0,0,2.91-1.91l.46.55A12.56,12.56,0,0,1,125.94,27.38Zm2.44-4.22.45-.18a10.71,10.71,0,0,1,.67,1.52l-.49.2A8.93,8.93,0,0,0,128.38,23.16Zm1-.3.45-.16a7.39,7.39,0,0,1,.64,1.47l-.47.19A9.07,9.07,0,0,0,129.39,22.86Z"/><path d="M133.57,26.36h-2.76v-.58h5.71v.58h-2.26a15,15,0,0,1-.09,1.66,3.2,3.2,0,0,1-.21.85,4,4,0,0,1-2.16,2.07l-.45-.5a3.31,3.31,0,0,0,2-1.82A7.28,7.28,0,0,0,133.57,26.36Zm-2.23-2.55h3.85v.6h-3.85Zm3.91-.66.46-.18a9,9,0,0,1,.67,1.52l-.49.2A8.1,8.1,0,0,0,135.25,23.15Zm1-.31.45-.16a7.25,7.25,0,0,1,.64,1.48l-.47.19A8.86,8.86,0,0,0,136.26,22.84Z"/><path d="M141.37,26l-.34.79a10,10,0,0,1-3,3.27l-.43-.48a9.59,9.59,0,0,0,3.26-4h-3V25h3.38l-.06-1.59h.69l.06,1.59h1.71v.6H142l.21,5.36h-.68l-.15-3.81Z"/><path d="M133.88,41.68a.06.06,0,0,1-.07.07l-1.16,0h-5.56l-1.16,0a.06.06,0,0,1-.07-.07v-.36a.06.06,0,0,1,.07-.07l1,0V39.11s0-.06.07-.06h5.68s.07,0,.07.06l0,.78v1.38l1.08,0a.06.06,0,0,1,.07.07ZM130,38.39s0,.07-.07.07h-3.45c-.05,0-.07,0-.07-.07l0-1v-2l0-1.06c0-.05,0-.07.07-.07l1.1,0h1.31l1,0c.05,0,.07,0,.07.07v.34s0,.07-.07.07h-1.35v.81h.12l.95,0a.07.07,0,0,1,.08.07l0,.53v.38l0,.54c0,.05,0,.07-.08.07h-1.08V38H129l.93,0s.07,0,.07.07Zm-1.92-2.84v-.81H127v.81Zm1.12,1.15V36H127v.75ZM128.1,38v-.89H127V38Zm.57,3.27V39.53h-1.18v1.74Zm1.72,0V39.53h-1.2v1.74Zm3.32-5.57s0,.07-.07.07l-1,0h-1.6a4.61,4.61,0,0,1-.63.87c-.05.07-.09.1-.12.1a.33.33,0,0,1-.14-.07,1.26,1.26,0,0,0-.33-.15,5.38,5.38,0,0,0,1.27-2.06,4.14,4.14,0,0,0,.12-.53c.19,0,.36.09.49.13s.12.07.12.11a.23.23,0,0,1-.08.14,1.16,1.16,0,0,0-.12.25,7.71,7.71,0,0,1-.31.72h2.31c.05,0,.07,0,.07.07Zm-.29,1.94s0,.07-.07.07l-.87,0h-.94l-.87,0s-.07,0-.07-.07v-.39s0-.07.07-.07l.87,0h.94l.87,0c.05,0,.07,0,.07.07Zm-1.23,3.63V39.53H130.9v1.74Z"/><path d="M138.06,38.64a1.06,1.06,0,0,0-.26.33c0,.06-.06.08-.09.08a.26.26,0,0,1-.12-.07,5.64,5.64,0,0,1-.88-1v3.92a.06.06,0,0,1-.07.07h-.4c-.05,0-.08,0-.08-.07l0-1.23V38.33a9.44,9.44,0,0,1-1.11,1.05.3.3,0,0,1-.14.07s-.05,0-.08-.09a1.23,1.23,0,0,0-.21-.37,7.22,7.22,0,0,0,2.54-3.08H136l-.9,0a.07.07,0,0,1-.07-.07v-.37a.07.07,0,0,1,.07-.08l.9,0h.24v-.52a4.81,4.81,0,0,0-.08-1,3.3,3.3,0,0,1,.6.07c.07,0,.11,0,.11.07a.68.68,0,0,1,0,.17,2.42,2.42,0,0,0-.06.7v.53h.56a.28.28,0,0,0,.15,0h0l.05,0a.54.54,0,0,1,.25.16c.1.11.15.17.15.21a.17.17,0,0,1-.07.14.43.43,0,0,0-.18.25,10.26,10.26,0,0,1-.82,1.4A5.43,5.43,0,0,0,138.06,38.64Zm4.92,2a1.5,1.5,0,0,1-.37,1,1.47,1.47,0,0,1-.89.21,2.66,2.66,0,0,1-.83-.09c-.19-.08-.29-.26-.29-.56V39.14h-.71a3.25,3.25,0,0,1-.75,1.92,3.72,3.72,0,0,1-1.45.84l-.14,0s-.08,0-.13-.13a.75.75,0,0,0-.28-.28,3.35,3.35,0,0,0,1.64-.86,2.47,2.47,0,0,0,.57-1.53h-1a.07.07,0,0,1-.07-.07l0-1.1V35.52l0-1.1a.06.06,0,0,1,.07-.07h3.84c.05,0,.07,0,.07.07l0,1.1V38l0,1.1a.06.06,0,0,1-.07.07l-1.1,0V41a.72.72,0,0,0,0,.26c0,.05.05.08.11.1a2.24,2.24,0,0,0,.47,0,.93.93,0,0,0,.52-.11.65.65,0,0,0,.18-.38,4,4,0,0,0,.06-.65,1.13,1.13,0,0,0,.35.21c.1,0,.14.08.14.13A.39.39,0,0,1,143,40.64Zm-1.22-4.84v-.95h-2.91v.95Zm0,1.41v-1h-2.91v1Zm0,1.47v-1h-2.91v1Z"/><path d="M47.15,45.29a1.9,1.9,0,0,0-.27.76c0,.17-.05.27-.09.29a.61.61,0,0,1-.28,0c-1.21.07-2.37.1-3.5.1a6.56,6.56,0,0,1-2.34-.29,2,2,0,0,1-1-.89,9.74,9.74,0,0,1-1,.88,1.24,1.24,0,0,0-.2.2c-.05.07-.09.1-.15.1s-.1,0-.14-.13a8.3,8.3,0,0,1-.41-.94,3.9,3.9,0,0,0,.59-.31,5.86,5.86,0,0,0,.84-.64V42.25h-.48l-.73,0c-.06,0-.09,0-.1,0a.19.19,0,0,1,0-.1v-.76a.14.14,0,0,1,0-.09l.1,0,.73,0h.62l.75,0,.1,0a.2.2,0,0,1,0,.09l0,1v2.13a1.67,1.67,0,0,0,.83.83,5.6,5.6,0,0,0,1.85.21A42,42,0,0,0,47.15,45.29Zm-8.22-7.42a8.06,8.06,0,0,1,1.35,1.53.21.21,0,0,1,0,.09s0,.06-.1.11l-.56.43a.32.32,0,0,1-.13.07s0,0-.09-.07a9.28,9.28,0,0,0-1.32-1.6.15.15,0,0,1-.05-.08s0-.06.09-.1l.54-.37a.28.28,0,0,1,.13-.06A.21.21,0,0,1,38.93,37.87Zm8,6.23a3.07,3.07,0,0,0-.37.72c-.06.17-.12.25-.2.25a.67.67,0,0,1-.21-.07,7.58,7.58,0,0,1-1.89-1.14A7.37,7.37,0,0,1,42.58,45a.77.77,0,0,1-.24.1s-.11-.08-.2-.23a1.69,1.69,0,0,0-.48-.55,6.66,6.66,0,0,0,1.93-1.15A6,6,0,0,1,42.41,41h-.18a11.81,11.81,0,0,1-.14,1.54,5.69,5.69,0,0,1-.85,2.29c-.07.13-.13.19-.17.19s-.11-.06-.19-.18a2,2,0,0,0-.55-.54,4.83,4.83,0,0,0,.82-2.13,15.37,15.37,0,0,0,.13-2.45l0-1.58a.19.19,0,0,1,0-.1.17.17,0,0,1,.09,0l1.34,0h2.62l1.32,0c.06,0,.09,0,.1,0s0,0,0,.09v.74a.09.09,0,0,1-.11.11l-1.32,0H42.25v1.14h3a.37.37,0,0,0,.21,0,.38.38,0,0,1,.13,0c.09,0,.23.1.42.28s.27.31.27.38a.24.24,0,0,1-.09.17,1.58,1.58,0,0,0-.19.36A8.28,8.28,0,0,1,45,43.11,7.77,7.77,0,0,0,47,44.1ZM45.07,41H43.31a5,5,0,0,0,.93,1.53A6.17,6.17,0,0,0,45.07,41Z"/><path d="M49.25,42.3l-1.28,0s-.09,0-.1,0,0,0,0-.09v-.75a.09.09,0,0,1,.11-.11l1.28,0h.66V40h-.34l-1.18,0-.1,0a.25.25,0,0,1,0-.1V39.2a.19.19,0,0,1,0-.1h.09l1.18,0h.34v-.39a7.53,7.53,0,0,0-.07-1.15l1,.07c.11,0,.16,0,.16.1a.52.52,0,0,1,0,.11.41.41,0,0,1,0,.09,3.17,3.17,0,0,0-.06.77v.4h.36l1.18,0,.1,0s0,0,0,.09v.72a.23.23,0,0,1,0,.11h-.09l-1.18,0h-.36v1.35h.55l1.26,0s.09,0,.09,0a.14.14,0,0,1,0,.09v.75a.16.16,0,0,1,0,.1h-.09l-1.26,0h-.83a23.74,23.74,0,0,1-.78,2.26c.55-.09,1.08-.19,1.58-.32-.14-.27-.29-.55-.46-.84a.16.16,0,0,1,0-.08s0-.06.11-.1l.59-.25.1,0s.05,0,.08.07A11.51,11.51,0,0,1,53,45.35a.45.45,0,0,1,0,.08s0,.08-.12.12l-.62.27a.31.31,0,0,1-.12,0s-.06,0-.08-.09c-.12-.35-.21-.6-.26-.73-1.09.29-2.1.52-3,.69a1.86,1.86,0,0,0-.42.14.29.29,0,0,1-.15.06s-.1,0-.14-.15a7.16,7.16,0,0,1-.24-1,8.66,8.66,0,0,0,.89-.07,18,18,0,0,0,.86-2.44Zm5.24,1.77a5.14,5.14,0,0,0,.71,0,.34.34,0,0,0,.29-.1.56.56,0,0,0,.08-.34V39H54.25v5.76l0,1.8c0,.07,0,.1-.11.1h-.82c-.07,0-.11,0-.11-.1l0-2v-4.3l0-2a.19.19,0,0,1,0-.1.14.14,0,0,1,.09,0l1,0h1.15l1,0c.05,0,.09,0,.1,0s0,0,0,.09l0,1.61v2.35l0,1.71a1.35,1.35,0,0,1-.26.95.85.85,0,0,1-.45.26,3.75,3.75,0,0,1-.79.06c-.16,0-.26,0-.29,0a.79.79,0,0,1-.07-.28A2.14,2.14,0,0,0,54.49,44.07Z"/><path d="M36.1,92.81c0,.07,0,.1-.09.1l-1.15,0H33.61l-1.15,0c-.06,0-.09,0-.09-.1v-.46s0-.08.09-.08l1.15,0h1.25l1.15,0c.06,0,.09,0,.09.08Zm-.31,7.06a.08.08,0,0,1-.09.09h-.45a.08.08,0,0,1-.09-.09v-.36H33.48v.55c0,.06,0,.09-.08.09H33c-.07,0-.1,0-.1-.09l0-1.61v-.67l0-1s0-.08.09-.08l1,0h.81l1,0a.07.07,0,0,1,.08.08l0,.79v.71Zm.05-8.58a.08.08,0,0,1-.09.09l-1,0h-.86l-1,0a.08.08,0,0,1-.09-.09v-.44a.08.08,0,0,1,.09-.09l1,0h.86l1,0a.08.08,0,0,1,.09.09Zm-.16,3c0,.06,0,.09-.1.09l-.9,0h-.74l-.91,0a.08.08,0,0,1-.09-.09v-.43c0-.05,0-.08.09-.08l.91,0h.74l.9,0c.07,0,.1,0,.1.08Zm0,1.46c0,.07,0,.1-.1.1l-.9,0h-.74l-.91,0c-.06,0-.09,0-.09-.1v-.43s0-.08.09-.08l.91,0h.74l.9,0c.07,0,.1,0,.1.08ZM35.16,99V97.3H33.48V99Zm7-4.59c0,.05,0,.07-.08.07l-1.49,0H37.69l-1.49,0c-.06,0-.09,0-.09-.07V94c0-.06,0-.08.09-.08l1.49,0h1v-.78H38.1l-1.32,0a.08.08,0,0,1-.09-.09v-.36a.08.08,0,0,1,.09-.09l1.32,0h.56V91.9h-.74l-1.4,0c-.06,0-.09,0-.09-.08v-.39c0-.06,0-.08.09-.08l1.4,0h.74a8,8,0,0,0-.07-1.21c.31,0,.55,0,.7,0s.13,0,.13.1a.66.66,0,0,1-.06.22,2.78,2.78,0,0,0-.07.84h1l1.42,0c.06,0,.09,0,.09.08v.39c0,.06,0,.08-.09.08l-1.42,0h-1v.74H40l1.31,0c.07,0,.1,0,.1.09v.36c0,.06,0,.09-.1.09l-1.31,0h-.68v.78H40.6l1.49,0c.06,0,.08,0,.08.08Zm-.91.79,0,1.29v2.66a.91.91,0,0,1-.23.73,1.71,1.71,0,0,1-1,.2h-.13a.42.42,0,0,1-.21,0,.51.51,0,0,1-.08-.18,1.37,1.37,0,0,0-.23-.43l.75,0a.56.56,0,0,0,.41-.11.52.52,0,0,0,.06-.3v-.79h-3.2v.42l0,1.41s0,.07-.09.07h-.47c-.06,0-.09,0-.09-.07l0-1.39V96.4l0-1.23a.08.08,0,0,1,.09-.09l1.3,0h1.7l1.28,0A.08.08,0,0,1,41.26,95.17Zm-.63,1.24v-.78h-3.2v.78Zm0,1.3v-.78h-3.2v.78Z"/><path d="M53.09,98.65a1.59,1.59,0,0,0-.39.43c-.06.09-.11.14-.14.14a.54.54,0,0,1-.15-.08A8.89,8.89,0,0,1,48.46,94c0,2.79.07,4.46.07,5a.87.87,0,0,1-.38.83,3.64,3.64,0,0,1-1.34.18c-.1,0-.17,0-.19,0a.58.58,0,0,1-.07-.18,1.52,1.52,0,0,0-.25-.51c.35,0,.61,0,.79,0a1,1,0,0,0,.61-.11.5.5,0,0,0,.14-.41V93.06H45.07l-1.46,0s-.08,0-.08-.08v-.49c0-.06,0-.09.08-.09l1.46,0h2.77v-.84a7.48,7.48,0,0,0-.08-1.32,5.17,5.17,0,0,1,.74.07c.08,0,.12,0,.12.08a.53.53,0,0,1-.06.23,5.06,5.06,0,0,0-.05.93v.85h2.83l1.46,0a.08.08,0,0,1,.09.09V93c0,.06,0,.08-.09.08l-1.46,0H48.6a10.06,10.06,0,0,0,1.1,2.49,9.37,9.37,0,0,0,1.42-1.47,1.53,1.53,0,0,0,.29-.5A2.67,2.67,0,0,1,52,94a.2.2,0,0,1,.09.15s0,.09-.12.14a2.32,2.32,0,0,0-.51.45A11.88,11.88,0,0,1,50,96.05,8.84,8.84,0,0,0,53.09,98.65ZM47.24,96.6a1.16,1.16,0,0,1,0,.16s-.05.12-.16.2a24.26,24.26,0,0,1-2.53,1.55,1.38,1.38,0,0,0-.38.24.25.25,0,0,1-.15.09s-.08,0-.13-.11a5.59,5.59,0,0,1-.3-.6,6.29,6.29,0,0,0,.81-.33,19.06,19.06,0,0,0,2.77-1.65A2,2,0,0,0,47.24,96.6Zm-.76-1.4a.11.11,0,0,1,0,.06.16.16,0,0,1-.07.1l-.29.28c-.07.06-.11.1-.13.1s0,0-.05,0a6,6,0,0,0-1.34-1.5s-.05,0-.05-.07,0-.05.1-.11l.24-.23a.2.2,0,0,1,.11-.07l.06,0A7.22,7.22,0,0,1,46.48,95.2Zm5.21-3.61a.05.05,0,0,1,0,0s0,.08-.11.13L51.4,92c-.07.07-.12.1-.15.1s0,0-.07,0a5.13,5.13,0,0,0-1.29-1.11s-.06,0-.06-.06,0-.06.09-.11l.23-.2a.21.21,0,0,1,.09-.05l.07,0A6.4,6.4,0,0,1,51.69,91.59Z"/><path d="M64.36,98.91a1.19,1.19,0,0,0-.2.5.47.47,0,0,1-.07.21.38.38,0,0,1-.2,0q-.78.06-2.25.06a5.65,5.65,0,0,1-4-1.31,4.83,4.83,0,0,1-.69-.78,9.56,9.56,0,0,1-2.13,2.31.37.37,0,0,1-.16.09s-.08,0-.15-.15a1,1,0,0,0-.34-.35A8.44,8.44,0,0,0,56.59,97a8.93,8.93,0,0,1-.87-2.74,11.32,11.32,0,0,1-1,1.72q-.07.12-.12.12s-.06,0-.11-.12a1.42,1.42,0,0,0-.33-.39,8.7,8.7,0,0,0,1.31-2.42A14.31,14.31,0,0,0,56,91.06a3.65,3.65,0,0,0,.08-.73v-.11a5.38,5.38,0,0,1,.66.15c.09,0,.13.07.13.13a.27.27,0,0,1-.06.14,1.46,1.46,0,0,0-.17.47q-.13.65-.24,1.08h1.27a.94.94,0,0,0,.35,0,.33.33,0,0,1,.14-.05q.09,0,.3.21c.13.12.19.21.19.27a.2.2,0,0,1,0,.14,1.08,1.08,0,0,0-.11.45,12.15,12.15,0,0,1-1.23,3.91,3.37,3.37,0,0,0,.59.7,4.19,4.19,0,0,0,1.86,1,8.22,8.22,0,0,0,2,.22A24.66,24.66,0,0,0,64.36,98.91Zm-6.45-6.12H56.27l-.16.5a11.57,11.57,0,0,0,.81,3.12A10.29,10.29,0,0,0,57.91,92.79Zm6.3,3a7.29,7.29,0,0,1-.13,1.32.76.76,0,0,1-.22.4,1.25,1.25,0,0,1-.85.24,1.74,1.74,0,0,1-.82-.12c-.21-.11-.31-.37-.31-.79V91.56H60.43a20.14,20.14,0,0,1-.26,3.9,5,5,0,0,1-1.08,2.21c-.07.08-.12.12-.14.12a.34.34,0,0,1-.16-.11,1.23,1.23,0,0,0-.41-.26,4.48,4.48,0,0,0,1.19-2.35,19.19,19.19,0,0,0,.21-3.36l0-.67c0-.06,0-.09.08-.09l.9,0h.81l.9,0a.08.08,0,0,1,.09.09l0,1.47v4.15c0,.24,0,.38.08.42a.87.87,0,0,0,.39.06.56.56,0,0,0,.47-.18,4.54,4.54,0,0,0,.17-1.7,1.73,1.73,0,0,0,.43.23c.1,0,.16.1.16.18A.63.63,0,0,0,64.21,95.78Z"/><path d="M68.81,96.39a2.58,2.58,0,0,0,0,.42.59.59,0,0,1,0,.11c0,.09-.06.16-.18.24a22.1,22.1,0,0,1-2.46,1.14,1.43,1.43,0,0,0-.39.18.29.29,0,0,1-.15.06s-.08,0-.11-.1a3.59,3.59,0,0,1-.19-.63,5.31,5.31,0,0,0,1-.27l.47-.18V94.61h-.18l-1,0s-.08,0-.08-.09v-.47a.07.07,0,0,1,.08-.08l1,0h.18V91.67h-.25l-1.07,0s-.08,0-.08-.09v-.48a.07.07,0,0,1,.08-.08l1.07,0h1.12l1.06,0a.07.07,0,0,1,.08.08v.48c0,.06,0,.09-.08.09l-1.06,0h-.22V94h.12l1,0a.07.07,0,0,1,.08.08v.47c0,.06,0,.09-.08.09l-1,0h-.12v2.48A13.66,13.66,0,0,0,68.81,96.39Zm6.48,3.1a.07.07,0,0,1-.08.08l-1.56,0h-4l-1.56,0c-.06,0-.09,0-.09-.08V99a.08.08,0,0,1,.09-.09l1.56,0H71.5V97.5h-.84l-1.45,0c-.06,0-.08,0-.08-.09V97s0-.08.08-.08l1.45,0h.84V95.65h-.84l-1.45,0c-.06,0-.1,0-.1-.08l0-1.21V92.16l0-1.19c0-.06,0-.09.1-.09l1.45,0h2.43l1.45,0a.08.08,0,0,1,.09.09l0,1.19v2.22l0,1.21s0,.08-.09.08l-1.45,0h-1V96.9h1l1.44,0c.06,0,.09,0,.09.08v.48a.08.08,0,0,1-.09.09l-1.44,0h-1v1.43h1.51l1.56,0c.05,0,.08,0,.08.09ZM71.5,93v-1.5H69.76V93Zm0,2.1V93.52H69.76v1.55ZM74,93v-1.5H72.14V93Zm0,2.1V93.52H72.14v1.55Z"/><path d="M20.05,176.61v-6.44h4.7v6.44Zm4-.61v-5.22H20.74V176Z"/><path d="M28,172.24a20.92,20.92,0,0,1-2.53,1.69l-.37-.52a16.08,16.08,0,0,0,2.81-1.93,12.92,12.92,0,0,0,2-2.1l.59.37a14.75,14.75,0,0,1-1.8,1.92V177H28Z"/><path d="M33.13,171.19l3.47-.67.32.4a10,10,0,0,1-1.51,3.29l-.58-.35a7.74,7.74,0,0,0,1.26-2.64l-2.84.55,1.1,5.19-.66.13-1.11-5.19-1.91.38-.13-.58,1.91-.37-.38-1.81.68-.12Z"/><path d="M38.25,169.74v4.41h-.7v-4.41ZM38,176.49a3.6,3.6,0,0,0,2.23-1.16A3.93,3.93,0,0,0,40.8,173v-3.28h.69v3.37a4.06,4.06,0,0,1-.87,2.87,4.46,4.46,0,0,1-2.3,1.1Z"/><path d="M44.93,172.47H42.17v-.59h5.71v.59H45.62a14.9,14.9,0,0,1-.09,1.65,3.19,3.19,0,0,1-.21.86,4,4,0,0,1-2.16,2.07l-.44-.51a3.36,3.36,0,0,0,2-1.81A7.77,7.77,0,0,0,44.93,172.47Zm-2.23-2.55h4.67v.59H42.7Z"/><path d="M49.68,173.29a18.66,18.66,0,0,1-2.11,1.26l-.38-.52a11.5,11.5,0,0,0,4.13-3.19l.55.41a11.06,11.06,0,0,1-1.53,1.53V177h-.66Z"/><path d="M30.19,242.06H32v.6H25.5v-.6h4l.41-5.11H26.22v-.6h4.43Z"/><path d="M32.52,239.07h4.89v.67H32.52Z"/><path d="M40.12,237.43h2.26v-1.66h.68v1.66H44.5v.6H43.06v.64a4.7,4.7,0,0,1-1,3.24,4.74,4.74,0,0,1-2.45,1.25l-.37-.52a3.93,3.93,0,0,0,2.42-1.26,4.35,4.35,0,0,0,.67-2.63V238H40.12v2.35h-.68V238H38.07v-.6h1.37v-1.82h.68Zm3-2.22.46-.14a9.24,9.24,0,0,1,.55,1.57l-.49.15A9.74,9.74,0,0,0,43.14,235.21Zm1-.22.47-.13a6.9,6.9,0,0,1,.51,1.52l-.47.15A8.14,8.14,0,0,0,44.11,235Z"/><path d="M45.44,239.07h4.9v.67h-4.9Z"/><path d="M54.61,236.88a14,14,0,0,1-1,4.73,1.34,1.34,0,0,1-1.22.95,1.11,1.11,0,0,1-1-.68,3.8,3.8,0,0,1-.34-1.79,4.82,4.82,0,0,1,.29-1.68A3.19,3.19,0,0,1,52,237.3a3.07,3.07,0,0,1,1.1-.73,3.66,3.66,0,0,1,1.27-.23,2.65,2.65,0,0,1,2.28,1,4,4,0,0,1,.62,2.45,3.27,3.27,0,0,1-.72,2.18,3.6,3.6,0,0,1-2.1,1.15l-.31-.54a2.73,2.73,0,0,0,2.46-3,3,3,0,0,0-.66-2.13A1.83,1.83,0,0,0,54.61,236.88Zm-.67.07a1.89,1.89,0,0,0-.83.26,3,3,0,0,0-.69.59,3.4,3.4,0,0,0-.73,2.31,2.89,2.89,0,0,0,.26,1.36c.14.27.3.4.48.4a.53.53,0,0,0,.4-.17,1.49,1.49,0,0,0,.29-.49A12.66,12.66,0,0,0,53.94,237Z"/><path d="M61.37,237.38c0,.05,0,.07-.07.07H58.43s-.06,0-.06-.07V237c0-.05,0-.07.06-.07l.93,0h1l.93,0c.05,0,.07,0,.07.07Zm-.2-1.21c0,.05,0,.07-.07.07H58.83a.06.06,0,0,1-.07-.07v-.36a.07.07,0,0,1,.07-.07l.79,0h.7l.78,0a.06.06,0,0,1,.07.07ZM61.12,243c0,.05,0,.08-.07.08h-.36s-.07,0-.07-.08v-.28H59.28v.45a.07.07,0,0,1-.07.08h-.36c-.06,0-.09,0-.09-.08l0-1.24v-.54l0-.8s0-.06.08-.06l.77,0h.66l.78,0c.05,0,.07,0,.07.06l0,.65v.55ZM61,238.56a.06.06,0,0,1-.07.07l-.73,0h-.6l-.73,0s-.08,0-.08-.07v-.35c0-.05,0-.07.08-.07l.73,0h.6l.73,0a.06.06,0,0,1,.07.07Zm0,1.19a.07.07,0,0,1-.07.07l-.73,0h-.6l-.73,0a.07.07,0,0,1-.08-.07v-.35c0-.05,0-.07.08-.07H61a.06.06,0,0,1,.07.07Zm-.42,2.54V241H59.28v1.29Zm5.82-2.12c0,.05,0,.07-.07.07H64.15v3.1s0,.07-.07.07h-.43s-.07,0-.07-.07v-3.1H61.53a.06.06,0,0,1-.07-.07v-.4a.07.07,0,0,1,.07-.07l1.23,0h.84v-3.45H61.78c-.05,0-.07,0-.07-.07v-.38c0-.05,0-.07.07-.07l1.16,0h2l1.19,0a.06.06,0,0,1,.07.07v.38a.06.06,0,0,1-.07.07h-2v3.45h1l1.23,0a.06.06,0,0,1,.07.07ZM63,238.75a.08.08,0,0,1,0,0s0,.06-.11.09l-.22.09-.12,0s0,0,0,0a9.69,9.69,0,0,0-.65-1.85.08.08,0,0,1,0,0s0,0,.1-.08l.22-.09.09,0s0,0,.06.06A8.35,8.35,0,0,1,63,238.75Zm3.1-1.58a.14.14,0,0,1,0,.09.56.56,0,0,0-.12.2,12.16,12.16,0,0,1-.69,1.54q-.06.12-.09.12l-.14-.07a1,1,0,0,0-.3-.1,9.58,9.58,0,0,0,.72-1.66,1.73,1.73,0,0,0,.09-.4,3.14,3.14,0,0,1,.5.19C66,237.1,66.05,237.13,66.05,237.17Z"/><path d="M69.54,235.57a.17.17,0,0,1-.08.13.93.93,0,0,0-.17.34,13.82,13.82,0,0,1-.61,1.47V242l0,1.4a.06.06,0,0,1-.07.07H68.2s-.07,0-.07-.07l0-1.4v-2.2c0-.29,0-.73,0-1.33a11.68,11.68,0,0,1-.74,1c0,.06-.08.09-.11.09s0,0-.08-.1a1,1,0,0,0-.22-.37,9.72,9.72,0,0,0,1.75-3.21,3.13,3.13,0,0,0,.12-.6,2.36,2.36,0,0,1,.55.18C69.5,235.49,69.54,235.53,69.54,235.57Zm5.85.94a.07.07,0,0,1-.08.07l-1.26,0h-.68v1.67h.33l1.27,0s.07,0,.07.07v4.85c0,.05,0,.08-.07.08h-.41a.07.07,0,0,1-.07-.08v-.44H70.21v.48c0,.05,0,.07-.07.07h-.4s-.07,0-.07-.07l0-1.83v-1.5l0-1.56c0-.05,0-.07.07-.07l1.25,0h.29v-1.67h-.41l-1.25,0a.07.07,0,0,1-.08-.07v-.38s0-.07.08-.07h5.69s.08,0,.08.07Zm-4.11,5.7v-3.52H70.21v3.52Zm1.58-4v-1.67H71.78v1.67Zm0,4v-3.52H71.78v3.52Zm1.63,0v-3.52H73.37v3.52Z"/><path d="M144.23,210.06h5.86a6.48,6.48,0,0,1-.55,2,4.41,4.41,0,0,1-1.08,1.35l-.54-.44a3.79,3.79,0,0,0,1-1.13,3,3,0,0,0,.38-1.17h-5Zm.27,6.5a3.57,3.57,0,0,0,1.62-1.36,4.77,4.77,0,0,0,.49-2.38V211.4h.69v1.44a5,5,0,0,1-.72,2.88,4.45,4.45,0,0,1-1.64,1.35Z"/><path d="M153.14,211.19h2.62a36.19,36.19,0,0,1-.18,4.54,1.37,1.37,0,0,1-.51,1.05,3.8,3.8,0,0,1-1.55.2l-.21-.67c.25,0,.42,0,.5,0a1.83,1.83,0,0,0,.77-.1.47.47,0,0,0,.22-.22,2.36,2.36,0,0,0,.12-.52,31.29,31.29,0,0,0,.15-3.69h-2a8.4,8.4,0,0,1-.7,3.3,5.08,5.08,0,0,1-1.73,2l-.45-.46a4.49,4.49,0,0,0,1.73-2.13,8.35,8.35,0,0,0,.47-2.66h-2v-.61h2c0-.3,0-.84,0-1.62h.7C153.16,210,153.16,210.58,153.14,211.19Z"/><path d="M159.61,210.74h2.31a8.24,8.24,0,0,1-1,4.6,5.32,5.32,0,0,1-2.72,1.83l-.37-.53a4.58,4.58,0,0,0,2.6-1.8,6.71,6.71,0,0,0,.76-3.5h-3.87v2.23h-.7v-2.83h2.3v-1.31h.69Z"/><path d="M162.67,210.35a14.8,14.8,0,0,1,2.12,1.34l-.45.59a14,14,0,0,0-2.07-1.4Zm4.54.44.67.33a7.27,7.27,0,0,1-1.67,3.73,7.06,7.06,0,0,1-3.59,2.07l-.31-.61A6.12,6.12,0,0,0,167.21,210.79Z"/><path d="M169.24,212.84v4.27h-.7v-7.55h.7v2.61a13.9,13.9,0,0,1,3.42,1.43l-.34.65A11.47,11.47,0,0,0,169.24,212.84Z"/><path d="M267.89,239.5v6.09h-.66v-.5h-5.67v-.6h5.67V240.1h-5.58v-.6Z"/><path d="M269.76,241.68h7.52v.64H270.1a.38.38,0,0,1-.29.17Z"/><path d="M280.73,239.65c0,.08-.09.13-.21.15,0,2.42-.25,4.63-1.64,6.24a4.56,4.56,0,0,0-.54-.34c1.35-1.46,1.51-3.71,1.53-6.13Zm2.33,5.18a5.92,5.92,0,0,0,3-3.62,3,3,0,0,0,.56.36,6.75,6.75,0,0,1-3.68,4.07.38.38,0,0,1-.15.18l-.47-.6.1-.13v-6.61l.84,0a.2.2,0,0,1-.2.17Z"/><path d="M298.69,240.29a.33.33,0,0,1-.14.11,9.54,9.54,0,0,1-1.88,2.93,5.5,5.5,0,0,0-.54-.32,6.72,6.72,0,0,0,1.54-2.24l-3.45.9V244c0,.88.53,1.18,1.25,1.18h1.47c.37,0,1-.06,1.34-.1,0,.19,0,.44,0,.63-.36,0-1,.07-1.33.07h-1.51a1.65,1.65,0,0,1-1.89-1.78v-2.17l-2.27.58-.15-.6,2.42-.61v-2.73l.88,0a.22.22,0,0,1-.23.18V241l3.81-1,.1-.07Z"/><path d="M300.34,239a11.08,11.08,0,0,1,2.68,1.23l-.34.57a11.69,11.69,0,0,0-2.63-1.26Zm0,6.24a9.6,9.6,0,0,0,6.41-5.27,3.33,3.33,0,0,0,.58.37,10.33,10.33,0,0,1-6.37,5.4.33.33,0,0,1-.13.21Z"/><path d="M314.62,239.76a.18.18,0,0,1-.11.1,12.17,12.17,0,0,1-1.33,3c.39.22.83.5,1.17.74l-.38.6c-.33-.26-.79-.55-1.16-.79a8.45,8.45,0,0,1-3.25,2.74,2,2,0,0,0-.5-.47,8.5,8.5,0,0,0,3.19-2.59,17,17,0,0,0-2-.94l.34-.5a14.82,14.82,0,0,1,2,.91,9.79,9.79,0,0,0,1.09-2.39h-3.06a9.63,9.63,0,0,1-2.08,2.48,4.35,4.35,0,0,0-.51-.41,9.34,9.34,0,0,0,2.84-4.06l.85.2c0,.1-.12.13-.24.12-.13.3-.33.74-.51,1.07h3l.13,0Z"/><path d="M316.29,241.68h7.51v.64h-7.17a.38.38,0,0,1-.29.17Z"/><path d="M317.9,136.87h1.45v.61H317.9v.67a4.78,4.78,0,0,1-.94,3.25,4.9,4.9,0,0,1-2.46,1.24l-.36-.51a4,4,0,0,0,2.41-1.27,4.28,4.28,0,0,0,.67-2.63v-.75H315v2.38h-.67v-2.38h-1.38v-.61h1.38v-1.78H315v1.78h2.26v-1.8h.68Z"/><path d="M319.89,138.55h4.9v.67h-4.9Z"/><path d="M326.36,138.33v4.27h-.69v-7.55h.69v2.61a14.16,14.16,0,0,1,3.43,1.43l-.35.65A11.19,11.19,0,0,0,326.36,138.33Zm1.74-3.46.46-.19a11,11,0,0,1,.67,1.53l-.49.19A9,9,0,0,0,328.1,134.87Zm1-.31.45-.17a7.78,7.78,0,0,1,.64,1.48l-.47.19A8.72,8.72,0,0,0,329.13,134.56Z"/><path d="M332.62,142.07a9.1,9.1,0,0,0,1.26-2.87,21.56,21.56,0,0,0,.55-3.53l.72.07a22,22,0,0,1-.73,4.08,9.84,9.84,0,0,1-1.2,2.59Zm3.84-6.34.69-.06A16.74,16.74,0,0,0,339,142l-.66.38A18.91,18.91,0,0,1,336.46,135.73Zm2-1.15a1,1,0,1,1-.75,1.68,1,1,0,0,1-.26-.68,1,1,0,0,1,.33-.75A1,1,0,0,1,338.48,134.58Zm0,.38a.61.61,0,0,0-.62.62.62.62,0,0,0,.2.47.65.65,0,0,0,.42.16.57.57,0,0,0,.46-.21.63.63,0,0,0,0-.88A.6.6,0,0,0,338.48,135Z"/><path d="M339.56,138.55h4.9v.67h-4.9Z"/><path d="M347.69,138.05h-2.76v-.58h5.71v.58h-2.26a14.9,14.9,0,0,1-.09,1.65,3.19,3.19,0,0,1-.21.86,4.06,4.06,0,0,1-2.16,2.07l-.45-.5a3.31,3.31,0,0,0,2-1.82A7.28,7.28,0,0,0,347.69,138.05Zm-2.23-2.55h4.67v.6h-4.67Z"/><path d="M352.44,138.87a18.66,18.66,0,0,1-2.11,1.26l-.38-.51a11.63,11.63,0,0,0,4.13-3.2l.54.41a9.22,9.22,0,0,1-1.53,1.53v4.25h-.65Z"/><path d="M221.37,16v4.28h-.7V12.74h.7v2.61a13.77,13.77,0,0,1,3.43,1.43l-.35.65A11.19,11.19,0,0,0,221.37,16Zm1.74-3.46.46-.18a10.71,10.71,0,0,1,.67,1.52l-.49.2A8.85,8.85,0,0,0,223.11,12.55Zm1-.31.45-.16a7.25,7.25,0,0,1,.64,1.48l-.47.18A9.07,9.07,0,0,0,224.14,12.24Z"/><path d="M225.37,19.88V13.44h4.7v6.44Zm4-.61V14h-3.32v5.23Z"/><path d="M230.88,16.24h4.9v.66h-4.9Z"/><path d="M236.29,13.52a15,15,0,0,1,2.11,1.34l-.45.59a13,13,0,0,0-2.07-1.4Zm4.53.45.68.32A7.31,7.31,0,0,1,239.83,18a7.19,7.19,0,0,1-3.59,2.08l-.31-.61A6.13,6.13,0,0,0,240.82,14Z"/><path d="M250,17.55c0,.05,0,.08-.07.08l-1.17,0h-5.38l-1.17,0c-.05,0-.07,0-.07-.08v-.4a.06.06,0,0,1,.07-.07l1.17,0h1V15H244l-1.25,0c-.05,0-.08,0-.08-.07v-.4c0-.05,0-.07.08-.07l1.25,0h.42v-.72a8,8,0,0,0-.06-1.19l.6.05c.08,0,.11,0,.11.08a1,1,0,0,1-.06.19,4.48,4.48,0,0,0,0,.87v.72h2.26v-.72a6.56,6.56,0,0,0-.07-1.19l.61.05c.07,0,.11,0,.11.08a.75.75,0,0,1-.07.19,6.38,6.38,0,0,0,0,.87v.72h.55l1.24,0c.05,0,.07,0,.07.07V15s0,.07-.07.07l-1.24,0h-.55V17.1h1.05l1.17,0a.06.06,0,0,1,.07.07Zm-4.8.81s0,.08-.11.13a1.49,1.49,0,0,0-.22.22,7.06,7.06,0,0,1-2.15,1.68l-.13,0s-.08,0-.14-.12a1.13,1.13,0,0,0-.3-.28,6.44,6.44,0,0,0,2.11-1.43,1.72,1.72,0,0,0,.37-.58,3.65,3.65,0,0,1,.49.24C245.22,18.29,245.24,18.32,245.24,18.36Zm2-1.26V15h-2.26V17.1ZM249.92,20a1.3,1.3,0,0,0-.28.34c-.06.09-.11.14-.14.14l-.12-.05a8,8,0,0,1-2.44-2s0,0,0-.06,0,0,.08-.07l.27-.16.07,0,.06,0a7.31,7.31,0,0,0,1.16,1.1A6.68,6.68,0,0,0,249.92,20Z"/><path d="M259,14.33c0,.05,0,.07-.06.07h-4.7a8.92,8.92,0,0,1-.52,1h2.64l1.23,0c.05,0,.07,0,.07.07V19.6a.77.77,0,0,1-.22.64,2,2,0,0,1-1.17.2.36.36,0,0,1-.15,0,.37.37,0,0,1-.06-.16,1.22,1.22,0,0,0-.18-.38c.26,0,.54,0,.83,0s.4-.12.4-.37v-.92h-3.36v.75l0,1.07s0,.07-.08.07h-.4c-.05,0-.08,0-.08-.07l0-1.07v-3.2a8.19,8.19,0,0,1-1.6,1.62l-.12.07s-.08,0-.13-.1a.94.94,0,0,0-.31-.27,7.14,7.14,0,0,0,2.6-3.1h-2.45s-.07,0-.07-.07v-.39a.06.06,0,0,1,.07-.07l1.18,0h1.47c.1-.31.18-.55.22-.7a3.18,3.18,0,0,0,.14-.76,4.24,4.24,0,0,1,.56.11c.09,0,.13.06.13.11s0,.06-.08.13a1.15,1.15,0,0,0-.16.35c-.1.34-.19.6-.25.76h3.33l1.18,0s.06,0,.06.07Zm-1.89,2.45v-.9h-3.36v.9Zm0,1.39v-.94h-3.36v.94Z"/><path d="M197.78,112.2a.08.08,0,0,1-.09.09l-1.33,0h-.2v1.34l1.16,0a.08.08,0,0,1,.09.09l0,2v2l0,3a.08.08,0,0,1-.09.09h-.41s-.08,0-.08-.09v-.43h-3v.65c0,.06,0,.09-.08.09h-.41a.08.08,0,0,1-.09-.09l0-3.08V116l0-2.32a.08.08,0,0,1,.09-.09l1.16,0v-1.34h-.23l-1.34,0a.08.08,0,0,1-.09-.09v-.43s0-.08.09-.08l1.34,0h2l1.33,0c.06,0,.09,0,.09.08Zm-.95,5.84V116.8h-.43a.74.74,0,0,1-.54-.17,1,1,0,0,1-.2-.72v-1.8h-.61a12.68,12.68,0,0,1-.07,1.53,3.84,3.84,0,0,1-.55,1.6s-.07.08-.11.08a.14.14,0,0,1-.1-.08A.63.63,0,0,0,194,117a2.83,2.83,0,0,0,.54-1.47c0-.31.05-.77.05-1.37h-.67V118Zm0,1.67v-1.13h-3v1.13Zm-1.17-6.1v-1.34h-.61v1.34Zm1.17,2.63v-2.12h-.67v1.54a1.36,1.36,0,0,0,.05.48c0,.08.17.12.34.12Zm5.78,2.81a2.19,2.19,0,0,1-.5,1.38,3.09,3.09,0,0,1-1.87.36,2.94,2.94,0,0,1-1.62-.26,1.2,1.2,0,0,1-.25-.9v-3.09l0-1.21c0-.06,0-.09.1-.09l1.11,0h1.91v-2.94h-1.85l-1.13,0c-.06,0-.09,0-.09-.08v-.5s0-.08.09-.08l1.13,0h1.29l1.15,0c.06,0,.09,0,.09.08l0,1.17v2.27l0,1.17c0,.06,0,.09-.08.09h-.51a.08.08,0,0,1-.09-.09v-.5H199v3.48c0,.36,0,.58.1.64a2.18,2.18,0,0,0,1.14.17,2.43,2.43,0,0,0,1.39-.24,2.62,2.62,0,0,0,.34-1.41,1.25,1.25,0,0,0,.41.23c.14,0,.21.11.21.17A.78.78,0,0,1,202.61,119.05Z"/><path d="M213.88,120a1.25,1.25,0,0,0-.21.51c0,.12,0,.19-.06.2a.44.44,0,0,1-.19,0c-1.43.09-2.73.13-3.9.13a7.3,7.3,0,0,1-2.71-.35,2.24,2.24,0,0,1-1-1.09,12.61,12.61,0,0,1-1.18,1.08,2.12,2.12,0,0,0-.24.22c0,.07-.07.1-.12.1a.17.17,0,0,1-.14-.09,5.21,5.21,0,0,1-.32-.58c.26-.14.49-.28.69-.41a7.67,7.67,0,0,0,1-.9v-2.72h-.82l-.76,0c-.05,0-.08,0-.08-.1v-.48c0-.06,0-.09.08-.09l.76,0h.6l.79,0a.08.08,0,0,1,.09.09l0,1v2.25a1.87,1.87,0,0,0,.94,1.09,6.2,6.2,0,0,0,2.2.27C210.82,120.2,212.36,120.12,213.88,120ZM206,113.19a.15.15,0,0,1,0,.06s0,.07-.09.12l-.29.22a.32.32,0,0,1-.13.07s-.05,0-.07-.06a10.78,10.78,0,0,0-1.21-1.56.15.15,0,0,1,0-.06s0-.06.09-.1l.28-.19s.08-.06.11-.06,0,0,.06,0A10.35,10.35,0,0,1,206,113.19Zm7.5,5.65a1.18,1.18,0,0,0-.27.4c0,.13-.08.19-.13.19l-.16-.05a5.34,5.34,0,0,1-3-2.79,3.81,3.81,0,0,1-1,1.67,5.8,5.8,0,0,1-1.59,1.08.57.57,0,0,1-.16.07s-.07-.06-.15-.18a1.11,1.11,0,0,0-.32-.33,5.13,5.13,0,0,0,1.86-1.17,3.47,3.47,0,0,0,.79-1.54h-1l-1.51,0a.08.08,0,0,1-.09-.09v-.44a.08.08,0,0,1,.09-.09l1.51,0h1.07a10.43,10.43,0,0,0,.08-1.35V114h-.9l-1.48,0c-.05,0-.07,0-.07-.09v-.44c0-.06,0-.08.07-.08l1.48,0h1.66c.38-.65.67-1.17.85-1.55a2.64,2.64,0,0,0,.17-.56,5,5,0,0,1,.65.22c.08,0,.11.08.11.13s0,.11-.13.16a.79.79,0,0,0-.2.29c-.24.44-.5.88-.78,1.31h.44l1.46,0c.06,0,.09,0,.09.08v.44a.08.08,0,0,1-.09.09l-1.46,0H210.3a14.86,14.86,0,0,1-.1,1.64h1.56l1.51,0c.07,0,.1,0,.1.09v.44c0,.06,0,.09-.1.09l-1.51,0h-1.4A5.27,5.27,0,0,0,213.54,118.84Zm-4.22-6.07a.11.11,0,0,1,0,0s0,.07-.13.11l-.28.14a.24.24,0,0,1-.12.05s-.05,0-.07-.08a8.48,8.48,0,0,0-.76-1.25.09.09,0,0,1,0-.06s0-.06.09-.08l.32-.16.11,0s0,0,.07,0A8,8,0,0,1,209.32,112.77Z"/><path d="M224.46,116.41a.08.08,0,0,1-.09.09l-1.44,0H221.1v2.9a1.48,1.48,0,0,0,.11.77c.1.12.45.18,1,.18a1.77,1.77,0,0,0,1.23-.29,2.58,2.58,0,0,0,.33-1.51,1.37,1.37,0,0,0,.45.23c.12,0,.18.09.18.17V119a2.29,2.29,0,0,1-.49,1.49,1.24,1.24,0,0,1-.64.36,4.92,4.92,0,0,1-1.08.09c-.88,0-1.41-.11-1.6-.32a.77.77,0,0,1-.17-.39,4.41,4.41,0,0,1-.05-.76v-3h-1.64a5.25,5.25,0,0,1-.8,2.91,5,5,0,0,1-2.36,1.67.45.45,0,0,1-.17,0c-.05,0-.11-.06-.18-.17a1.2,1.2,0,0,0-.34-.38,4.58,4.58,0,0,0,2.47-1.5,4.2,4.2,0,0,0,.71-2.57h-1.62l-1.46,0a.08.08,0,0,1-.09-.09v-.5s0-.08.09-.08l1.46,0h2.8v-2H217a6.71,6.71,0,0,1-1,1.25c-.06.08-.11.11-.15.11s-.08,0-.17-.12a.83.83,0,0,0-.36-.23,6.75,6.75,0,0,0,1.69-2.52,2.22,2.22,0,0,0,.22-.76c.26.08.48.15.65.22s.14.08.14.13a.22.22,0,0,1-.1.16.9.9,0,0,0-.21.29c-.13.32-.27.61-.39.86h1.94v-.69a7.54,7.54,0,0,0-.08-1.27c.27,0,.51,0,.74.07s.13,0,.13.1a.18.18,0,0,1,0,.09s0,.08,0,.1a3.13,3.13,0,0,0-.07.87v.73h1.8l1.53,0c.05,0,.08,0,.08.09v.48a.07.07,0,0,1-.08.08l-1.53,0H220v2h3l1.44,0c.06,0,.09,0,.09.08Z"/><path d="M287.44,54.5v4.28h-.69V51.23h.69v2.61a14,14,0,0,1,3.43,1.43l-.34.65A11.4,11.4,0,0,0,287.44,54.5ZM289.19,51l.46-.18a12.35,12.35,0,0,1,.66,1.52l-.48.2A9.71,9.71,0,0,0,289.19,51Zm1-.31.46-.16a7.29,7.29,0,0,1,.63,1.48l-.46.18A8.26,8.26,0,0,0,290.21,50.73Z"/><path d="M291.45,58.37V51.93h4.7v6.44Zm4-.61V52.53h-3.32v5.23Z"/><path d="M297,54.73h4.9v.66H297Z"/><path d="M302.36,52a15.13,15.13,0,0,1,2.12,1.34l-.45.59a13,13,0,0,0-2.07-1.4Zm4.54.45.68.32a7.39,7.39,0,0,1-1.68,3.74,7.2,7.2,0,0,1-3.59,2.07L302,58A6.14,6.14,0,0,0,306.9,52.46Z"/><path d="M312.16,52.07s0,.07-.07.07H310.8a5,5,0,0,1,.34.72.08.08,0,0,1,0,0s0,0-.09.07l-.28.08-.08,0s-.05,0-.06-.07a6,6,0,0,0-.36-.87h-.82a5.44,5.44,0,0,1-.75.86c-.06,0-.1.08-.12.08s-.07,0-.13-.08a1.19,1.19,0,0,0-.3-.18,4.4,4.4,0,0,0,1.22-1.55,1.16,1.16,0,0,0,.11-.37A4.31,4.31,0,0,1,310,51q.09,0,.09.09a.18.18,0,0,1-.05.11.82.82,0,0,0-.15.23s0,.08-.07.14l-.07.12h2.36c.05,0,.07,0,.07.07Zm3.66,2.82s0,.08-.07.08h-.4c-.05,0-.07,0-.07-.08v-1h-6.15v1a.07.07,0,0,1-.07.08h-.41s-.07,0-.07-.08l0-.8v-.23l0-.38a.06.06,0,0,1,.07-.07l1.25,0h2a2.53,2.53,0,0,0-.07-.68,3.1,3.1,0,0,1,.57,0c.07,0,.11,0,.11.07a.47.47,0,0,1,0,.16,1.12,1.12,0,0,0,0,.4h2.12l1.26,0a.06.06,0,0,1,.07.07v1.41Zm-.9,4.09a.06.06,0,0,1-.07.07h-.4a.07.07,0,0,1-.07-.07v-.37h-3.93V59c0,.05,0,.07-.07.07H310c-.05,0-.07,0-.07-.07l0-1V55.57l0-1.08a.06.06,0,0,1,.07-.07l1.25,0h1.87l1.18,0a.07.07,0,0,1,.07.07l0,.6v.4l0,.6s0,.06-.07.06l-1.18,0h-2.65v.69h3.12l1.28,0s.07,0,.07.07V59Zm-1.11-3.28v-.83h-3.36v.83Zm.57,2.48v-.94h-3.93v.94Zm1.72-6.11s0,.07-.07.07h-1.74a5.71,5.71,0,0,1,.38.72.08.08,0,0,1,0,0s0,0-.09.07l-.26.07-.08,0s-.05,0-.06-.06a5.39,5.39,0,0,0-.4-.86h-.86a4.83,4.83,0,0,1-.34.52c0,.07-.09.1-.11.1a.27.27,0,0,1-.15-.08,1,1,0,0,0-.3-.12,4.44,4.44,0,0,0,.75-1.29,1.85,1.85,0,0,0,.1-.38,2.14,2.14,0,0,1,.48.1c.08,0,.11.05.11.09a.13.13,0,0,1-.07.11,1,1,0,0,0-.13.25,2.54,2.54,0,0,1-.12.26H316c.05,0,.07,0,.07.07Z"/><path d="M320.05,56a1.72,1.72,0,0,0,0,.34v.09c0,.07,0,.13-.15.19a15.85,15.85,0,0,1-2,.94,1.3,1.3,0,0,0-.32.14.19.19,0,0,1-.12,0,.09.09,0,0,1-.09-.07,5.36,5.36,0,0,1-.16-.52,4.63,4.63,0,0,0,.83-.23l.38-.14V54.54h-.14l-.8,0c-.05,0-.07,0-.07-.08v-.37s0-.07.07-.07h.94V52.13h-.2l-.88,0s-.06,0-.06-.08v-.38s0-.07.06-.07H320s.07,0,.07.07v.38s0,.08-.07.08l-.86,0h-.18v1.92h.91s.06,0,.06.07v.37c0,.05,0,.08-.06.08l-.81,0h-.1v2C319.3,56.4,319.67,56.21,320.05,56Zm5.3,2.53s0,.07-.06.07l-1.28,0h-3.3l-1.28,0a.06.06,0,0,1-.07-.07v-.4c0-.05,0-.07.07-.07l1.28,0h1.54V56.91h-1.87c-.05,0-.07,0-.07-.07v-.39a.06.06,0,0,1,.07-.07l1.18,0h.69v-1h-1.87c-.06,0-.08,0-.08-.06l0-1V52.53l0-1c0-.05,0-.07.08-.07l1.18,0h2l1.19,0a.06.06,0,0,1,.07.07l0,1v1.82l0,1s0,.06-.07.06h-2v1h.84l1.18,0a.06.06,0,0,1,.07.07v.39s0,.07-.07.07h-2v1.17H324l1.28,0s.06,0,.06.07Zm-3.1-5.33V52h-1.42V53.2Zm0,1.72V53.65h-1.42v1.27Zm2-1.72V52h-1.5V53.2Zm0,1.72V53.65h-1.5v1.27Z"/><path d="M420.6,32.27s0,.09-.11.13a1.16,1.16,0,0,0-.32.3A8.23,8.23,0,0,1,419,33.82c-.06,0-.1.08-.12.08s-.07,0-.15-.11a2.21,2.21,0,0,0-.4-.21,5.35,5.35,0,0,0,1.28-1.12h-2.5v3.21a.84.84,0,0,1-.23.66,2.23,2.23,0,0,1-1.1.17h-.19c-.1,0-.16,0-.17,0a.37.37,0,0,1-.06-.16,2.11,2.11,0,0,0-.18-.45,8.59,8.59,0,0,0,.93.06.49.49,0,0,0,.33-.08.38.38,0,0,0,.08-.27V32.46h-2.28l-1.2,0a.06.06,0,0,1-.07-.07V32a.07.07,0,0,1,.07-.08l1.2,0h2.83a9.55,9.55,0,0,0-1.9-1.36l-.05,0s0,0,.07-.1l.18-.21s.05-.05.07-.05l.05,0a10.45,10.45,0,0,1,1.15.71,11.24,11.24,0,0,0,2-1.33H415.1l-1.27,0a.07.07,0,0,1-.07-.07v-.42a.06.06,0,0,1,.07-.07l1.27,0h3.77a.61.61,0,0,0,.22,0l.12-.05c.05,0,.15.07.28.2s.2.23.2.3,0,.09-.13.12a1.18,1.18,0,0,0-.31.19,11.93,11.93,0,0,1-2.16,1.44l.54.47,0,0s0,0-.08.08l-.12.12h2.33a.56.56,0,0,0,.23,0,.21.21,0,0,1,.11,0c.05,0,.14.06.29.17S420.6,32.21,420.6,32.27Z"/><path d="M423.2,31.79a.09.09,0,0,1,0,.05.59.59,0,0,1-.07.1l-.17.24s-.07.07-.09.07l0,0a5.2,5.2,0,0,0-1.13-.93s0,0,0-.05,0,0,.06-.1l.17-.22s0-.05.07-.05l.06,0A5.67,5.67,0,0,1,423.2,31.79Zm.21,2.17c-.21.52-.5,1.17-.88,1.94-.1.21-.16.33-.17.37s-.05.11-.1.11l-.11-.05a2.64,2.64,0,0,1-.37-.32,4,4,0,0,0,.44-.69,12.18,12.18,0,0,0,.84-1.9,3.18,3.18,0,0,0,.26.26c.09.06.13.11.13.14A.43.43,0,0,1,423.41,34Zm.11-4.38s0,.05,0,.07,0,.05-.07.1l-.18.23c0,.05-.07.07-.09.07a.09.09,0,0,1-.06,0,4.47,4.47,0,0,0-1-1s0,0,0,0,0,0,.07-.09l.18-.21a.15.15,0,0,1,.07-.06l.06,0A5.52,5.52,0,0,1,423.52,29.58ZM425,35s0,.05-.07.09a.74.74,0,0,0-.18.2,5.33,5.33,0,0,1-.92,1.11c-.07.07-.12.1-.14.1s-.07,0-.13-.11a.69.69,0,0,0-.26-.2A4.69,4.69,0,0,0,424.39,35a1.24,1.24,0,0,0,.12-.32,4.33,4.33,0,0,1,.42.22C425,34.9,425,34.93,425,35Zm1.51-.72a.07.07,0,0,1-.07.07l-.79,0h-.76l-.79,0a.07.07,0,0,1-.07-.07l0-1.18V30.24l0-1.17a.06.06,0,0,1,.07-.07l.79,0h.76l.79,0a.06.06,0,0,1,.07.07l0,1.17v2.83ZM426,30.63V29.46h-1.46v1.17Zm0,1.57V31.06h-1.46V32.2Zm0,1.66V32.63h-1.46v1.23Zm1,2.1a.89.89,0,0,0-.31.22c-.05.07-.09.1-.11.1s-.07,0-.13-.11a9.44,9.44,0,0,1-.87-1.24.08.08,0,0,1,0,0s0,0,.1-.08l.19-.11.09,0,.05.05A5.44,5.44,0,0,0,427.05,36Zm.91-6.5a.11.11,0,0,1,0,.07.26.26,0,0,0,0,.07,7.26,7.26,0,0,0,0,.94v3.54a.06.06,0,0,1-.07.07h-.4a.07.07,0,0,1-.07-.07l0-1.15V30.55a8.51,8.51,0,0,0-.06-1.22,3.87,3.87,0,0,1,.56.05C427.93,29.39,428,29.41,428,29.46Zm1.52-.7a.68.68,0,0,1-.05.17,3,3,0,0,0-.05.79v4.46l0,1.36a.83.83,0,0,1-.27.72,1.52,1.52,0,0,1-.86.17h-.17a.29.29,0,0,1-.17,0,.81.81,0,0,1-.05-.15,1,1,0,0,0-.17-.4c.24,0,.47,0,.69,0a.37.37,0,0,0,.45-.45V29.73a6.93,6.93,0,0,0-.06-1.09l.58,0C429.44,28.7,429.48,28.72,429.48,28.76Z"/><path d="M434.14,29.08s0,.06-.07.1a.54.54,0,0,0-.16.2,9.23,9.23,0,0,1-1.31,2,10.23,10.23,0,0,1-1.52,1.36l-.14.07s-.07,0-.12-.11a1.12,1.12,0,0,0-.32-.3,7.24,7.24,0,0,0,1.81-1.56,6.87,6.87,0,0,0,1-1.58,2.74,2.74,0,0,0,.14-.53,3.77,3.77,0,0,1,.57.21C434.1,29,434.14,29,434.14,29.08Zm2.9,3.1c0,.1,0,.25,0,.47s0,.36,0,.48a16.88,16.88,0,0,1-.22,2.27,1.3,1.3,0,0,1-.37.77,1.09,1.09,0,0,1-.78.25l-.72,0a.37.37,0,0,1-.17,0,.94.94,0,0,1-.05-.17,1,1,0,0,0-.18-.42,6.43,6.43,0,0,0,1,.09.61.61,0,0,0,.49-.18,1,1,0,0,0,.2-.5,16.82,16.82,0,0,0,.2-2.56h-2a4.37,4.37,0,0,1-2.7,3.91l-.13,0s-.08,0-.14-.14a.86.86,0,0,0-.28-.29,3.92,3.92,0,0,0,2.69-3.53h-1.62a.06.06,0,0,1-.07-.07v-.4a.07.07,0,0,1,.07-.07l1.21,0h2.28l1.22,0C437,32.09,437,32.12,437,32.18Zm1.87.1a1.42,1.42,0,0,0-.32.36c-.06.09-.09.13-.11.13a.31.31,0,0,1-.12-.07,9.37,9.37,0,0,1-3.08-3.7.17.17,0,0,1,0-.05s0,0,.1-.07l.27-.14a.2.2,0,0,1,.09,0s0,0,0,.06a7.81,7.81,0,0,0,1.4,2.12A7.09,7.09,0,0,0,438.91,32.28Z"/><path d="M443,30.94s0,.07-.07.07h-1.19A6.19,6.19,0,0,0,443,33a1.41,1.41,0,0,0-.23.35c0,.06-.05.09-.08.09s-.05,0-.09-.09a7.62,7.62,0,0,1-.94-1.77c0,1.17,0,2.38.05,3.63,0,.31,0,.66,0,1,0,.19,0,.29,0,.31s0,.07-.07.07h-.42c-.05,0-.07,0-.07-.07s0-.25,0-.74c0-1.46.06-2.84.07-4.15A9.48,9.48,0,0,1,440,34.58c0,.06-.08.1-.1.1s-.06,0-.08-.11a1,1,0,0,0-.22-.34A10.23,10.23,0,0,0,441.13,31h-1.25c-.05,0-.08,0-.08-.07v-.36s0-.06.08-.06l.95,0h.36V29.6a6.41,6.41,0,0,0-.06-1.06l.56,0c.07,0,.1,0,.1.09a.45.45,0,0,1,0,.17,3.48,3.48,0,0,0,0,.75v.95H442l1,0c.05,0,.07,0,.07.06ZM447.69,32a.07.07,0,0,1-.07.07l-1.09,0h-.3v3.34l0,1.13c0,.05,0,.07-.08.07h-.43a.06.06,0,0,1-.07-.07l0-1.13V32.08H444a9.81,9.81,0,0,1-.29,2.65,4.64,4.64,0,0,1-1,1.78c-.06.06-.1.1-.12.1a.26.26,0,0,1-.14-.09,1,1,0,0,0-.3-.22,3.83,3.83,0,0,0,1.05-1.86,9.3,9.3,0,0,0,.25-2.37V30.64a8.11,8.11,0,0,0-.06-1.16,2.05,2.05,0,0,1,.58.18,11.14,11.14,0,0,0,2.36-.7,1.68,1.68,0,0,0,.44-.29,2.51,2.51,0,0,1,.4.4.19.19,0,0,1,.07.12s0,.08-.12.08a.74.74,0,0,0-.32.09,14.36,14.36,0,0,1-2.83.77v1.46h3.66a.06.06,0,0,1,.07.07Z"/><path d="M410.78,105.11v4.28h-.69v-7.55h.69v2.61a14.16,14.16,0,0,1,3.43,1.43l-.34.65A11.4,11.4,0,0,0,410.78,105.11Zm1.74-3.46.46-.18a10.71,10.71,0,0,1,.67,1.52l-.49.2A8.14,8.14,0,0,0,412.52,101.65Zm1-.31.45-.16a7.25,7.25,0,0,1,.64,1.48l-.47.19A8.86,8.86,0,0,0,413.55,101.34Z"/><path d="M414.78,109v-6.44h4.7V109Zm4-.61v-5.22h-3.32v5.22Z"/><path d="M420.29,105.34h4.9V106h-4.9Z"/><path d="M425.7,102.62a16.62,16.62,0,0,1,2.11,1.34l-.45.6a13,13,0,0,0-2.07-1.41Zm4.53.45.68.33a7.39,7.39,0,0,1-1.67,3.73,7.25,7.25,0,0,1-3.59,2.07l-.31-.61A6.11,6.11,0,0,0,430.23,103.07Z"/><path d="M435.11,103.15a14.18,14.18,0,0,1-1,4.73,1.35,1.35,0,0,1-1.21,1,1.12,1.12,0,0,1-1-.68,4,4,0,0,1-.34-1.79,4.66,4.66,0,0,1,.3-1.69,3.23,3.23,0,0,1,.66-1.1,3,3,0,0,1,1.11-.73,3.43,3.43,0,0,1,1.26-.23,2.67,2.67,0,0,1,2.29,1,4.12,4.12,0,0,1,.62,2.45,3.27,3.27,0,0,1-.72,2.18,3.66,3.66,0,0,1-2.11,1.15l-.31-.54a2.75,2.75,0,0,0,2.47-3,3,3,0,0,0-.67-2.12A1.79,1.79,0,0,0,435.11,103.15Zm-.68.07a1.89,1.89,0,0,0-.83.26,3,3,0,0,0-.68.59,3.41,3.41,0,0,0-.74,2.31,3,3,0,0,0,.26,1.36c.14.27.31.4.49.4a.54.54,0,0,0,.4-.17,1.62,1.62,0,0,0,.28-.49A12.66,12.66,0,0,0,434.43,103.22Z"/><path d="M441.1,101.83a.16.16,0,0,1-.07.13.72.72,0,0,0-.18.34,13.6,13.6,0,0,1-.6,1.4v5.89a.06.06,0,0,1-.07.07h-.41a.06.06,0,0,1-.07-.07v-3.7c0-.57,0-1,0-1.31a9.53,9.53,0,0,1-.81,1.11c-.05,0-.09.08-.11.08s-.05,0-.09-.1a1.17,1.17,0,0,0-.22-.34,10,10,0,0,0,1.84-3.17,2.91,2.91,0,0,0,.13-.6,3.66,3.66,0,0,1,.53.17C441.07,101.76,441.1,101.79,441.1,101.83Zm.53,1.43a.28.28,0,0,1,0,.08.27.27,0,0,0,0,.08,3.6,3.6,0,0,0-.06.84v2.81l0,1.21c0,.06,0,.08-.07.08h-.4c-.05,0-.07,0-.07-.08l0-1.21v-2.79a7.76,7.76,0,0,0-.06-1.15,3.31,3.31,0,0,1,.55.05C441.6,103.19,441.63,103.22,441.63,103.26Zm5.44,2.14a1.05,1.05,0,0,0-.22.34c0,.1-.08.15-.11.15l-.12,0a8.23,8.23,0,0,1-2.24-1,7.49,7.49,0,0,1-2.16,1l-.13,0s-.08,0-.13-.14a1,1,0,0,0-.2-.28,7.26,7.26,0,0,0,2.22-.93,4.19,4.19,0,0,1-1-1.19,6.35,6.35,0,0,1-.71.86c-.05.05-.09.08-.11.08a.26.26,0,0,1-.14-.09.94.94,0,0,0-.25-.18,5.34,5.34,0,0,0,1.33-1.9,2.23,2.23,0,0,0,.15-.56,2.53,2.53,0,0,1,.49.14c.06,0,.1.06.1.11s0,.06-.08.11a1.62,1.62,0,0,0-.18.33,3.08,3.08,0,0,1-.17.36h3.24c.05,0,.07,0,.07.06V103s0,.07-.07.07h-.11l-.73,0a4.19,4.19,0,0,1-1.08,1.47A6.73,6.73,0,0,0,447.07,105.4Zm-.38,1.89s0,.07-.08.09a2.2,2.2,0,0,0-.25.17,8.92,8.92,0,0,1-1.8,1.28,9.23,9.23,0,0,1-2.23.75l-.11,0s-.08,0-.13-.13a1,1,0,0,0-.24-.31,9.57,9.57,0,0,0,2.52-.81,6.92,6.92,0,0,0,1.53-1.07,1.51,1.51,0,0,0,.29-.37,2.75,2.75,0,0,1,.44.28S446.69,107.26,446.69,107.29Zm-1.79-1.51s0,.07-.09.09a1.11,1.11,0,0,0-.33.18,7.36,7.36,0,0,1-2.05,1l-.13,0s-.07,0-.12-.12a1,1,0,0,0-.22-.26,6.3,6.3,0,0,0,2.12-.93,1.44,1.44,0,0,0,.32-.34,3.91,3.91,0,0,1,.44.26S444.9,105.75,444.9,105.78Zm.86.74a.08.08,0,0,1-.07.09,1.27,1.27,0,0,0-.35.21,7.94,7.94,0,0,1-2.73,1.37l-.14,0s-.08,0-.12-.12a1.3,1.3,0,0,0-.22-.28,8.24,8.24,0,0,0,1.73-.61,5.37,5.37,0,0,0,1.08-.7,1.23,1.23,0,0,0,.33-.36,3.39,3.39,0,0,1,.44.27A.11.11,0,0,1,445.76,106.52Zm-.47-3.46h-1.94a4.2,4.2,0,0,0,1,1.18A3.53,3.53,0,0,0,445.29,103.06Z"/><path d="M450.07,104s0,.07-.07.11a.62.62,0,0,0-.22.25c-.13.23-.28.49-.46.75v4.45s0,.07-.07.07h-.41c-.05,0-.07,0-.07-.07v-2.77c0-.24,0-.58,0-1a10.67,10.67,0,0,1-.8.82c-.07,0-.11.08-.13.08s-.05,0-.1-.11a.89.89,0,0,0-.23-.28,6.53,6.53,0,0,0,1.82-2.21,2.35,2.35,0,0,0,.17-.45,3.49,3.49,0,0,1,.44.24C450,103.93,450.07,104,450.07,104Zm0-2s0,.08-.09.11a.62.62,0,0,0-.24.22,9,9,0,0,1-1.61,1.66.32.32,0,0,1-.13.07s0,0-.11-.12a1.25,1.25,0,0,0-.25-.26,6.17,6.17,0,0,0,1.64-1.62,1.65,1.65,0,0,0,.21-.42,2.5,2.5,0,0,1,.49.26C450.07,101.91,450.1,102,450.1,102Zm5.92,7.11a.89.89,0,0,0-.21.32c0,.11-.08.17-.13.17l-.11,0a9.07,9.07,0,0,1-2.59-.9,8.57,8.57,0,0,1-2.8,1l-.12,0s-.09,0-.14-.15a2,2,0,0,0-.21-.27,9.3,9.3,0,0,0,2.81-.84,4.66,4.66,0,0,1-1-1,5.69,5.69,0,0,1-1.29,1,.33.33,0,0,1-.13.06s-.07,0-.13-.12a.73.73,0,0,0-.22-.19,6.09,6.09,0,0,0,1.88-1.53,2.06,2.06,0,0,0,.3-.54h-.83A.07.07,0,0,1,451,106l0-.76v-1l0-.74c0-.06,0-.08.07-.08l1.09,0h1.53l1.09,0c.05,0,.07,0,.07.08V106a.06.06,0,0,1-.07.07l-1.09,0H452l.38.14c.05,0,.08.06.08.09s0,.08-.09.12a1.13,1.13,0,0,0-.16.18l-.08.11h2a.36.36,0,0,0,.18,0l.1,0c.05,0,.12.06.23.17s.14.17.14.21,0,.08-.09.11a.8.8,0,0,0-.2.21,5.76,5.76,0,0,1-1,1A9.59,9.59,0,0,0,456,109.09Zm-.27-6.26s0,.07-.07.07l-1.16,0h-3.08a6.12,6.12,0,0,1-.77,1l-.12.1a.35.35,0,0,1-.13-.1.84.84,0,0,0-.29-.2,5.15,5.15,0,0,0,1.15-1.61,1.74,1.74,0,0,0,.18-.59,3.41,3.41,0,0,1,.52.14c.06,0,.1,0,.1.09a.19.19,0,0,1-.08.13,1.21,1.21,0,0,0-.21.35l-.05.1a.64.64,0,0,1,0,.1h4c.05,0,.07,0,.07.07Zm-1.4,1.74v-.64h-2.8v.64Zm0,1.08V105h-2.8v.68Zm-.31,1.46h-2.19a4.26,4.26,0,0,0,1.12,1A5.5,5.5,0,0,0,454,107.11Z"/></svg>