<svg xmlns="http://www.w3.org/2000/svg" viewBox="0 0 457.04 220.02"><title>OJ103614597</title><g id="Shapes"><rect x="1.75" y="141.37" width="176.99" height="49.51" fill="#fff"/><path d="M178.23,141.26v38H2.25v-38h176m1-.78H1.25v39.61h178Z"/><line x1="40.33" y1="141.47" x2="40.33" y2="116.21" fill="none" stroke="#000" stroke-miterlimit="10"/><circle cx="40.33" cy="111.4" r="4.81" fill="none" stroke="#000" stroke-miterlimit="10"/><line x1="140.15" y1="141.47" x2="140.15" y2="116.21" fill="none" stroke="#000" stroke-miterlimit="10"/><circle cx="140.15" cy="111.4" r="4.81" fill="none" stroke="#000" stroke-miterlimit="10"/><rect x="1.75" y="0.5" width="77.17" height="53.12" fill="#fff"/><path d="M78.42,1V53.12H2.25V1H78.42m1-1H1.25V54.12H79.42Z"/><line x1="40.33" y1="53.68" x2="40.33" y2="94.61" fill="none" stroke="#000" stroke-miterlimit="10"/><polygon points="35.35 93.15 40.33 101.78 45.32 93.15 35.35 93.15"/><rect x="101.56" y="0.5" width="77.17" height="53.12" fill="#fff"/><path d="M178.23,1V53.12H102.07V1h76.16m1-1H101.07V54.12h78.16Z"/><line x1="140.15" y1="53.68" x2="140.15" y2="94.61" fill="none" stroke="#000" stroke-miterlimit="10"/><polygon points="135.16 93.15 140.15 101.78 145.14 93.15 135.16 93.15"/><line x1="318.14" y1="141.47" x2="318.14" y2="116.21" fill="none" stroke="#000" stroke-miterlimit="10"/><circle cx="318.14" cy="111.4" r="4.81" fill="none" stroke="#000" stroke-miterlimit="10"/><line x1="417.95" y1="141.47" x2="417.95" y2="116.21" fill="none" stroke="#000" stroke-miterlimit="10"/><circle cx="417.95" cy="111.4" r="4.81" fill="none" stroke="#000" stroke-miterlimit="10"/><rect x="279.55" y="0.5" width="77.17" height="53.12" fill="#fff"/><path d="M356.22,1V53.12H280.05V1h76.17m1-1H279.05V54.12h78.17Z"/><line x1="318.14" y1="53.68" x2="318.14" y2="94.61" fill="none" stroke="#000" stroke-miterlimit="10"/><polygon points="313.15 93.15 318.14 101.78 323.12 93.15 313.15 93.15"/><rect x="379.37" y="0.5" width="77.17" height="53.12" fill="#fff"/><path d="M456,1V53.12H379.87V1H456m1-1H378.87V54.12H457Z"/><line x1="417.95" y1="53.68" x2="417.95" y2="94.61" fill="none" stroke="#000" stroke-miterlimit="10"/><polygon points="412.97 93.15 417.95 101.78 422.94 93.15 412.97 93.15"/><rect x="279.55" y="139.56" width="77.17" height="53.12" fill="#fff"/><path d="M356.22,139.84v40.88H280.05V139.84h76.17m1-.78H279.05V181.5h78.17Z"/><rect x="379.37" y="139.56" width="77.17" height="53.12" fill="#fff"/><path d="M456,139.84v40.88H379.87V139.84H456m1-.78H378.87V181.5H457Z"/></g><g id="Text"><text transform="translate(134.25 21.6)" font-size="12" font-family="SegoeUI, Segoe UI">v2<tspan font-family="Meiryo, Meiryo"><tspan x="-29.89" y="14.4">クライアント</tspan></tspan></text><text transform="translate(34.55 21.47)" font-size="12" font-family="SegoeUI, Segoe UI">v1<tspan font-family="Meiryo, Meiryo"><tspan x="-29.89" y="14.4">クライアント</tspan></tspan></text><text transform="translate(51.58 114.41)" font-size="14.5" font-family="SegoeUI, Segoe UI">v1</text><text transform="translate(54.75 169.24)" font-size="12" font-family="Meiryo, Meiryo">サービス</text><text transform="translate(11.97 199.18)" font-size="14" font-family="SegoeUI-Italic, Segoe UI"><tspan font-style="italic">2 </tspan><tspan x="11.4" y="0" font-family="Meiryo, Meiryo">つのバージョンをサポ</tspan><tspan font-family="Meiryo, Meiryo"><tspan x="19.7" y="16.8">ートするサービス</tspan></tspan></text><text transform="translate(150.64 115.61)" font-size="14.5" font-family="SegoeUI, Segoe UI">v2</text><text transform="translate(412.06 21.6)" font-size="12" font-family="SegoeUI, Segoe UI">v2<tspan font-family="Meiryo, Meiryo"><tspan x="-29.89" y="14.4">クライアント</tspan></tspan></text><text transform="translate(312.03 21.6)" font-size="12" font-family="SegoeUI, Segoe UI">v1<tspan font-family="Meiryo, Meiryo"><tspan x="-29.89" y="14.4">クライアント</tspan></tspan></text><text transform="translate(329.39 114.41)" font-size="14.5" font-family="SegoeUI, Segoe UI">v1</text><text transform="translate(339.18 203.8)" font-size="14.4" font-family="Meiryo, Meiryo">並列展開</text><text transform="translate(428.45 115.61)" font-size="14.5" font-family="SegoeUI, Segoe UI">v2</text><text transform="translate(286.31 161.1)" font-size="12" font-family="SegoeUI, Segoe UI">v1 <tspan x="15.5" y="0" font-family="Meiryo, Meiryo">サービス</tspan></text><text transform="translate(387.98 161.1)" font-size="12" font-family="SegoeUI, Segoe UI">v2 <tspan x="15.5" y="0" font-family="Meiryo, Meiryo">サービス</tspan></text></g></svg>