<svg xmlns="http://www.w3.org/2000/svg" viewBox="0 0 421.65 318.53"><defs><style>.cls-1{fill:none;stroke:#afafaf;stroke-miterlimit:10;stroke-width:6px;}.cls-2{fill:#afafaf;}.cls-3{fill:#3fa0ec;}.cls-4{fill:#8fb6cc;}.cls-5{fill:#2a3282;}.cls-12,.cls-6,.cls-8{fill:#fff;}.cls-10,.cls-11,.cls-7,.cls-8,.cls-9{isolation:isolate;}.cls-7{font-size:14px;fill:#213d47;letter-spacing:-0.05em;}.cls-11,.cls-12,.cls-13,.cls-7,.cls-8,.cls-9{font-family:Meiryo, Meiryo;}.cls-12,.cls-8{font-size:18px;}.cls-11,.cls-13,.cls-9{font-size:18.04px;fill:#0070c0;}.cls-11{letter-spacing:-0.03em;}</style></defs><title>OJ103514692</title><g id="Shapes"><line class="cls-1" x1="115.33" y1="232.58" x2="345" y2="228.83"/><polygon class="cls-2" points="119.09 241.11 106.03 233.83 118.87 226.16 119.09 241.11"/><line class="cls-1" x1="366" y1="71.19" x2="366" y2="185.43"/><polygon class="cls-2" points="358.52 183.24 366 196.19 373.48 183.24 358.52 183.24"/><path class="cls-3" d="M152.48,195h80.85c3.58,0,6.48,3.58,6.48,8v55.66c0,4.42-2.9,8-6.48,8H152.48c-3.58,0-6.48-3.58-6.48-8V203C146,198.58,148.9,195,152.48,195Z"/><line class="cls-1" x1="106.67" y1="37.67" x2="331.54" y2="33.99"/><polygon class="cls-2" points="329.46 41.5 342.3 33.83 329.24 26.54 329.46 41.5"/><path class="cls-4" d="M101,4.19a4,4,0,0,1,4,4v250a4,4,0,0,1-4,4H8a4,4,0,0,1-4-4V8.19a4,4,0,0,1,4-4H68m33-4H8a8,8,0,0,0-8,8v250a8,8,0,0,0,8,8h93a8,8,0,0,0,8-8V8.19A8,8,0,0,0,101,.19Z"/><path class="cls-3" d="M151.24,0h82c3.64,0,6.58,3.58,6.58,8V63.66c0,4.42-2.94,8-6.58,8h-82c-3.63,0-6.57-3.58-6.57-8V8C144.67,3.58,147.61,0,151.24,0Z"/><path class="cls-5" d="M340.16,49V59.19c0,4.76,9.53,10.06,22.07,11h8.29c12.54-.89,22.07-5.11,22.07-10.06V11.93c0-5.3-11.84-10.42-26.32-10.42s-26.13,4.76-26.13,10.25V49Z"/><ellipse class="cls-6" cx="366.36" cy="11.67" rx="20.5" ry="6.5"/><path class="cls-5" d="M340.16,244v10.23c0,4.76,9.53,10.06,22.07,11h8.29c12.54-.89,22.07-5.11,22.07-10.06v-48.2c0-5.3-11.84-10.42-26.32-10.42s-26.13,4.76-26.13,10.25V244Z"/><ellipse class="cls-6" cx="366.36" cy="206.67" rx="20.5" ry="6.5"/><rect class="cls-3" x="312.39" y="102.1" width="107.94" height="49.19" rx="8" ry="8"/></g><g id="txt"><text class="cls-7" transform="translate(7.22 131.65) scale(1.21 1)">クライアント</text><text class="cls-8" transform="translate(332.65 130.64)">イベント</text><text class="cls-9" transform="translate(258.71 20.61)">書き込み</text><g class="cls-10"><text class="cls-11" transform="translate(260.48 213.61)">読み取り</text></g><text class="cls-9" transform="translate(385.57 183.61)">更新</text><text class="cls-12" transform="translate(155.25 30.33)">コマンド <tspan x="9" y="21.6">モデル</tspan></text><text class="cls-12" transform="translate(165.5 224.91)">クエリ <tspan x="0" y="21.6">モデル</tspan></text><text class="cls-13" transform="translate(321.9 288.94)">具体化され<tspan x="9.02" y="21.65">たビュー</tspan></text></g></svg>