<svg xmlns="http://www.w3.org/2000/svg" viewBox="0 0 397.36 352.76"><defs><style>.cls-1{fill:none;stroke:#afafaf;stroke-miterlimit:10;stroke-width:6px;}.cls-2{fill:#afafaf;}.cls-3{fill:#3fa0ec;}.cls-4,.cls-9{fill:#2a3282;}.cls-5,.cls-7{fill:#fff;}.cls-6{isolation:isolate;}.cls-10,.cls-6{font-size:18.04px;fill:#0070c0;}.cls-10,.cls-6,.cls-7,.cls-9{font-family:MeiryoUI, Meiryo UI;}.cls-7,.cls-9{font-size:18px;}.cls-8{font-family:SegoeUI, Segoe UI;}</style></defs><title>OJ103514622</title><g id="Shapes"><line class="cls-1" x1="126.7" y1="247.92" x2="291.94" y2="247.92"/><polygon class="cls-2" points="128.89 255.4 115.94 247.92 128.89 240.44 128.89 255.4"/><line class="cls-1" x1="332.05" y1="69.71" x2="332.05" y2="183.95"/><polygon class="cls-2" points="324.57 181.76 332.05 194.71 339.53 181.76 324.57 181.76"/><rect class="cls-3" y="211.53" width="115.75" height="71.66" rx="8" ry="8"/><line class="cls-1" x1="115.93" y1="52.36" x2="281.17" y2="52.36"/><polygon class="cls-2" points="278.99 59.84 291.94 52.36 278.99 44.88 278.99 59.84"/><rect class="cls-3" y="16.53" width="115.75" height="71.66" rx="8" ry="8"/><path class="cls-4" d="M292.11,72.38V88c0,7.26,14.53,15.34,33.64,16.7h12.64C357.51,103.35,372,96.9,372,89.36V15.87C372,7.79,354,0,331.91,0s-39.84,7.26-39.84,15.63V72.38Z" transform="translate(0 0.01)"/><ellipse class="cls-5" cx="332.05" cy="15.53" rx="31.25" ry="9.91"/><path class="cls-4" d="M292.11,267.38V283c0,7.26,14.53,15.34,33.64,16.7h12.64c19.12-1.35,33.64-7.8,33.64-15.34V210.87c0-8.08-18-15.88-40.12-15.88s-39.84,7.26-39.84,15.63v56.76Z" transform="translate(0 0.01)"/><ellipse class="cls-5" cx="332.05" cy="210.53" rx="31.25" ry="9.91"/></g><g id="txt"><text class="cls-6" transform="translate(171.07 43.13)">イベント</text><text class="cls-6" transform="translate(348.38 149.13)">発行</text><text class="cls-7" transform="translate(306.42 55.55)">イベント<tspan class="cls-8" x="53.86" y="0"> </tspan><tspan x="6.89" y="21.3">ストア</tspan></text><text class="cls-9" transform="translate(11.88 254.75)">クエリ<tspan class="cls-8" x="36.56" y="0"> </tspan><tspan x="41.49" y="0">モデル</tspan></text><text class="cls-9" transform="translate(7.84 58.96)">コマンド<tspan class="cls-8" x="52.17" y="0"> </tspan><tspan x="57.1" y="0">モデル</tspan></text><text class="cls-10" transform="translate(260.27 324.62)">具体化されたビュー</text><text class="cls-6" transform="translate(176.35 239.13)">読み取り</text></g></svg>