<svg xmlns="http://www.w3.org/2000/svg" viewBox="0 0 678 212.1"><defs><style>.cls-1{fill:none;stroke:#afafaf;stroke-miterlimit:10;stroke-width:6px;}.cls-2{fill:#afafaf;}.cls-3{fill:#3fa0ec;}.cls-4,.cls-5,.cls-6{isolation:isolate;fill:#fff;font-family:Meiryo, Meiryo;}.cls-4{font-size:16px;letter-spacing:-0.01em;}.cls-5{font-size:17.98px;}.cls-6{font-size:18px;}</style></defs><title>OJ103514666</title><g id="Shapes"><line class="cls-1" x1="155.53" y1="105.95" x2="208.77" y2="105.95"/><polygon class="cls-2" points="207.91 113.43 220.86 105.95 207.91 98.47 207.91 113.43"/><rect class="cls-3" x="486" width="192" height="60.1" rx="8" ry="8"/><rect class="cls-3" x="486" y="76" width="192" height="60.1" rx="8" ry="8"/><rect class="cls-3" x="486" y="152" width="192" height="60.1" rx="8" ry="8"/><line class="cls-1" x1="422.53" y1="105.95" x2="475.77" y2="105.95"/><polygon class="cls-2" points="473.58 113.42 486.53 105.94 473.58 98.47 473.58 113.42"/><line class="cls-1" x1="422.53" y1="105.95" x2="478.44" y2="42.05"/><polygon class="cls-2" points="482.63 48.62 485.53 33.95 471.37 38.77 482.63 48.62"/><line class="cls-1" x1="422.53" y1="105.95" x2="478.66" y2="173.66"/><polygon class="cls-2" points="471.51 176.75 485.53 181.95 483.02 167.2 471.51 176.75"/><path class="cls-3" d="M6.51,76H149.82c3.6,0,6.51,3.58,6.51,8v44.1c0,4.42-2.91,8-6.51,8H6.51c-3.59,0-6.51-3.58-6.51-8V84C0,79.58,2.92,76,6.51,76Z"/><path class="cls-3" d="M231,86.05H413.14c5.31,0,9.62,3.58,9.62,8v24c0,4.42-4.31,8-9.62,8H231c-5.31,0-9.62-3.58-9.62-8v-24C221.33,89.63,225.64,86.05,231,86.05Z"/></g><g id="txt"><text class="cls-4" transform="translate(495.78 34)">イベント コンシューマー</text><text class="cls-4" transform="translate(495.78 110)">イベント コンシューマー</text><text class="cls-4" transform="translate(495.78 186)">イベント コンシューマー</text><text class="cls-5" transform="translate(10.46 110.01)">イベント生成元</text><text class="cls-6" transform="translate(228.57 112.67)">イベント インジェスト</text></g></svg>