<svg xmlns="http://www.w3.org/2000/svg" viewBox="0 0 728 385.51"><defs><style>.cls-1,.cls-11,.cls-12,.cls-13,.cls-15,.cls-17,.cls-4{fill:none;}.cls-1,.cls-17,.cls-4{stroke:#afafaf;}.cls-1,.cls-10,.cls-11,.cls-12,.cls-13,.cls-15,.cls-17,.cls-4,.cls-7,.cls-8,.cls-9{stroke-miterlimit:10;}.cls-1{stroke-width:6px;}.cls-2{fill:#3fa0ec;}.cls-3{fill:#8fb6cc;}.cls-4{stroke-width:5.65px;}.cls-5{fill:#afafaf;}.cls-6{fill:#217da5;}.cls-7{fill:red;}.cls-10,.cls-7,.cls-8,.cls-9{stroke:#fff;}.cls-8{fill:#f9c943;}.cls-9{fill:#39b54a;}.cls-10{fill:#88bee2;}.cls-11,.cls-12,.cls-13{stroke:#0070c0;stroke-width:2px;}.cls-12{stroke-dasharray:5.91 5.91;}.cls-13{stroke-dasharray:5.88 5.88;}.cls-14,.cls-22{fill:#0070c0;}.cls-15{stroke:#8e8e8e;stroke-width:3px;}.cls-16{fill:#8e8e8e;}.cls-17{stroke-width:6.15px;}.cls-18,.cls-19,.cls-22,.cls-26,.cls-27{isolation:isolate;}.cls-18,.cls-24{font-size:16px;}.cls-18{fill:#213d47;letter-spacing:-0.03em;}.cls-18,.cls-19,.cls-21,.cls-22,.cls-24,.cls-26,.cls-28,.cls-29{font-family:Meiryo, Meiryo;}.cls-19{font-size:18.77px;}.cls-19,.cls-20,.cls-23,.cls-24,.cls-27,.cls-28{fill:#fff;}.cls-20{font-size:14px;}.cls-20,.cls-23,.cls-25,.cls-27{font-family:SegoeUI, Segoe UI;}.cls-22,.cls-23{font-size:18.04px;}.cls-24{letter-spacing:-0.03em;}.cls-26,.cls-29{font-size:15px;fill:#383838;}.cls-27{font-size:15.58px;}.cls-28{font-size:15.61px;letter-spacing:-0.03em;}</style></defs><title>OJ103514673</title><g id="Shapes"><line class="cls-1" x1="107.76" y1="358.17" x2="137" y2="358.17"/><rect class="cls-2" x="623" y="105.14" width="105" height="57" rx="8" ry="8"/><path class="cls-3" d="M91,42a4,4,0,0,1,4,4V376a4,4,0,0,1-4,4H8a4,4,0,0,1-4-4V46a4,4,0,0,1,4-4H68m23-4H8a8,8,0,0,0-8,8V376a8,8,0,0,0,8,8H91a8,8,0,0,0,8-8V46A8,8,0,0,0,91,38Z"/><path class="cls-2" d="M138.69,332.15h44.16c3.42,0,6.19,3.58,6.19,8v36c0,4.42-2.77,8-6.19,8H138.69c-3.42,0-6.19-3.58-6.19-8v-36C132.5,335.73,135.27,332.15,138.69,332.15Z"/><line class="cls-4" x1="98" y1="171" x2="211.67" y2="171"/><polygon class="cls-5" points="211.05 178.48 224 171 211.05 163.52 211.05 178.48"/><rect class="cls-6" x="359.68" y="36.31" width="214" height="60" rx="8" ry="8"/><polygon class="cls-7" points="411.28 42.23 383.48 42.23 369.58 66.31 383.48 90.38 411.28 90.38 425.18 66.31 411.28 42.23"/><rect class="cls-6" x="359.68" y="103.64" width="214" height="60" rx="8" ry="8"/><polygon class="cls-8" points="411.28 109.56 383.48 109.56 369.58 133.64 383.48 157.72 411.28 157.72 425.18 133.64 411.28 109.56"/><rect class="cls-6" x="359.68" y="170.97" width="214" height="60" rx="8" ry="8"/><polygon class="cls-9" points="411.28 176.9 383.48 176.9 369.58 200.97 383.48 225.05 411.28 225.05 425.18 200.97 411.28 176.9"/><rect class="cls-6" x="359.68" y="238.31" width="214" height="60" rx="8" ry="8"/><polygon class="cls-10" points="411.28 244.23 383.48 244.23 369.58 268.31 383.48 292.38 411.28 292.38 425.18 268.31 411.28 244.23"/><polyline class="cls-11" points="596.68 304 596.68 307 593.68 307"/><line class="cls-12" x1="587.77" y1="307" x2="342.63" y2="307"/><polyline class="cls-11" points="339.68 307 336.68 307 336.68 304"/><line class="cls-13" x1="336.68" y1="298.12" x2="336.68" y2="6.94"/><polyline class="cls-11" points="336.68 4 336.68 1 339.68 1"/><line class="cls-12" x1="345.59" y1="1" x2="590.73" y2="1"/><polyline class="cls-11" points="593.68 1 596.68 1 596.68 4"/><line class="cls-13" x1="596.68" y1="9.88" x2="596.68" y2="301.06"/><rect class="cls-11" x="486.68" y="339.44" width="110" height="44.75"/><line class="cls-11" x1="449.01" y1="362" x2="476.34" y2="361.9"/><polygon class="cls-14" points="474.9 366.89 483.52 361.87 474.86 356.92 474.9 366.89"/><line class="cls-11" x1="541.68" y1="331.82" x2="541.68" y2="310"/><polygon class="cls-14" points="546.67 330.37 541.68 339 536.7 330.37 546.67 330.37"/><line class="cls-11" x1="391.68" y1="339" x2="391.68" y2="317.18"/><polygon class="cls-14" points="396.67 318.63 391.68 310 386.69 318.63 396.67 318.63"/><rect class="cls-11" x="336.68" y="339.44" width="110" height="44.75"/><line class="cls-15" x1="310" y1="171" x2="354.52" y2="262.83"/><polygon class="cls-16" points="348.84 263.79 358 270 358.8 258.96 348.84 263.79"/><line class="cls-1" x1="574" y1="134" x2="612.24" y2="134"/><polygon class="cls-5" points="610.05 141.48 623 134 610.05 126.52 610.05 141.48"/><line class="cls-15" x1="310" y1="171" x2="354.69" y2="73.24"/><polygon class="cls-16" points="359.05 77.02 358 66 348.98 72.42 359.05 77.02"/><line class="cls-15" x1="310" y1="171" x2="353.41" y2="141.48"/><polygon class="cls-16" points="355.19 146.97 360 137 348.96 137.81 355.19 146.97"/><line class="cls-15" x1="310" y1="171" x2="353.17" y2="196.9"/><polygon class="cls-16" points="348.93 200.81 360 201 354.63 191.32 348.93 200.81"/><path class="cls-2" d="M231.27,38h71.82c4,0,7.27,3.58,7.27,8V290c0,4.42-3.26,8-7.27,8H231.27c-4,0-7.27-3.58-7.27-8V46C224,41.58,227.26,38,231.27,38Z"/><rect class="cls-2" x="219.5" y="332.15" width="86.72" height="52.03" rx="8" ry="8"/><polygon class="cls-5" points="109.95 365.65 97 358.17 109.95 350.69 109.95 365.65"/><line class="cls-1" x1="199.76" y1="358.17" x2="219" y2="358.17"/><polygon class="cls-5" points="201.95 365.65 189 358.17 201.95 350.69 201.95 365.65"/><line class="cls-1" x1="98" y1="69.49" x2="117.24" y2="69.49"/><polygon class="cls-5" points="115.05 76.97 128 69.49 115.05 62.01 115.05 76.97"/><line class="cls-17" x1="191.46" y1="69.49" x2="211.67" y2="69.49"/><polygon class="cls-5" points="211.05 76.97 224 69.49 211.05 62.01 211.05 76.97"/><path class="cls-2" d="M133.47,37.66h51.74c3.57,0,6.47,3.58,6.47,8V93.32c0,4.42-2.9,8-6.47,8H133.47c-3.57,0-6.47-3.58-6.47-8V45.66C127,41.24,129.9,37.66,133.47,37.66Z"/></g><g id="Layer_2" data-name="Layer 2"><text class="cls-18" transform="translate(5.55 208.99) scale(0.93 1)">クライアント</text><text class="cls-19" transform="translate(450.64 70.43) scale(0.96 1)">サービス</text><text class="cls-19" transform="translate(450.64 137.76) scale(0.96 1)">サービス</text><text class="cls-19" transform="translate(450.64 205.09) scale(0.96 1)">サービス</text><text class="cls-19" transform="translate(450.64 272.43) scale(0.96 1)">サービス</text><text class="cls-20" transform="translate(136.98 65.1)">ID <tspan class="cls-21" x="17.38" y="0">プロ</tspan><tspan class="cls-21"><tspan x="-5.31" y="16.8">バイダー</tspan></tspan></text><text class="cls-22" transform="translate(395.52 26.42)">マイクロサービス</text><text class="cls-23" transform="translate(232.77 152.53)">API <tspan class="cls-21" x="31.48" y="0">ゲー</tspan><tspan class="cls-21"><tspan x="-2.3" y="21.65">トウェイ</tspan></tspan></text><text class="cls-24" transform="translate(635.2 132.17)">リモート<tspan class="cls-25" x="62.08" y="0"> </tspan><tspan x="65.98" y="0">サ</tspan><tspan x="17.47" y="19.2">ービス</tspan></text><text class="cls-26" transform="translate(375.68 368.11)">管理</text><text class="cls-27" transform="translate(144.89 361.59) scale(0.97 1)">CDN</text><text class="cls-28" transform="translate(233.91 354.96)">静的コン<tspan x="7.57" y="18.73">テンツ</tspan></text><text class="cls-29" transform="translate(497.67 366.74)">サービス検索</text></g></svg>